<svg xmlns="http://www.w3.org/2000/svg" fill="none" viewBox="23.63 31.42 512.73 497.48"><defs><clipPath id="assetClipPath_XHvlejVY"><path d="m0 0 h 1800 v 1800 h -1800 v -1800 z" id="path_fVN0TtZl" fill="#ffffff"/></clipPath><clipPath id="clipPath_Wlg0LPf2"><path d="m0 0 h 651.032 v 109.936 h -651.032 v -109.936 z" id="path_YfsC0NUS"/></clipPath><clipPath id="clipPath_nVIlxzJN"><path d="m0 0 h 500.838 v 156.804 h -500.838 v -156.804 z" id="path__Hv6ZWjj"/></clipPath><clipPath id="clipPath_U3enOZmx"><path d="m0 0 h 913.971 v 210.04 h -913.971 v -210.04 z" id="path_peAu3Rks"/></clipPath><clipPath id="clipPath_viR278Uf"><path d="m0 0 h 1184.587 v 1392.643 h -1184.587 v -1392.643 z" id="path_2c-edzTo"/></clipPath><clipPath id="clipPath_R5zT2f66"><path d="m0 0 h 594.013 v 238.483 h -594.013 v -238.483 z" id="path_Ksr8eF_-"/></clipPath><clipPath id="clipPath_XWlKdRN5"><path d="m0 0 h 598.426 v 821.437 h -598.426 v -821.437 z" id="path_PZkbc6iM"/></clipPath><clipPath id="clipPath_OWupBzGJ"><path d="m0 0 h 156.967 v 80.761 h -156.967 v -80.761 z" id="path_h1tuRcrE"/></clipPath></defs><g transform="" data-asset-index="0"><g clip-path="url(#assetClipPath_XHvlejVY)" transform="scale(0.3111111111111111 0.3111111111111111)" data-asset-index="0"><defs/><g transform="translate(799.0 1057.0) rotate(0.0 335.0 56.5) scale(1.0291352806006464 1.0278707611701352)" id="Y56DceSkuiY4ypVvbP_Vm"><g clip-path="url(#clipPath_Wlg0LPf2)" transform="matrix(1 0 0 1 0 0)" id="a9UdQZo8mKL4Kh9O5k6k"><g fill="#FFBBA0" id="Z3128hKd268kLuaOwzh9H"><path d="M642.064 109.936H8.968c-4.945 0-8.968-4.022-8.968-8.968S4.023 92 8.968 92h633.096c4.945 0 8.968 4.023 8.968 8.969s-4.023 8.967-8.968 8.967zM8.968 95C5.677 95 3 97.678 3 100.969s2.677 5.968 5.968 5.968h633.096c3.291 0 5.968-2.677 5.968-5.968S645.355 95 642.064 95zm479.138-77.064H8.968C4.023 17.936 0 13.914 0 8.969S4.023 0 8.968 0h479.138c4.945 0 8.968 4.023 8.968 8.969s-4.023 8.967-8.968 8.967zM8.968 3C5.677 3 3 5.678 3 8.969s2.677 5.968 5.968 5.968h479.138c3.291 0 5.968-2.677 5.968-5.968S491.397 3 488.106 3z" fill="#FFBBA0" id="NLOZF4ebfPMczxpKkOuuM"/></g></g></g><g transform="translate(379.0 1543.0) rotate(0.0 249.5 78.5) scale(0.9963301506674812 1.0012499681130582)" id="aiVIhJ_f1D2_cg5Y7wQIi"><g clip-path="url(#clipPath_nVIlxzJN)" transform="matrix(1 0 0 1 0 0)" id="ojW8zMD7b71NTEqNM0pEF"><path d="M479.249 155.304H355.588c-11.923 0-21.588-9.665-21.588-21.588V99.13c0-11.923 9.665-21.588 21.588-21.588h123.661c11.923 0 21.588 9.665 21.588 21.588v34.586c.001 11.922-9.665 21.588-21.588 21.588zm-167 0H188.588c-11.923 0-21.588-9.665-21.588-21.588V99.13c0-11.923 9.665-21.588 21.588-21.588h123.661c11.923 0 21.588 9.665 21.588 21.588v34.586c.001 11.922-9.665 21.588-21.588 21.588zm-167 0H21.588C9.665 155.304 0 145.638 0 133.715V99.13c0-11.923 9.665-21.588 21.588-21.588h123.661c11.923 0 21.588 9.665 21.588 21.588v34.586c.001 11.922-9.665 21.588-21.588 21.588z" fill="#FFD5CD" id="DT1bZIP_kHU134iZ3QAoq"/><path d="M392.249 77.762H268.588c-11.923 0-21.588-9.665-21.588-21.588V21.588C247 9.665 256.665 0 268.588 0h123.661c11.923 0 21.588 9.665 21.588 21.588v34.586c.001 11.923-9.665 21.588-21.588 21.588zm-166.837 0H101.751c-11.923 0-21.588-9.665-21.588-21.588V21.588C80.162 9.665 89.828 0 101.751 0h123.661C237.335 0 247 9.665 247 21.588v34.586c0 11.923-9.665 21.588-21.588 21.588z" fill="#FFD5CD" id="WRt8yeSyaY5OwCdd1Q0fX"/><g fill="#003029" id="F6P3StfB_HhYTrfTRDXyM"><path d="M144.503 156.804a1.5 1.5 0 0 1 0-3c11.489 0 20.835-8.688 20.835-19.366v-36.03c0-4.346-1.514-8.453-4.377-11.877a1.5 1.5 0 0 1 2.301-1.924c3.321 3.97 5.076 8.742 5.076 13.801v36.029c0 12.333-10.693 22.367-23.835 22.367zm80.162-77.542h-55.751a1.5 1.5 0 0 1 0-3h55.751c11.489 0 20.835-8.688 20.835-19.366v-36.03c0-5.22-2.202-10.115-6.201-13.783a1.5 1.5 0 0 1 2.028-2.211c4.625 4.244 7.173 9.924 7.173 15.994v36.029c0 12.333-10.692 22.367-23.835 22.367zm86.838 77.542a1.5 1.5 0 0 1 0-3c11.489 0 20.835-8.688 20.835-19.366v-36.03a1.5 1.5 0 0 1 3 0v36.029c-.001 12.333-10.693 22.367-23.835 22.367zM334 79.262h-64.665c-6.595 0-12.956-2.599-17.45-7.129a1.5 1.5 0 1 1 2.13-2.113c3.935 3.967 9.519 6.242 15.32 6.242H334a1.5 1.5 0 0 1 0 3z" fill="#003029" id="o54PuGF5Hl6VhTbXZRGYG"/><path d="M160.296 150.692a1.5 1.5 0 0 1-1.024-2.596c3.911-3.655 6.066-8.506 6.066-13.659V98.408c0-10.679-9.346-19.366-20.835-19.366H70.488a1.5 1.5 0 0 1 0-3h74.014c13.143 0 23.835 10.033 23.835 22.366v36.029c0 5.993-2.492 11.623-7.018 15.851a1.487 1.487 0 0 1-1.023.404zm173.541-50.784a1.5 1.5 0 0 1-1.499-1.47c-.173-8.608 6.414-15.141 6.695-15.414 4.541-4.5 10.688-6.982 17.302-6.982h63.813a1.5 1.5 0 0 1 0 3h-63.813c-5.818 0-11.216 2.174-15.199 6.121-.066.064-5.946 5.927-5.799 13.215a1.5 1.5 0 0 1-1.469 1.53h-.031z" fill="#003029" id="Dxrut5TvVI2dl0BYRCjTK"/></g></g></g><g transform="translate(810.0 1241.0) rotate(0.0 457.0 105.5) scale(1.000031729671948 1.0045705579889546)" id="qn9IosX5bVWAGBZmikGvf"><g clip-path="url(#clipPath_U3enOZmx)" transform="matrix(1 0 0 1 0 0)" id="RMw3__o3PxVJlgt8kzoEF"><path d="M842.17 191.306H54c-29.823 0-54-24.177-54-54V54C0 24.177 24.177 0 54 0h788.17c29.823 0 54 24.177 54 54v83.306c0 29.824-24.176 54-54 54z" fill="#FFBBA0" id="G9JG2-rPju4lL8_owMe9S"/><g fill="#FFFFFF" id="t0M2vkFTtHGfvpQP0yfGf"><path d="M79.686 133.432a2.5 2.5 0 0 1-1.768-4.267l66.799-66.8a2.5 2.5 0 1 1 3.536 3.535l-66.799 66.8a2.496 2.496 0 0 1-1.768.732z" fill="#FFFFFF" id="VEcbRYLIePsy08alNoRBt"/><path d="M146.485 133.432c-.64 0-1.28-.244-1.768-.732L77.918 65.9a2.5 2.5 0 1 1 3.536-3.535l66.799 66.8a2.5 2.5 0 0 1-1.768 4.267z" fill="#FFFFFF" id="vQIYUD4ihfirleKLjIXsE"/><path d="M113.085 147.266a2.5 2.5 0 0 1-2.5-2.5V50.298a2.5 2.5 0 1 1 5 0v94.468a2.5 2.5 0 0 1-2.5 2.5z" fill="#FFFFFF" id="fv1MNzgSZHWxMmyhsqAZZ"/><path d="M160.319 100.032H65.851a2.5 2.5 0 1 1 0-5h94.468a2.5 2.5 0 1 1 0 5zm142.7 33.4a2.5 2.5 0 0 1-1.768-4.267l66.799-66.8a2.5 2.5 0 1 1 3.536 3.535l-66.799 66.8a2.493 2.493 0 0 1-1.768.732z" fill="#FFFFFF" id="J7nyt78d9R0SUEstBE09"/><path d="M369.818 133.432c-.64 0-1.28-.244-1.768-.732l-66.799-66.8a2.5 2.5 0 1 1 3.536-3.535l66.799 66.8a2.5 2.5 0 0 1-1.768 4.267z" fill="#FFFFFF" id="HHEA-ob37LFGaTyRHZP9o"/><path d="M336.418 147.266a2.5 2.5 0 0 1-2.5-2.5V50.298a2.5 2.5 0 1 1 5 0v94.468a2.5 2.5 0 0 1-2.5 2.5z" fill="#FFFFFF" id="x1cyhJ90DU08UfLLR6bCg"/><path d="M383.653 100.032h-94.468a2.5 2.5 0 1 1 0-5h94.468a2.5 2.5 0 1 1 0 5zm142.699 33.4a2.5 2.5 0 0 1-1.768-4.267l66.799-66.8a2.5 2.5 0 1 1 3.536 3.535l-66.799 66.8a2.493 2.493 0 0 1-1.768.732z" fill="#FFFFFF" id="J2Il2OcBkt5oOza2fZfIB"/><path d="M593.151 133.432c-.64 0-1.28-.244-1.768-.732l-66.799-66.8a2.5 2.5 0 1 1 3.536-3.535l66.799 66.8a2.5 2.5 0 0 1-1.768 4.267z" fill="#FFFFFF" id="y9eHrw2ws5p9T0kuPiC0"/><path d="M559.752 147.266a2.5 2.5 0 0 1-2.5-2.5V50.298a2.5 2.5 0 1 1 5 0v94.468a2.5 2.5 0 0 1-2.5 2.5z" fill="#FFFFFF" id="s7JjojtmJ-DL3yosN4WsS"/><path d="M606.986 100.032h-94.468a2.5 2.5 0 1 1 0-5h94.468a2.5 2.5 0 1 1 0 5zm142.7 33.4a2.5 2.5 0 0 1-1.768-4.267l66.799-66.8a2.5 2.5 0 1 1 3.536 3.535l-66.799 66.8a2.496 2.496 0 0 1-1.768.732z" fill="#FFFFFF" id="MXzHWuG3Yh482lg6yNP6G"/><path d="M816.485 133.432c-.64 0-1.28-.244-1.768-.732l-66.799-66.8a2.5 2.5 0 1 1 3.536-3.535l66.799 66.8a2.5 2.5 0 0 1-1.768 4.267z" fill="#FFFFFF" id="zqLkfdZ_jL39mc0_HzHoz"/><path d="M783.085 147.266a2.5 2.5 0 0 1-2.5-2.5V50.298a2.5 2.5 0 1 1 5 0v94.468a2.5 2.5 0 0 1-2.5 2.5z" fill="#FFFFFF" id="qOyYbOqsK4pydGOjfNhDP"/><path d="M830.319 100.032h-94.468a2.5 2.5 0 1 1 0-5h94.468a2.5 2.5 0 1 1 0 5z" fill="#FFFFFF" id="girzXF42XfcmOe3dlC-vi"/></g><path d="M858.471 210.04H70.301c-30.603 0-55.5-24.897-55.5-55.5V71.234c0-30.603 24.897-55.5 55.5-55.5h788.17c30.603 0 55.5 24.897 55.5 55.5v83.307c0 30.602-24.897 55.499-55.5 55.499zM70.301 18.734c-28.948 0-52.5 23.552-52.5 52.5v83.307c0 28.948 23.552 52.5 52.5 52.5h788.17c28.948 0 52.5-23.552 52.5-52.5V71.234c0-28.948-23.552-52.5-52.5-52.5z" fill="#FFBBA0" id="GaSPzul5SxYk0w-VEt6w"/><path d="M23.586 183.142c-.517 0-1.02-.267-1.298-.746a55.483 55.483 0 0 1-7.486-27.855V71.234c0-30.603 24.897-55.5 55.5-55.5h788.17c11.093 0 21.801 3.263 30.966 9.436a1.5 1.5 0 1 1-1.676 2.488c-8.668-5.838-18.797-8.924-29.29-8.924H70.301c-28.948 0-52.5 23.552-52.5 52.5v83.307c0 9.27 2.448 18.381 7.08 26.348a1.5 1.5 0 0 1-1.295 2.253z" fill="#FFFFFF" id="Q098UdtPmNalq49ZBIjqL"/></g></g><g transform="translate(188.0 306.0) rotate(0.0 591.5 695.5) scale(0.9986602925745429 0.9988202288741622)" id="LjA9KZNMNUIiz1_JeQz"><g clip-path="url(#clipPath_viR278Uf)" transform="matrix(1 0 0 1 0 0)" id="mMSGFxKMxQmvkcFORuNEP"><path d="M134.312 603.387c10.667 1.581 44.855.175 58.228-.146 29.262-.702 24.333-120.63-1.624-123.356-17.122-1.798-96.182 42.163-96.182 42.163s28.911 79.758 39.578 81.339z" fill="#FFA78E" id="MUjB5xmTpiVInJTzUi1gg"/><path d="M190.916 479.885c-32.476-1.422-61.575 5.03-83.39 7.793-22.46 2.845-36.328 12.623-35.332 24.707 1.189 14.435 18.561 18.673 30.145 19.562 8.135.624 35.53.11 35.53.11 32.193-.148 61.969-39.257 54.048-48.172M64.619 561.638c14.267 11.601 20.75 21.147 14.608 28.268-4.324 5.013-13.897 10.054-24.388 9.944-19.428-.205-34.667-11.188-42.478-21.108-20.891-26.532-10.307-40.961-4.22-43.599 9.321-4.039 22.58 3.026 35.482 22.762z" fill="#FFA78E" id="NXeZ4f7bEdKYHktxMC15P"/><path d="M109.896 587.476c-2.483 9.501-14.697 18.727-32.831 17.186-9.259-.787-19.491-7.855-25.655-19.557-7.061-13.405-8.352-29.121-8.19-35.609.482-19.258 11.062-25.854 17.676-25.345 10.129.78 20.372 12.557 20.648 38.196l20.794 3.556z" fill="#FFA78E" id="vsqayXEiBNWcV_SFx_7Rt"/><path d="M64.313 601.355c-.289 0-.581-.083-.839-.258-5.422-3.666-10.053-8.954-13.392-15.292-6.987-13.265-8.544-29.087-8.362-36.345.021-.828.69-1.459 1.537-1.463a1.5 1.5 0 0 1 1.462 1.537c-.174 6.969 1.318 22.154 8.017 34.872 3.11 5.903 7.404 10.815 12.418 14.206a1.5 1.5 0 0 1-.841 2.743z" fill="#003029" id="RWC_g7hs4BTmv9MLtvt9q"/><path d="M139.053 574.439c-4.504 18.016-16.418 28.662-33.898 28.802-18.49.147-28.726-20.828-31.765-32.594-9.245-35.795 5.94-44.918 12.564-45.29 10.143-.569 20.501 6.73 24.172 32.107z" fill="#FFA78E" id="VnufGtkByidpokqdrvi41"/><path d="M101.127 604.428c-.081 0-.164-.007-.247-.021-16.757-2.773-26.077-22.291-28.943-33.387-5.816-22.518-1.936-34.225 2.342-40.081 3.612-4.944 8.355-6.9 11.59-7.082 17.723-.979 23.657 19.707 25.634 32.674l28.308 16.613a1.5 1.5 0 0 1-1.519 2.588l-28.927-16.977a1.5 1.5 0 0 1-.725-1.079c-3.013-20.826-10.83-31.502-22.603-30.823-2.549.143-6.34 1.757-9.335 5.855-3.896 5.334-7.382 16.18-1.86 37.562 2.684 10.394 11.292 28.655 26.528 31.178a1.5 1.5 0 0 1-.243 2.98z" fill="#003029" id="wpV5DIpFmVah9SLKK6f09"/><path d="M156.967 595.974c-5.183 3.784-10.092 7.316-22.655 7.413-12.327.095-24.89-14.725-29.243-33.028-8.76-36.833 5.781-45.624 12.413-45.803 15.882-.43 25.838 19.303 28.174 43.49z" fill="#FFA78E" id="oVMkYqROVP3tgswLsd6XC"/><path d="M134.312 604.887c-12.869-.001-26.068-14.695-30.703-34.182-5.654-23.771-1.585-35.602 2.824-41.34 4.376-5.696 9.531-6.269 11.007-6.309 15.373-.406 27.037 17.186 29.707 44.845a1.5 1.5 0 0 1-1.349 1.638 1.504 1.504 0 0 1-1.637-1.349c-2.507-25.968-12.981-42.498-26.64-42.136-2.351.064-5.874 1.447-8.71 5.138-4.012 5.223-7.665 16.196-2.285 38.819 4.251 17.873 16.456 31.874 27.784 31.875a1.5 1.5 0 0 1 .002 3.001zm13.985-57.157a1.5 1.5 0 0 1-1.131-2.484c7.106-8.166 16.379-13.139 25.441-13.642 7.056-.39 13.512 1.906 18.665 6.647a1.499 1.499 0 1 1-2.032 2.207c-4.542-4.179-10.233-6.189-16.467-5.859-8.258.459-16.766 5.057-23.344 12.615a1.495 1.495 0 0 1-1.132.516z" fill="#003029" id="ow75TNaCpX_E0kyxxnSg"/><path d="m135.103 533.611-.414-.001a1.5 1.5 0 0 1 .008-3c.141.002.273.001.408.001 7.558 0 13.902-1.108 18.865-3.296a1.5 1.5 0 1 1 1.211 2.745c-5.347 2.356-12.1 3.551-20.078 3.551z" fill="#003029" id="B6_2azWHNERtxMEMhCiCA"/><path d="m190.916 479.885 34.617.108 154.485.448s43.478-85.443 64.15-127.249c27.451-55.517 56.435-81.841 76.669-96.575 31.278-17.839 92.528 77.259 74.158 124.378 0 0-53.019 109.754-70.036 144.241-32.415 65.694-64.074 98.974-137.904 98.974-38.937 0-87.237-.304-114.888-.193a44.224 44.224 0 0 1-23.518-6.663l-25.147-15.626h-32.587c26.074-30.892 28.755-93.892.001-121.843z" fill="#FFFFFF" id="e_AKP3MRR5zLewZOXfR_p"/><path d="M387.055 625.709c-17.095 0-35.936-.059-54.156-.115-23.254-.071-45.219-.14-60.726-.077-8.627-.009-17.008-2.348-24.316-6.89l-24.783-15.4-32.158.001a1.5 1.5 0 0 1-1.098-2.521c13.471-14.477 21.341-43.052 19.583-71.105-1.359-21.671-8.446-39.372-19.446-48.564a1.499 1.499 0 0 1 .962-2.651h.005l34.617.107 153.562.445c4.527-8.901 44.372-87.274 63.724-126.411 26.418-53.428 53.895-78.045 77.289-95.08.045-.032.092-.062.14-.09 9.165-5.228 21.386-1.914 34.413 9.331 14.171 12.232 27.75 32.303 36.323 53.688 9.562 23.853 11.482 45.574 5.404 61.163-.014.036-.03.072-.047.107-.53 1.098-53.216 110.154-70.041 144.253-31.941 64.731-63.593 99.809-139.251 99.809zm-100.665-3.216c13.526 0 29.684.05 46.518.102 18.218.057 37.057.115 54.147.115 74.091 0 105.154-34.49 136.559-98.138 16.673-33.789 68.583-141.234 70.004-144.176 12.264-31.587-12.341-86.772-40.914-111.437-6.929-5.981-20.144-15.094-30.895-9.037-23.084 16.818-50.192 41.141-76.297 93.935-20.439 41.336-63.723 126.41-64.158 127.265a1.5 1.5 0 0 1-1.337.819h-.004l-185.251-.544c10.101 10.265 16.322 27.119 17.632 48.017 1.71 27.289-5.54 55.16-18.196 70.814l29.304-.001c.28 0 .554.078.792.226l25.147 15.626a42.67 42.67 0 0 0 22.549 6.438h.172c4.286-.018 9.066-.024 14.228-.024z" fill="#003029" id="inAoCc8yzs1B79KQ_T-qK"/><path d="M223.503 603.228a1.5 1.5 0 0 1-.901-2.701c11.215-8.405 22.411-34.245 20.491-71.118-1.251-24.02-8.104-42.013-18.331-48.13a1.5 1.5 0 1 1 1.54-2.575c11.087 6.632 18.483 25.528 19.787 50.548 1.386 26.617-4.809 61.026-21.688 73.675a1.487 1.487 0 0 1-.898.301zm181.182-90.483c-.44 0-.875-.192-1.172-.562l-21.971-27.438.124 21.363a1.5 1.5 0 0 1-1.491 1.509h-.009a1.5 1.5 0 0 1-1.5-1.491l-.149-25.676a1.5 1.5 0 0 1 2.671-.946l24.667 30.804a1.5 1.5 0 0 1-1.17 2.437z" fill="#003029" id="Le50Yp1yPF81HbyW7WdD7"/><path d="m615.985 48.225 23.843-7.248c-14.961-26.111-36.172-37.008-66.877-24.791z" fill="#E4634F" id="Sedv1-3ScnYHoRDiVI44L"/><path d="M627.599 72.585c-14.7-42.563-45.824-65.811-90.403-46.573-46.125 19.905-53.143 60.312-35.86 101.063-16.311-9.467-28.542 8.956-22.198 23.641 4.694 10.865 21.145 17.09 36.159 3.041 27.848 31.1 71.518 29.957 103.247 11.173 38.845-22.999 46.399-72.391 9.055-92.345z" fill="#FFA78E" id="d504MfzAr402zWJrN5aVH"/><path d="M512.628 79.411s4.205 16.333 7.011 32.389c3.933 22.508-12.722 26.111-18.304 15.275-8.382-18.528-10.11-36.514-6.965-54.105z" fill="#E4634F" id="MpJeddgTvQhjD2aJ9IbNy"/><path d="M491.627 151.411a1.501 1.501 0 0 1-1.363-2.124l6.45-14.094a1.501 1.501 0 0 1 2.728 1.248l-6.45 14.094c-.252.55-.796.876-1.365.876z" fill="#003029" id="Hn9_vsITR_nnE8DmoCD7I"/><path d="M501.162 147.296a1.49 1.49 0 0 1-.607-.129l-13.982-6.193c-.758-.335-1.1-1.221-.764-1.979s1.222-1.103 1.979-.764l13.982 6.193a1.499 1.499 0 0 1-.608 2.872zm56.125-51.972a1.5 1.5 0 0 1-1.482-1.284c-1.37-9.437 2.781-20.631 15.128-22.909a1.5 1.5 0 1 1 .544 2.949c-7.532 1.391-14.382 7.968-12.704 19.528a1.5 1.5 0 0 1-1.486 1.716z" fill="#003029" id="jd4wgLD7IMWdLDmrXo5NZ"/><path d="M574.186 82.618c2.885 7.087 2.717 13.853-.377 15.112-3.093 1.26-7.94-3.464-10.826-10.551-1.375-3.377-2.056-6.68-2.058-9.35 0-.449 6.906-4.533 7.366-4.132 2.147 1.869 4.315 5.041 5.895 8.921zm24.53-6.061a1.5 1.5 0 0 1-1.482-1.284c-1.37-9.437 2.781-20.63 15.128-22.909a1.499 1.499 0 1 1 .545 2.949c-7.532 1.392-14.382 7.969-12.704 19.528a1.5 1.5 0 0 1-1.487 1.716z" fill="#003029" id="bqPnArUsbV_mdMSoG9"/><path d="M615.615 63.852c2.885 7.087 2.717 13.853-.377 15.112-3.093 1.26-7.94-3.464-10.826-10.551-1.375-3.377-2.056-6.68-2.058-9.35 0-.449 6.906-4.533 7.366-4.132 2.147 1.869 4.315 5.041 5.895 8.921z" fill="#003029" id="WMTc_Y0UtXLo5yUH0Pjur"/><path d="M565.036 15.673c-60.496-9.348-95.737 37.51-97.673 94.408l73.36-33.731c3.157-8.343 6.921-17.029 9.252-21.331l-.425 18.058 10.147-4.569c4.644-9.782 7.748-20.531 10.057-31.777 4.444 7.882 6.029 16.285 4.374 25.279l21.533-9.695c4.989-12.637 1.582-24.115-10.221-34.433 24.335-6.08 42.947 7.891 50.459 24.287l6.786-2.063c-6.149-30.524-39.419-58.669-77.649-24.433z" fill="#E4634F" id="s9hyHRW8Xiy2kDKl7N1Gx"/><path d="M487.754 102.401a1.501 1.501 0 0 1-.617-2.868l30.738-13.839a1.5 1.5 0 0 1 1.231 2.736l-30.738 13.839a1.49 1.49 0 0 1-.614.132zM635.901 43.67a1.5 1.5 0 0 1-1.365-.875c-7.291-15.915-25.186-29.333-48.731-23.457a1.5 1.5 0 1 1-.727-2.91c25.215-6.302 44.379 8.075 52.186 25.117a1.5 1.5 0 0 1-1.363 2.125z" fill="#003029" id="QheZ6VQyDxL3p89q6ciu4"/><path d="M595.711 114.758c-6.121-9.745 14.879-22.59 20.136-12.33 4.224 3.073 4.847 11.365-2.25 16.419-6.842 4.872-17.569 2.802-17.886-4.089z" fill="#FF806A" id="uAfmr3SMDwaB_69HaAy4"/><path d="M581.102 119.453a1.5 1.5 0 0 1-.117-2.995c8.65-.688 26.807-4.678 33.615-14.863a1.501 1.501 0 0 1 2.495 1.668c-7.431 11.118-26.045 15.405-35.872 16.186a2.528 2.528 0 0 1-.121.004z" fill="#003029" id="xEbNrL0KLqIERNug2Q3tv"/><path d="M513.523 1053.489c.609 28.543 1.282 37.892 1.282 69.968-10.772 76.027-50.452 90.083-116.485 47.639 0 0-25.149-94.142-60.11-178.32-28.24-67.996 171.486-118.749 175.313 60.713z" fill="#FFA78E" id="H75jPS9_W5h5vAmAHJEpX"/><path d="M721.528 453.398c66.808 41.802 96.027 141.283-38.134 206.755-98.896 50.024-173.66 83.715-236.071 118.14 28.48 44.434 60.098 139.664 66.2 275.196H307.11s-47.681-191.752-52.149-223.922c-13.224-95.214-25.924-162.196 95.748-222.491 36.278-17.978 181.568-96.758 181.568-96.758s9.945-15.073 29.899-33.402c42.094-38.665 127.552-74.937 159.352-23.518z" fill="#FF7964" id="JDWhux3kC1OTJ7JymjGoa"/><path d="M535.791 535.093a29.98 29.98 0 0 1-11.48-2.276l-17.464-7.237a1.5 1.5 0 0 1 1.148-2.772l17.464 7.237c7.915 3.282 17.015 2.592 24.345-1.844 8.855-5.358 13.922-15.475 12.909-25.774l-2.031-20.658a1.501 1.501 0 0 1 2.986-.293l2.031 20.658c1.125 11.442-4.505 22.682-14.342 28.634a30.084 30.084 0 0 1-15.566 4.325z" fill="#003029" id="NHPjoG-y9o-f0M47tnvNo"/><path d="M288.27 1233.684c-3.944 19.721 19.931 17.23 30.516 17.23s25.118-1.246 40.36-8.615c11.123 4.463 21.5 8.615 43.507 8.615 23.456 0 36.951-8.615 36.951-8.615s23.875 8.615 37.781 8.615c13.907 0 28.232-12.04 28.232-12.04s14.949 12.04 46.085 12.04 41.311-14.531 37.781-28.855c-4.666-18.938-17.645-48.991-35.85-50.445-14.34-1.144-261.422 42.366-265.363 62.07z" fill="#FFFFFF" id="S-1myGcQ6CV40ZDomuHv"/><path d="M311.146 1252.515c-7.831 0-17.331-.747-21.992-6.32-2.632-3.147-3.425-7.455-2.355-12.805.664-3.318 5.757-8.931 42.168-19.32 21.624-6.171 51.979-13.331 87.782-20.708 63.271-13.035 129.32-23.856 137.004-23.242 8.53.681 16.886 7.383 24.165 19.383 5.366 8.846 10.234 20.883 13.022 32.198 1.66 6.736.361 13.271-3.658 18.4-4.402 5.617-14.147 12.313-35.58 12.313-27.236 0-42.2-8.982-46.044-11.65-3.457 2.696-15.872 11.65-28.274 11.65-12.861 0-33.554-7.038-37.618-8.466-2.997 1.725-16.065 8.466-37.115 8.466-21.917 0-32.496-4.084-43.454-8.478-12.038 5.704-25.266 8.478-40.413 8.478-.979 0-2.073.021-3.248.045-1.363.027-2.844.056-4.39.056zm-22.876-18.831 1.471.294c-.895 4.477-.335 7.843 1.714 10.292 4.658 5.571 16.312 5.345 24.024 5.189 1.197-.023 2.31-.045 3.307-.045 14.937 0 27.925-2.77 39.707-8.466.38-.185.82-.198 1.211-.042 10.904 4.375 21.203 8.508 42.948 8.508 22.684 0 36.014-8.297 36.146-8.381a1.505 1.505 0 0 1 1.315-.146c.236.085 23.791 8.526 37.272 8.526 13.186 0 27.128-11.572 27.268-11.689a1.496 1.496 0 0 1 1.906-.02c.145.115 14.987 11.709 45.144 11.709 20.226 0 29.228-6.071 33.219-11.164 3.488-4.451 4.562-9.926 3.106-15.833-2.719-11.035-7.457-22.759-12.674-31.359-4.713-7.769-12.327-17.188-21.839-17.948-6.705-.529-70.388 9.639-136.16 23.19-116.207 23.942-127.056 34.893-127.614 37.678z" fill="#003029" id="Saw6Rx14oKJrcsOXrmgOy"/><path d="m378.244 1163.181-86.301 52.901c-5.98 3.666-7.612 11.618-3.56 17.35s208.388-30.592 218.47-32.872c42.393-9.586 34.284-28.568 46.909-28.975-9.209-14.429-33.107-48.136-33.107-48.136l13.924-15.298c5.688-7.198-.245-18.149-9.302-16.627-2.7.453-5.259 1.909-7.283 4.984-2.835 4.306-9.131 19.284-11.735 27.01-6.652 19.735-10.089 46.264-35.826 53.329-11.855 3.254-38.616-6.996-54.81-5.347l1.209-9.403c1.14-8.867-5.397-16.886-14.323-17.57l-10.939-.838c-6.069-.465-11.425 3.918-12.161 9.952z" fill="#25968A" id="UmcGusg4RU3_rGhwye21"/><path d="M312.879 1212.558a5.398 5.398 0 0 1-4.182-1.986 5.4 5.4 0 0 1-.788-5.562 1.501 1.501 0 0 1 2.758 1.182c-.361.843-.23 1.77.351 2.479a2.372 2.372 0 0 0 2.362.834l86.398-18.042c6.757-1.41 11.899-6.715 13.101-13.512l1.167-6.598a1.5 1.5 0 1 1 2.954.521l-1.167 6.598c-1.416 8.013-7.477 14.264-15.441 15.928l-86.398 18.042a5.428 5.428 0 0 1-1.115.116zm-24.498 22.374a1.5 1.5 0 0 1-.216-2.984c2.083-.306 208.446-30.609 218.356-32.851 26.141-5.911 32.614-15.412 36.898-21.699 2.609-3.829 4.863-7.137 10.293-7.312.823-.068 1.521.622 1.548 1.45s-.623 1.521-1.451 1.548c-3.906.126-5.414 2.338-7.911 6.003-4.549 6.676-11.423 16.765-38.716 22.936-10.022 2.267-210.071 31.644-218.583 32.894-.072.01-.145.015-.218.015zm173.648-179.942a1.502 1.502 0 0 1-1.42-1.017c-.631-1.854-63.226-185.767-72.073-217.88-8.738-31.715-8.388-57.054 1.068-77.465 7.865-16.975 22.11-30.87 44.83-43.729 38.857-21.99 204.262-97.604 205.929-98.364a1.5 1.5 0 1 1 1.247 2.728c-1.665.761-166.953 76.319-205.698 98.247-22.148 12.534-35.998 26-43.586 42.378-9.146 19.74-9.439 44.406-.898 75.407 8.824 32.028 71.39 215.857 72.021 217.71a1.499 1.499 0 0 1-1.42 1.985z" fill="#003029" id="WikRb2kXQpOAap0wHi3g"/><path d="M425.096 781.075a1.5 1.5 0 0 1-.085-2.997l20.333-1.173-4.108-13.768a1.5 1.5 0 1 1 2.875-.857l4.65 15.585a1.501 1.501 0 0 1-1.351 1.926l-22.226 1.281a1.293 1.293 0 0 1-.088.003z" fill="#003029" id="qpZfNT2u1aE_DxqVMaF2I"/><path d="M1094.31 1163.97c5.728 29 11.485 61.149 17.234 96.96-17.176 67.591-56.151 83.123-116.039 48.716l-48.365-113.834s109.507-222.535 147.17-31.842z" fill="#FFA78E" id="yyo9B9y4235wwc7m4LNAc"/><path d="M635.832 449.331c78.123-46.816 180.856-57.921 233.639 62.917 44.024 100.785 106.884 289.253 126.663 342.038 24.195 64.569 60.656 119.205 98.398 310.806l-178.199 63.993L698.31 628.21s-140.601-132.063-62.478-178.879z" fill="#FF7964" id="yxFkrS3T5VcAkfk7hiiut"/><path d="M772.572 538.812c-30.693 0-58.875-19.77-68.631-49.848l-13.483-41.571a1.5 1.5 0 0 1 2.854-.926l13.483 41.571c10.677 32.915 44.38 52.957 78.394 46.604l23.685-4.419a1.5 1.5 0 0 1 .551 2.949l-23.685 4.419a71.737 71.737 0 0 1-13.168 1.221z" fill="#003029" id="rjC7EcE5pLeD8PPkjh0sS"/><path d="M1047.681 1183.416a1.5 1.5 0 0 1-1.408-.983L781.157 459.748a1.5 1.5 0 0 1 2.817-1.033l265.115 722.684a1.5 1.5 0 0 1-1.408 2.017z" fill="#003029" id="RZ2buv53AD46z1ossxekT"/><path d="M704.154 480.441s79.454-308.234 30.688-322.2c-85.014 19.838-190.979 80.094-218.74 101.935-27.31 21.486 72.442 235.667 72.442 235.667z" fill="#FFFFFF" id="kytVvONg_b1r56-vF4fX"/><path d="M588.542 497.343a1.5 1.5 0 0 1-.196-2.988l115.61-15.402a1.503 1.503 0 0 1 1.685 1.289 1.502 1.502 0 0 1-1.289 1.686l-115.61 15.402a1.503 1.503 0 0 1-.2.013zm-47.206-252.741a1.498 1.498 0 0 1-.79-2.775c14.387-8.897 53.338-31.973 104.158-54.044a1.5 1.5 0 0 1 1.195 2.752c-50.641 21.993-89.443 44.98-103.776 53.843a1.49 1.49 0 0 1-.787.224z" fill="#003029" id="bARYo9Jqe51taGOMCf2iH"/><path d="m610.309 519.813-64.811-2.932c-38.85-2.839-49.251-68.418-24.609-86.823-33.457-8.148-35.775-62.276-16.036-82.701-25.075-21.536-16.061-65.694 11.249-87.18 9.803-7.713 20.058-14.439 32.188-21.308zM645.9 189.586c29.744-12.318 65.86-25.959 88.942-31.345 48.766 13.966 77.81 64.574 57.895 99.298 44.107 18.383 53.845 87.731 31.504 112.737 53.385 14.467 49.738 102.327 32.866 110.523-29.384 14.273-159.596 27.398-159.596 27.398L630.599 248.65s5.814-55.135 15.301-59.064z" fill="#E4634F" id="PFewXwls0pLZt9MMc8VpT"/><path d="M655.986 301.704a1.499 1.499 0 0 1-.446-2.932l20.368-6.354a1.499 1.499 0 1 1 .894 2.863l-20.368 6.354c-.15.047-.3.069-.448.069zm40.372-12.596a1.499 1.499 0 0 1-.446-2.932l96.379-30.069a1.495 1.495 0 0 1 1.879.985 1.499 1.499 0 0 1-.985 1.878l-96.379 30.069c-.149.047-.3.069-.448.069z" fill="#003029" id="I_mZwGmupT6SJS_tKawVT"/><path d="M784.11 306.814s207.067 1.99 256.474 3.404c108.655 3.109 117.861-129.422 22.391-139.446 3.702.389-140.352-13.862-237.497-16.858-41.462-1.279-76.201-.508-90.635 4.327-29.873 12.689-7.916 143.637 49.267 148.573z" fill="#FFFFFF" id="CqUx8hKW6SDcrAAt64o-"/><path d="M1044.354 311.773a132.5 132.5 0 0 1-3.813-.056c-48.828-1.397-254.375-3.384-256.445-3.403-.038 0-.076-.002-.115-.006-15.569-1.344-29.905-11.924-41.457-30.597-9.771-15.795-17.057-36.461-20.514-58.191-5.202-32.694-.396-57.29 12.246-62.66.036-.015.073-.029.11-.042 13.092-4.384 43.762-5.866 91.158-4.402 83.983 2.59 202.117 13.471 236.323 16.744.6.058 1.001.096 1.192.113.006.001.011.002.017.001h.001l.075.006c21.931 2.303 39.899 11.169 51.961 25.64 10.86 13.028 16.199 29.807 15.036 47.246-2.261 33.901-30.07 69.607-85.775 69.607zm-260.171-6.458c4.441.043 207.877 2.014 256.444 3.404 39.44 1.107 83.342-19.279 86.509-66.754 2.864-42.928-31.302-66.216-64.272-69.697v.001c-.015-.004-.03-.004-.045-.005a1.688 1.688 0 0 1-.203-.036c-.323-.012-.676-.046-1.054-.082-34.184-3.271-152.237-14.145-236.13-16.732-46.973-1.451-77.27-.025-90.056 4.23-10.943 4.72-15.221 29.128-10.403 59.405 6.301 39.607 27.517 83.479 59.21 86.266z" fill="#003029" id="by8kaugUELEQbGGT8G4QV"/><path d="M868.132 205.774c1.031 9.987 29.427 17.044 48.98 23.528 13.126 4.353 19.305 6.607 27.807 10.098 12.951 5.318 3.806-132.04 3.806-132.04s-26.07-11.355-66.555-24.255c0 0-15.379 109.675-14.038 122.669z" fill="#FFA78E" id="Gi99zMmt4wAFhz9-n5V92"/><path d="M887.381 125.238s-11.219-2.316-18.753-4.782c19.31 21.622-3.107 45.498-36.437 20.497-37.599-28.203-11.515-77.442 49.978-57.848 9.663 12.373 8.844 26.957 5.212 42.133z" fill="#FFA78E" id="tYefC6reawK_R5lWmohOK"/><path d="M887.346 147.086s-11.219-2.316-18.753-4.782c19.31 21.622-3.107 45.498-36.437 20.497-37.599-28.203-11.515-77.442 49.978-57.848 9.664 12.374 8.844 26.957 5.212 42.133z" fill="#FFA78E" id="uciEhhWu_2_3PHrj8kbE"/><path d="M816.587 123.761a1.5 1.5 0 0 1-1.399-2.041c3.636-9.413 11.789-16.579 22.955-20.178 12.432-4.008 27.801-3.322 44.448 1.981.789.252 1.225 1.096.974 1.885s-1.097 1.221-1.885.975c-24.595-7.838-55.017-6.042-63.693 16.418-.231.596-.799.96-1.4.96z" fill="#003029" id="BGQ2vBA6WvLumKlKQ4H1"/><path d="M885.693 175.89s-10.611-2.191-17.736-4.522c18.263 20.449-2.938 43.03-34.46 19.385-35.56-26.674-10.89-73.242 47.268-54.711 9.138 11.702 8.363 25.494 4.928 39.848z" fill="#FFA78E" id="vSkcqN4GrPNaFfeHkGJ1L"/><path d="M817.621 157.723a1.5 1.5 0 0 1-1.465-1.825c1.807-8.142 7.175-15.142 15.115-19.708 12.62-7.259 30.36-7.819 49.95-1.577a1.502 1.502 0 0 1-.911 2.859c-18.778-5.981-35.663-5.514-47.544 1.319-7.2 4.142-12.06 10.448-13.682 17.758a1.502 1.502 0 0 1-1.463 1.174z" fill="#003029" id="B0_ynbSjGQ_xrnvFhBKEa"/><path d="M880.134 169.512c-29.738-9.475-48.181-1.428-53.887 12.971-6.361 16.053 3.641 32.463 12.806 40.282 14.093 12.023 35.018 7.994 29.081-16.991 2.928-.839 4.678-1.126 10.284-2.445z" fill="#FFA78E" id="KUfVajFQjV56GBwRqsbZD"/><path d="M868.948 211.784a1.501 1.501 0 0 1-1.488-1.322c-.305-2.566-.95-5.371-1.916-8.338a1.5 1.5 0 1 1 2.853-.928c1.026 3.152 1.713 6.15 2.042 8.91a1.5 1.5 0 0 1-1.491 1.678zm-44.351-21.782a1.5 1.5 0 0 1-1.483-1.736 29.98 29.98 0 0 1 1.739-6.337c5.376-13.565 22.842-24.331 55.737-13.847a1.5 1.5 0 0 1-.911 2.859c-30.928-9.857-47.16-.215-52.037 12.094a27.008 27.008 0 0 0-1.565 5.702 1.5 1.5 0 0 1-1.48 1.265z" fill="#003029" id="ZdZqpL2NGMhqCbjhR8YXm"/><path d="m946.3 239.902 17.096 23.617a33.375 33.375 0 0 0 15.215 11.644c16.775 6.353 24.881 8.721 34.373 12.235 32.061 11.872 43.773 16.681 57.887 15.532 67.256-5.473 81.329-105.207 16.443-135.522-49.843-23.287-94.332-43.715-124.118-55.452z" fill="#FFFFFF" id="Y8PwMHDmG05OkivxJHO12"/><path d="M1085.264 303.763a1.5 1.5 0 0 1-.624-2.864c27.066-12.37 43.296-36.842 43.416-65.46.12-28.701-16.121-54.871-41.377-66.671-52.553-24.554-93.566-43.302-122.248-54.708l-16.566 125.446 16.746 23.134a31.8 31.8 0 0 0 14.531 11.121c16.022 6.068 59.216 21.548 67.755 24.19a1.5 1.5 0 1 1-.886 2.865c-8.575-2.652-51.879-18.171-67.931-24.251a34.79 34.79 0 0 1-15.899-12.166l-17.096-23.618a1.501 1.501 0 0 1-.272-1.076l16.896-127.944a1.5 1.5 0 0 1 2.037-1.2c28.826 11.359 70.499 30.397 124.203 55.487 26.311 12.294 43.232 39.535 43.107 69.402-.125 29.819-17.01 55.306-45.168 68.176a1.478 1.478 0 0 1-.624.137z" fill="#003029" id="OQ91RoJufaaxf9l1cZoAV"/><path d="m946.3 239.902-29.188-10.6c21.092-37.053 34.748-89.521 18.114-127.696l27.971 10.351c20.581 32.054 7.177 89.702-16.897 127.945z" fill="#FFFFFF" id="p422WsMwLw8uzcAhIb7xO"/><path d="M946.3 241.402c-.171 0-.344-.029-.512-.09l-29.188-10.6a1.501 1.501 0 0 1-.792-2.153c19.1-33.554 35.286-86.778 18.042-126.354a1.5 1.5 0 0 1 1.896-2.007l27.971 10.352c.305.113.566.323.742.597 12.358 19.245 11.452 44.722 8.516 62.704-3.711 22.732-12.971 47.099-25.405 66.85a1.504 1.504 0 0 1-1.27.701zm-27.013-12.905 26.384 9.581c11.906-19.238 20.758-42.751 24.343-64.71 5.095-31.211-1.362-49.905-7.813-60.179l-24.29-8.989c15.281 39.59-.071 90.969-18.624 124.297z" fill="#003029" id="OSY1_6aj2HTa6X6zaCicu"/><path d="m598.366 319.271 97.993-150.373c-20.857-20.698-49.663-18.349-61.738 10.135-4.107 9.689-38.672 116.636-38.672 116.636-15.099-19.46-28.2-45.033-35.601-63.865 13.031-7.425 25.308-14.133 35.831-19.172 0 0-25.351-24.472-47.745-1.528-2.981 3.054-10.441 11.593-17.846 24.423a20.363 20.363 0 0 0 3.883 25.192z" fill="#FFFFFF" id="Ql-wghBKVmqvXlmZ6sAdG"/><path d="M595.948 297.169c-.458 0-.898-.211-1.185-.58-15.789-20.351-28.852-46.526-35.812-64.236a1.502 1.502 0 0 1 .653-1.853c14.055-8.008 24.897-13.845 33.868-18.226-2.415-1.963-7.274-5.48-13.358-7.628-11.491-4.056-21.789-1.53-30.609 7.505-1.51 1.547-9.458 9.981-17.62 24.124-4.454 7.718-2.975 17.314 3.597 23.337l31.454 28.823a1.5 1.5 0 1 1-2.026 2.211l-31.454-28.823c-7.617-6.979-9.331-18.103-4.168-27.048 8.341-14.453 16.517-23.128 18.071-24.72 23.169-23.736 49.597 1.242 49.861 1.497a1.497 1.497 0 0 1-.394 2.431c-9.063 4.34-20.083 10.224-34.604 18.479 6.727 16.816 18.713 40.737 33.181 60.019 5.535-17.105 34.069-105.146 37.836-114.034 5.61-13.234 15.167-21.795 26.91-24.104 12.555-2.47 26.139 2.448 37.266 13.489a1.5 1.5 0 0 1 .2 1.884l-71.854 110.262a1.499 1.499 0 1 1-2.513-1.638l71.18-109.227c-10.235-9.731-22.458-14.035-33.699-11.826-10.736 2.111-19.517 10.042-24.727 22.331-4.035 9.518-38.281 115.443-38.626 116.512a1.502 1.502 0 0 1-1.428 1.039z" fill="#003029" id="WbWsTiTnZhSkLrp8VSPO-"/><path d="M881.206 1373.812c-3.944 19.721 19.931 17.23 30.516 17.23s25.118-1.246 40.36-8.615c11.123 4.463 21.5 8.615 43.507 8.615 23.456 0 36.951-8.615 36.951-8.615s23.875 8.615 37.781 8.615c13.907 0 28.232-12.04 28.232-12.04s14.948 12.04 46.085 12.04 41.311-14.531 37.781-28.855c-4.666-18.938-17.645-48.991-35.85-50.445-14.34-1.145-261.422 42.365-265.363 62.07z" fill="#FFFFFF" id="O6B-J3ZeOCegKQM8v7Ppw"/><path d="M904.082 1392.642c-7.831 0-17.331-.747-21.992-6.32-2.632-3.146-3.425-7.455-2.355-12.804.664-3.318 5.757-8.931 42.168-19.32 21.624-6.171 51.978-13.331 87.782-20.708 63.27-13.036 129.313-23.85 137.004-23.243 8.53.682 16.886 7.384 24.165 19.383 5.366 8.847 10.234 20.884 13.022 32.199 1.66 6.736.361 13.271-3.658 18.398-4.402 5.618-14.147 12.314-35.58 12.314-27.236 0-42.2-8.981-46.044-11.649-3.456 2.695-15.871 11.649-28.273 11.649-12.861 0-33.554-7.037-37.618-8.465-2.996 1.724-16.064 8.465-37.115 8.465-21.92 0-32.497-4.083-43.454-8.477-12.037 5.703-25.264 8.477-40.413 8.477-.979 0-2.073.021-3.248.045a219.04 219.04 0 0 1-4.391.056zm-22.876-18.83 1.471.294c-.895 4.476-.334 7.842 1.714 10.292 4.659 5.57 16.312 5.341 24.024 5.188 1.197-.023 2.31-.045 3.307-.045 14.938 0 27.927-2.769 39.707-8.465.381-.184.82-.197 1.212-.042 10.902 4.375 21.2 8.507 42.948 8.507 22.754 0 36.013-8.295 36.144-8.379.393-.25.879-.304 1.316-.146.236.085 23.791 8.525 37.272 8.525 13.207 0 27.128-11.571 27.267-11.688a1.499 1.499 0 0 1 1.906-.02c.145.115 14.987 11.708 45.144 11.708 20.226 0 29.228-6.071 33.219-11.164 3.487-4.451 4.562-9.926 3.106-15.832-2.719-11.035-7.457-22.759-12.674-31.359-4.712-7.77-12.327-17.189-21.839-17.949-6.727-.558-70.391 9.64-136.16 23.191-116.207 23.942-127.056 34.893-127.614 37.678z" fill="#003029" id="DqBUslVeCgA7isZ5Py9h0"/><path d="m971.18 1303.309-86.301 52.901c-5.98 3.666-7.612 11.618-3.56 17.35s208.388-30.592 218.47-32.872c42.393-9.586 34.284-28.568 46.909-28.975-9.209-14.429-33.107-48.136-33.107-48.136l13.924-15.298c5.688-7.198-.245-18.149-9.302-16.627-2.7.453-5.259 1.909-7.283 4.984-2.835 4.306-9.131 19.284-11.735 27.01-6.652 19.735-10.089 46.264-35.826 53.329-11.855 3.254-38.616-6.996-54.81-5.347l1.209-9.403c1.14-8.867-5.397-16.886-14.323-17.57l-10.939-.838c-6.069-.465-11.425 3.918-12.161 9.952z" fill="#25968A" id="A5S_E4FN-W4UXXPyu34X"/><g fill="#003029" id="BysMV8N2oXrScqhOx2Kb3"><path d="M905.815 1352.685a5.397 5.397 0 0 1-4.181-1.985 5.401 5.401 0 0 1-.788-5.562 1.5 1.5 0 0 1 2.758 1.182c-.361.843-.229 1.77.352 2.479s1.464 1.021 2.362.833l86.398-18.042c6.757-1.41 11.899-6.714 13.101-13.511l1.167-6.599a1.5 1.5 0 0 1 2.954.521l-1.167 6.599c-1.416 8.012-7.477 14.263-15.441 15.927l-86.398 18.042a5.462 5.462 0 0 1-1.117.116zm-24.497 22.375a1.5 1.5 0 0 1-.216-2.984c2.083-.306 208.445-30.61 218.356-32.851 26.14-5.911 32.614-15.412 36.898-21.699 2.609-3.829 4.863-7.137 10.293-7.312.817-.05 1.521.622 1.548 1.45s-.623 1.521-1.451 1.548c-3.906.126-5.414 2.338-7.911 6.003-4.549 6.676-11.423 16.765-38.716 22.936-10.023 2.266-210.071 31.644-218.583 32.894-.072.01-.146.015-.218.015zM718.162 684.423c-.615 0-1.191-.38-1.411-.992l-13.692-38.02-73.647-30.714a1.5 1.5 0 1 1 1.155-2.77l74.257 30.969c.389.162.691.48.834.877l13.916 38.642a1.5 1.5 0 0 1-1.412 2.008zM664.979 555.76a1.5 1.5 0 0 1-1.425-1.032l-21.442-65.344a1.5 1.5 0 0 1 .958-1.893 1.496 1.496 0 0 1 1.893.957l21.442 65.344a1.5 1.5 0 0 1-1.426 1.968zm-34.086-37.38c-5.317 0-9.643-4.325-9.643-9.643s4.326-9.644 9.643-9.644 9.643 4.326 9.643 9.644-4.326 9.643-9.643 9.643zm0-16.286c-3.663 0-6.643 2.98-6.643 6.644s2.98 6.643 6.643 6.643 6.643-2.979 6.643-6.643-2.98-6.644-6.643-6.644zm-126.04-153.238a1.499 1.499 0 0 1-.446-2.932l35.1-10.951a1.496 1.496 0 0 1 1.879.985 1.499 1.499 0 0 1-.985 1.878l-35.1 10.951c-.15.047-.3.069-.448.069zm16.034 82.701a1.5 1.5 0 0 1-.284-2.973l66.747-12.951a1.501 1.501 0 0 1 .571 2.946l-66.747 12.951a1.557 1.557 0 0 1-.287.027zm148.912-29.346a1.5 1.5 0 0 1-.288-2.972l88.259-17.394a1.5 1.5 0 1 1 .58 2.944l-88.259 17.394c-.098.02-.196.028-.292.028zm126.786-24.985a1.5 1.5 0 0 1-.288-2.972l27.654-5.45a1.5 1.5 0 0 1 .58 2.944l-27.654 5.45a1.528 1.528 0 0 1-.292.028z" fill="#003029" id="P6z5SvadH0ygergHskPxS"/></g></g></g><g transform="translate(76.0 636.0) rotate(0.0 297.5 119.5) scale(1.0016615797970752 1.0021678694078824)" id="QM7eYLINuCymC6Aoj0gML"><g clip-path="url(#clipPath_R5zT2f66)" transform="matrix(1 0 0 1 0 0)" id="XGO1dvCePMzUgaak9iqy2"><path d="M585.261 132.036H253.994l-169.28 94.172h26.974l-22.065 12.275H420.89l169.28-94.172c5.274-2.96 6.389-12.275-4.909-12.275z" fill="#FFBBA0" id="aWzvWtgCtIzitmYtdB016"/><g fill="#003029" id="vEt7H3LgNBGalmIRRn38x"><path d="M415.983 227.708a1.5 1.5 0 0 1-.73-2.811l169.281-94.172a1.5 1.5 0 1 1 1.458 2.621L416.71 227.519a1.486 1.486 0 0 1-.727.189zM242.381 165.72h232.615c2.141 0 2.869 2.856.989 3.881l-77.853 42.45a14.997 14.997 0 0 1-7.177 1.829H158.341c-2.141 0-2.869-2.856-.989-3.881l77.853-42.45a14.993 14.993 0 0 1 7.176-1.829zm144.116-4.275h-56.479c-1.669 0-3.073-1.086-3.492-2.702s.279-3.247 1.738-4.058l23.665-13.165a25.424 25.424 0 0 1 12.338-3.201h56.479a3.564 3.564 0 0 1 3.492 2.702 3.564 3.564 0 0 1-1.739 4.058l-23.665 13.165a25.415 25.415 0 0 1-12.337 3.201zm-22.229-20.125a22.43 22.43 0 0 0-10.879 2.822l-23.666 13.165c-.357.199-.337.514-.293.684s.179.455.588.455h56.479a22.43 22.43 0 0 0 10.879-2.822l23.666-13.165c.357-.199.337-.514.293-.684s-.179-.455-.588-.455z" fill="#003029" id="bx67yJfOyoAJpcQCqxRMB"/></g><path d="M89.369 238.483H420.89L331.807 23.965A38.874 38.874 0 0 0 295.905 0H19.468C5.6 0-3.811 14.099 1.507 26.907z" fill="#FFBBA0" id="MebJzJIo1mZUG_Ng7XeIr"/><path d="M195.82 144.619c-13.836 0-27.483-11.244-30.421-25.066-1.473-6.929-.104-13.438 3.855-18.326 3.845-4.748 9.675-7.363 16.415-7.363 13.836 0 27.483 11.244 30.421 25.066 1.473 6.929.104 13.438-3.855 18.326-3.845 4.748-9.675 7.363-16.415 7.363zm-10.151-47.756c-5.817 0-10.819 2.22-14.083 6.251-3.378 4.172-4.533 9.788-3.252 15.815 2.659 12.511 14.99 22.689 27.486 22.689 5.817 0 10.819-2.22 14.083-6.251 3.378-4.172 4.533-9.788 3.252-15.815-2.659-12.51-14.989-22.689-27.486-22.689zm230.313 130.845a1.5 1.5 0 0 1-1.385-.923l-45.907-110.09a1.5 1.5 0 1 1 2.769-1.154l45.906 110.091a1.5 1.5 0 0 1-1.383 2.076z" fill="#003029" id="aQKUmW2y2ldaoK6s8LFML"/></g></g><g transform="translate(917.0 101.0) rotate(0.0 299.5 411.0) scale(1.0009591829232019 1.0006853842717092)" id="d0PKm5Mc4EyZcxRP0dXkC"><g clip-path="url(#clipPath_XWlKdRN5)" transform="matrix(1 0 0 1 0 0)" id="mR4QnIrbnM6oj5vJX-xbi"><path d="M286.699 1.5c108.815 74.971 186.966 109.43 285.839 125.31 46.992 214.11 38.949 499.443-140.668 693.128C194.424 713.058 55.306 447.214 1.5 226.475 106.145 179.374 205.953 130.173 286.699 1.5z" fill="#FFFFFF" id="cMgvFl_-hyTZh5NN240"/><path d="M431.871 821.438c-.208 0-.417-.043-.615-.132-56.838-25.584-110.754-61.598-160.251-107.04-45.18-41.479-87.045-91.116-124.435-147.533-34.063-51.399-64.31-108.209-89.898-168.852C33.206 342.268 14.153 284.718.043 226.83a1.5 1.5 0 0 1 .842-1.723c52.287-23.535 103.204-47.497 151.307-81.752C205.377 105.48 248.96 58.818 285.429.703a1.503 1.503 0 0 1 2.121-.438C396.895 75.601 474.2 109.497 572.776 125.329a1.503 1.503 0 0 1 1.228 1.159c18.485 84.227 36.035 214.146 14.662 354.771-20.723 136.351-73.106 250.642-155.695 339.698-.29.314-.692.481-1.1.481zM3.253 227.331c14.043 57.323 32.943 114.308 56.183 169.384 25.516 60.471 55.673 117.116 89.635 168.36 37.255 56.214 78.962 105.665 123.963 146.98 48.975 44.963 102.287 80.646 158.47 106.07C513.251 729.633 565.13 616.148 585.7 480.808c21.219-139.613 3.942-268.675-14.408-352.68-98.194-15.917-175.456-49.766-284.156-124.506-36.512 57.839-80.097 104.358-133.204 142.177-47.974 34.164-98.651 58.098-150.679 81.532z" fill="#003029" id="cjTNE35hwPGwstNUE40Me"/><path d="M326.305 74.601c87.174 65.494 127.482 77.431 213.556 102.999 36.776 148.657 33.712 405.759-103.832 559.724C272.552 653.827 127.435 431 84.734 255.822c83.047-37.38 177.491-79.106 241.571-181.221z" fill="#25968A" id="D0RgH1VlCmhkN6VQNCyV"/><g fill="#003029" id="VELl-xuLdRYnOy4oWsuS-"><path d="M433.555 328.062c5.339 35.131-16.016 68.163-49.7 74.133-36.121 6.403-72.289-20.379-78.348-60.251s20.93-73.501 57.794-75.011c34.376-1.408 64.915 25.998 70.254 61.129z" fill="#003029" id="YKZRo6v9w8MA7wNHm4gV"/><path d="M396.905 488.075c-12.582 3.356-24.721-5.049-26.818-18.852L355.145 370.9c-2.098-13.803 6.874-26.242 19.737-27.748 12.543-1.469 24.109 8.058 26.113 21.245l14.274 93.935c2.005 13.187-6.095 26.471-18.364 29.743z" fill="#003029" id="dHbbiFGf5C_QvrUkVHSqG"/></g></g></g><g transform="translate(181.0 827.0) rotate(0.0 83.0 42.0) scale(1.0575471277402255 1.0401059917534454)" id="CeLLGUOmzJkXVaQUcOTf"><g clip-path="url(#clipPath_OWupBzGJ)" transform="matrix(1 0 0 1 0 0)" id="NpOGQsrjzsj6VrPl4e0j"><path d="M64.619 37.512c14.267 11.601 20.75 21.147 14.608 28.268-4.324 5.013-13.897 10.054-24.388 9.944-19.428-.205-34.667-11.188-42.478-21.108-20.891-26.531-10.307-40.96-4.22-43.598 9.321-4.039 22.58 3.026 35.482 22.762z" fill="#FFA78E" id="ZcnOeiD0WXIGhdJaTIr0W"/><path d="M109.896 63.351c-2.483 9.501-14.697 18.727-32.831 17.186-9.259-.787-19.491-7.855-25.655-19.557-7.061-13.405-8.352-29.121-8.19-35.609C43.702 6.113 54.281-.482 60.896.027c10.129.78 20.372 12.557 20.648 38.196l20.794 3.556z" fill="#FFA78E" id="MuMU6xgyxRZmkXU5w-NOD"/><path d="M64.313 77.23c-.289 0-.581-.083-.839-.258-5.422-3.666-10.053-8.954-13.391-15.292-6.988-13.266-8.544-29.088-8.362-36.345.021-.828.705-1.449 1.537-1.463a1.5 1.5 0 0 1 1.462 1.537c-.175 6.968 1.317 22.152 8.017 34.872 3.109 5.902 7.403 10.814 12.418 14.206a1.5 1.5 0 0 1-.842 2.743z" fill="#003029" id="BvlZur-8aa1izSwggt9UD"/><path d="M139.053 50.313c-4.504 18.016-16.418 28.662-33.898 28.802-18.49.147-28.726-20.829-31.765-32.595-9.245-35.794 5.94-44.918 12.564-45.29 10.143-.569 20.501 6.73 24.172 32.107z" fill="#FFA78E" id="RPZ22cEWxZtJGxCfxnb9"/><path d="M101.127 80.303c-.081 0-.164-.007-.247-.021-16.756-2.773-26.077-22.291-28.943-33.387-6.217-24.073-1.49-35.913 3.571-41.606a1.5 1.5 0 1 1 2.243 1.992c-4.576 5.148-8.796 16.07-2.909 38.864C77.526 56.539 86.134 74.8 101.37 77.323a1.5 1.5 0 0 1-.243 2.98z" fill="#003029" id="o9cPnwBUiPEAIqWJ406U"/><path d="M156.967 71.849c-5.183 3.784-10.092 7.316-22.655 7.413-12.327.095-24.89-14.725-29.243-33.028C96.308 9.401 110.85.61 117.482.43c15.882-.43 25.838 19.303 28.174 43.49z" fill="#FFA78E" id="OcR7m64CcudaXdatX_Q3p"/><path d="M134.312 80.762c-12.869-.001-26.068-14.695-30.703-34.182-5.619-23.626-1.624-35.444 2.717-41.199a1.5 1.5 0 0 1 2.395 1.807c-3.953 5.24-7.542 16.208-2.193 38.699 4.251 17.873 16.455 31.874 27.784 31.875a1.5 1.5 0 1 1 0 3z" fill="#003029" id="QJyUAZjLKM9q83L6QIv6K"/></g></g></g></g></svg>