<svg xmlns="http://www.w3.org/2000/svg" fill="none" viewBox="62.98 67.18 470.43 427.73"><defs><clipPath id="assetClipPath_Xy5rPZ4q"><path d="m0 0 h 1700 v 1600 h -1700 v -1600 z" id="path_1dQm51pS" fill="#ffffff"/></clipPath><clipPath id="clipPath__GpYxOiK"><path d="m0 0 h 527.832 v 1219.768 h -527.832 v -1219.768 z" id="path_KP4jREdm"/></clipPath><clipPath id="clipPath_6Hju50KR"><path d="m0 0 h 1050.128 v 549.044 h -1050.128 v -549.044 z" id="path_-crwqsRp"/></clipPath><clipPath id="clipPath_GS76xyVh"><path d="m0 0 h 1270.559 v 733.778 h -1270.559 v -733.778 z" id="path_VLomG5gn"/></clipPath><clipPath id="clipPath_pVQN7FSk"><path d="m0 0 h 341.667 v 88.554 h -341.667 v -88.554 z" id="path_WuK07mkT"/></clipPath><clipPath id="clipPath_dLZZKNtf"><path d="m0 0 h 508.194 v 216.726 h -508.194 v -216.726 z" id="path_MbNN4g2X"/></clipPath></defs><g transform="" data-asset-index="0"><g clip-path="url(#assetClipPath_Xy5rPZ4q)" transform="scale(0.35 0.35)" data-asset-index="0"><defs/><g transform="translate(997.0 192.0) rotate(0.0 263.5 608.5) scale(0.998423740887252 0.9977307160050107)" id="v-BzKhlxqlbma9mUZEW2U"><g clip-path="url(#clipPath__GpYxOiK)" transform="matrix(1 0 0 1 0 0)" id="M6kR0dTzi17T-Sh764Tqx"><circle cx="174.726" cy="248.986" fill="#F9F9F9" r="46.788" id="jM62NpkU9bgWBKp4l7NF"/><path d="M174.726 297.275c-26.626 0-48.288-21.662-48.288-48.288s21.662-48.288 48.288-48.288 48.288 21.662 48.288 48.288-21.662 48.288-48.288 48.288zm0-93.577c-24.972 0-45.288 20.316-45.288 45.288s20.316 45.288 45.288 45.288 45.288-20.316 45.288-45.288-20.316-45.288-45.288-45.288z" fill="#003029" id="Ewg_3kJh9AgjsbrjT0zkf"/><path d="M397.507 1204.398c-3.299-.401-5.686-3.374-5.686-6.697V119.429c0-57.154-45.105-104.755-102.236-106.385-59.454-1.696-108.36 46.175-108.36 105.254v5.019c0 3.323-2.387 6.296-5.686 6.697a6.503 6.503 0 0 1-7.314-6.45v-3.995c0-64.21 50.673-117.688 114.857-119.519 66.794-1.906 121.739 51.876 121.739 118.249v1079.649c0 3.857-3.36 6.93-7.314 6.45z" fill="#003029" id="DzZxhrL1ZdwBizyz2jfui"/><path d="M194.641 134.645h-39.83v-13.787c0-10.999 8.916-19.915 19.915-19.915 10.999 0 19.915 8.916 19.915 19.915z" fill="#003029" id="sKUifgnENyimURUgnYye6"/><path d="M194.641 136.145h-39.83a1.5 1.5 0 0 1-1.5-1.5v-13.787c0-11.809 9.607-21.415 21.415-21.415s21.415 9.606 21.415 21.415v13.787a1.5 1.5 0 0 1-1.5 1.5zm-38.33-3h36.83v-12.287c0-10.154-8.261-18.415-18.415-18.415s-18.415 8.261-18.415 18.415z" fill="#003029" id="acpTkPgAPFmhBEKRITl"/><path d="M127.066 117.794h95.32c2.287 0 4.478.916 6.085 2.543L348.19 241.591c2.709 2.744.766 7.395-3.091 7.395H4.352c-3.856 0-5.8-4.651-3.091-7.395L120.98 120.337a8.55 8.55 0 0 1 6.086-2.543z" fill="#FFBBA0" id="efwNc1Xq9AdWLLiOoAeq8"/><g fill="#003029" id="hzhvIgF_l0rmk_96Zjo24"><path d="M527.832 1219.768H268.811c0-19.045 15.439-34.485 34.485-34.485h190.052c19.045 0 34.484 15.439 34.484 34.485zM37.506 250.486a1.5 1.5 0 0 1-1.193-2.408l77.349-101.78a1.5 1.5 0 1 1 2.389 1.815l-77.349 101.78a1.498 1.498 0 0 1-1.196.593zm89.916-86.613a1.5 1.5 0 0 1-1.341-2.171l13.869-27.729a1.5 1.5 0 0 1 2.683 1.342l-13.869 27.729a1.499 1.499 0 0 1-1.342.829zm-43.32 86.613a1.5 1.5 0 0 1-1.341-2.171l32.85-65.681a1.5 1.5 0 1 1 2.683 1.342l-32.85 65.681a1.497 1.497 0 0 1-1.342.829zm182.853 0c-.55 0-1.08-.304-1.343-.829l-7.996-15.988a1.5 1.5 0 0 1 2.683-1.342l7.996 15.988a1.5 1.5 0 0 1-1.34 2.171zm-13.909-27.808c-.55 0-1.08-.304-1.343-.829l-5.321-10.638a1.5 1.5 0 0 1 2.683-1.342l5.321 10.638a1.5 1.5 0 0 1-1.34 2.171zm-119.507 8.585a1.5 1.5 0 0 1-1.455-1.869l17.115-67.39a1.501 1.501 0 0 1 2.908.738l-17.115 67.39a1.5 1.5 0 0 1-1.453 1.131zm41.187-26.306a1.5 1.5 0 0 1-1.5-1.5v-21.446a1.5 1.5 0 0 1 3 0v21.446a1.5 1.5 0 0 1-1.5 1.5zm46.068 45.529c-.67 0-1.28-.452-1.453-1.131l-11.563-45.529a1.5 1.5 0 1 1 2.908-.738l11.563 45.529a1.5 1.5 0 0 1-1.455 1.869zm-46.068 0a1.5 1.5 0 0 1-1.5-1.5v-29.699a1.5 1.5 0 0 1 3 0v29.699a1.5 1.5 0 0 1-1.5 1.5z" fill="#003029" id="yS8td_Wr3PJpL7I3avPq"/></g><path d="M412.646 1186.783h-28.085a1.5 1.5 0 1 1 0-3h28.085a1.5 1.5 0 1 1 0 3z" fill="#F9F9F9" id="EEGo_YJc-z3BJ7SoaoFj"/></g></g><g transform="translate(265.0 860.0) rotate(0.0 525.5 275.0) scale(1.000830374963814 1.001741208354886)" id="E0QhYLW2CQlarShwRKLzp"><g clip-path="url(#clipPath_6Hju50KR)" transform="matrix(1 0 0 1 0 0)" id="bBXL3IxdJDblnzwOPuJ0"><path d="m59.099 549.044 84.005-193.038h-43L42.7 549.044zm929.547 0-84.005-193.038h43l57.404 193.038z" fill="#24968B" id="dYtrX_KYTsbyVuID-w21F"/><path d="M697.239 213.538H39.822V1.5h631.033c14.572 0 26.384 11.813 26.384 26.384z" fill="#FFD5CD" id="kxUlvgUSdsQH20qQx1Ha"/><path d="M113.234 182.516h900.638c20.023 0 36.255 16.232 36.255 36.255v15.638c0 12.585-10.202 22.787-22.787 22.787H76.979V218.77c0-20.021 16.232-36.254 36.255-36.254z" fill="#FFD5CD" id="RagzXOZDh8gWTfw9A1g49"/><path d="M643.015 179.517h68.522a1.5 1.5 0 1 1 0 3h-68.522a1.5 1.5 0 1 1 0-3zM75.479 219.282c-.277-2.811-.108-5.668.317-8.497.438-2.832 1.31-5.594 2.414-8.26 2.184-5.37 5.89-10.06 10.282-13.865 4.424-3.805 9.798-6.479 15.452-7.937a40.058 40.058 0 0 1 8.662-1.201l1.093-.028 1.016-.003 2.025-.005 4.05-.009 64.801-.149 129.602-.298 129.602-.298 129.602.153a1.5 1.5 0 1 1 .004 3l-259.205.355-129.603.177-64.801.089c-2.7.015-5.4-.018-8.1.036a37.113 37.113 0 0 0-8.007 1.101c-5.23 1.334-10.175 3.825-14.309 7.298-8.313 6.897-13.01 17.928-11.897 28.34a1.493 1.493 0 1 1-2.969.317l-.001-.012z" fill="#003029" id="uLz6CRxM1Hwkn8VSeTZbX"/><path d="M55.149 1.5H21.83C9.774 1.5 0 11.274 0 23.33v287.867c0 12.056 9.774 21.83 21.83 21.83h1006.468c12.056 0 21.83-9.774 21.83-21.83v-32.17c0-12.056-9.774-21.83-21.83-21.83H76.979V23.33c0-12.056-9.774-21.83-21.83-21.83z" fill="#FFD5CD" id="iv84fjSX110MurH9cgcHb"/><path d="M1031.641 258.951c-.076 0-.152-.006-.229-.018a20.603 20.603 0 0 0-3.113-.236H76.979a1.5 1.5 0 0 1-1.5-1.5V23.33c0-11.21-9.12-20.33-20.33-20.33a1.5 1.5 0 0 1 0-3c12.864 0 23.33 10.466 23.33 23.33v232.367h949.819c1.194 0 2.394.091 3.568.271a1.499 1.499 0 0 1-.225 2.983z" fill="#003029" id="lIrDtSKMaio0d3rd8NSZ9"/><path d="M3.835 356.006h1042.458a3.835 3.835 0 0 0 3.835-3.835v-15.308a3.835 3.835 0 0 0-3.835-3.835H3.835A3.835 3.835 0 0 0 0 336.863v15.308a3.835 3.835 0 0 0 3.835 3.835z" fill="#FE5236" id="knUKsmR2_-IxCCJkpHNr"/><g fill="#003029" id="j4KU0rS8LRqH4fxk_vpbz"><path d="M954.843 357.506H890.93a1.5 1.5 0 0 1 0-3h63.913a1.5 1.5 0 0 1 0 3zm-797.7 0H92.902a1.5 1.5 0 0 1 0-3h64.241a1.5 1.5 0 0 1 0 3z" fill="#003029" id="Scf5O7ggVJ56Qj7M9i0Ub"/></g></g></g><g transform="translate(180.0 311.0) rotate(0.0 633.0 366.0) scale(0.9964118155866827 0.9975769238107438)" id="ASXCyA_Tsr2do-mGMn5a-"><g clip-path="url(#clipPath_GS76xyVh)" transform="matrix(1 0 0 1 0 0)" id="fH_qyXerHZ149TfAG14S3"><path d="M396.608 164.462c22.504-39.003 15.86-78.89-24.096-98.798-43.064-21.457-80.383-.592-99.825 39.174-3.545-18.523-25.474-15.682-32.404-1.264-5.127 10.668.956 27.171 21.408 29.299-1.62 45.304 24.839 72.04 59.248 85.29 39.939 15.378 85.083-12.421 75.669-53.701z" fill="#FFA78E" id="my7u9dgsC4IasfdHAyPti"/><path d="M249.078 113.977a1.5 1.5 0 0 1-.422-2.939l14.871-4.368a1.5 1.5 0 0 1 .846 2.879l-14.871 4.368c-.141.04-.284.06-.424.06z" fill="#003029" id="E7zxxJNMT8cE84Ptn2zc0"/><path d="M258.436 118.479a1.499 1.499 0 0 1-1.433-1.06l-4.49-14.618a1.5 1.5 0 1 1 2.867-.881l4.49 14.618a1.5 1.5 0 0 1-1.434 1.941z" fill="#003029" id="HH4SjeFKyDX_6pShPEpna"/><path d="m514.961 440.31-22.179-16.605-167.915 44.024 78.448 131.166z" fill="#25968A" id="jTwXUJnsLn0ug5K7MZjOj"/><path d="M442.843 271.497c35.657 22.423 77.985 58.437 107.603 84.311-31.773 37.477-89.22 107.461-89.22 107.461-28.884-27.106-76.549-82.776-76.549-82.776s8.227-140.401 58.166-108.996z" fill="#F9F9F9" id="XcGRiqjkQs8dU9rwMBFru"/><path d="M1112.847 671.772h-25.192l-75.671-18.159-.467.054c-4.372-12.723-29.712-86.398-55.323-159.426-22.374-63.797-139.364 13.896-124.28 101.321 12.325 19.05 30.498 46.588 49.723 75.013 1.873 59.012 27.306 66.783 70.237 58.994 26.87-4.875 72.667-14.461 127.954-26.967 15.037-3.402 27.078-8.22 36.151-12.812 7.484-3.787 5.221-17.267-3.132-18.018z" fill="#FFA78E" id="P6VqmGeOTl3brsQsU5ouC"/><path d="M461.226 464.768a1.5 1.5 0 0 1-1.026-.406c-28.613-26.852-76.184-82.336-76.662-82.894a1.5 1.5 0 0 1-.358-1.063c.231-3.952 6.023-96.974 36.59-112.711 7.24-3.729 15.272-2.874 23.872 2.533 35.183 22.125 76.087 56.754 107.791 84.45a1.5 1.5 0 0 1 .157 2.1c-31.402 37.039-88.63 106.743-89.204 107.443a1.503 1.503 0 0 1-1.16.548zm-75.012-84.789c4.597 5.349 47.685 55.311 74.873 81.096 7.777-9.467 58.008-70.567 87.259-105.109-31.461-27.459-71.705-61.443-106.302-83.199-7.746-4.871-14.583-5.66-20.901-2.404-27.84 14.332-34.38 101.486-34.929 109.616z" fill="#003029" id="BcVgSR6o2KHVad69qfFeL"/><path d="M372.652 611.127c59.416 69.027 155.464 129.852 240.9 29.411 73.982-86.976 109.492-132.192 140.625-174.173 13.528 37.22 72.268 137.382 107.166 173.967l163.04-59.674s-93.106-203.072-117.148-253.14c-55.66-115.915-147.064-124.596-235.404-48.618-24.397 20.983-202.277 208.911-202.277 208.911s-156.317 54.288-96.902 123.316z" fill="#25968A" id="Hy5BvdHYEPDSt1FYG-fe"/><path d="M955.368 612.394a1.497 1.497 0 0 1-1.314-.774c-13.866-25.093-36.284-72.458-56.064-114.248-13.263-28.021-24.717-52.222-30.827-63.821-32.653-61.989-63.085-92.885-95.771-97.229-29.114-3.879-61.322 13.662-98.461 53.599-21.644 23.274-185.128 212.894-186.777 214.807a1.5 1.5 0 0 1-2.273-1.959c1.649-1.913 165.17-191.575 186.853-214.891 37.85-40.701 70.905-58.529 101.053-54.53 33.734 4.484 64.884 35.881 98.03 98.806 6.14 11.656 17.607 35.883 30.884 63.936 19.761 41.75 42.158 89.071 55.978 114.081a1.499 1.499 0 0 1-1.311 2.223z" fill="#003029" id="rUPBy_3pCSg1ahQmDhPs"/><path d="M1019.642 731.419c45.73-3.504 101.794-9.708 166.117-19.613l10.749-125.391-172.125-11.444c.001 0-152.077 167.737-4.741 156.448z" fill="#FFA78E" id="HTRpu-xcU-8WTF_3R07I"/><path d="M1161.494 707.297c55.102 28.812 72.106 7.011 81.686-36.003 5.937-26.655 14.878-72.583 24.811-128.39 2.702-15.178 2.935-28.146 2.224-38.29-.586-8.367-11.737-10.757-15.671-3.35l-11.929 22.46-46.106 62.69z" fill="#FFA78E" id="Fnsh3DTjN3XJvKvM3IrS"/><path d="M261.61 533.918c-15.974 89.665 10.182 189.631 141.891 195.991 109.852 5.305 579.392 4.496 616.142 1.51 1.369-45.857 4.742-156.448 4.742-156.448l-611.72-40.673c-.001 0-135.082-90.045-151.055-.38z" fill="#25968A" id="a4d79TRSaBjE4PoPyHw0c"/><path d="M454.125 528.063c-.483 0-.957-.232-1.246-.663l-39.574-58.834a1.5 1.5 0 0 1 2.489-1.674l39.574 58.834a1.5 1.5 0 0 1-1.243 2.337zm300.052-60.199a1.5 1.5 0 0 1-1.18-2.424l27.055-34.575a1.5 1.5 0 0 1 2.363 1.849l-27.055 34.575a1.504 1.504 0 0 1-1.183.575zm48.177 93.844-.101-.003-317.335-21.1c-.826-.056-1.452-.77-1.397-1.597s.77-1.445 1.596-1.397l317.335 21.1a1.501 1.501 0 0 1-.098 2.997z" fill="#003029" id="rxcNId3wKK5VChXsrF_x"/><path d="M409.408 308.465c21.248 30.886 41.612 52.534 44.715 61.843 3.319 9.957 5.383 23.639 10.023 55.56l24.19 32.764s-19.246 12.778-45.447 32.646C333.708 607.747 256.902 603.746 256.902 603.746c-36.732-21.566-28.15-77.183-28.15-77.183-26.809-55.05-102.636-234.137-94.806-273.168 26.686-30.049 76.939-34.793 111.718-32.527 29.47 1.92 89.794 11.416 116.484 18.18 30.959 7.847 61.11 17.544 88.065 37.21z" fill="#F9F9F9" id="APAo8aqhkNTOGqFmLWr5"/><path d="M261.204 605.468c-2.794 0-4.317-.208-4.521-.237a1.507 1.507 0 0 1-.541-.19c-35.354-20.758-29.658-72.69-28.938-78.23-29.375-60.43-102.503-234.957-94.729-273.71.052-.261.173-.503.349-.701 12.229-13.77 30.266-23.476 53.61-28.848 22.522-5.183 44.694-5.133 59.327-4.181 29.34 1.912 89.355 11.279 116.755 18.224 29.644 7.514 60.893 17.251 88.581 37.452a1.5 1.5 0 0 1-1.768 2.424c-27.276-19.901-58.198-29.528-87.55-36.968-27.271-6.912-87.007-16.235-116.213-18.138-14.433-.942-36.292-.99-58.46 4.11-22.549 5.188-39.962 14.477-51.765 27.609-7.136 39.342 69.356 219.659 94.759 271.822.134.273.18.583.134.885-.084.545-7.947 54.591 27.157 75.502 2.325.238 19.436 1.44 48.621-10.298 52.443-21.091 102.789-66.974 135.789-101.749.056-.06.117-.113.182-.163 22.095-16.755 39.441-28.602 44.215-31.822l-23.258-31.502a1.5 1.5 0 0 1-.278-.675c-4.66-32.062-6.682-45.464-9.962-55.302-1.999-5.997-11.099-17.775-23.693-34.076-6.241-8.077-13.314-17.231-20.804-27.35a1.501 1.501 0 0 1 2.411-1.786c7.472 10.093 14.535 19.235 20.767 27.301 12.775 16.535 22.006 28.481 24.166 34.961 3.347 10.043 5.381 23.466 10.03 55.447l23.967 32.461a1.499 1.499 0 0 1-.377 2.14c-.192.127-19.465 12.952-45.273 32.518-33.301 35.081-84.091 81.307-137.101 102.516-22.973 9.193-38.44 10.554-45.589 10.554z" fill="#003029" id="SOmiH2OiQw-4AVC9plZlZ"/><path d="m160.632 437.675 55.274-68.998c27.626-73.468-56.883-139.043-81.96-115.282-30.402 32.588-51.567 60.847-98.136 126.539-29.026 40.947-38.768 77.24-34.425 106.861 7.717 52.632 159.247-49.12 159.247-49.12z" fill="#FFA78E" id="ndhjbYy7nyR7kt8hh90L1"/><path d="M204.259 425.205a1.5 1.5 0 0 1-1.379-2.089l17.534-41.039a1.495 1.495 0 0 1 1.969-.79 1.5 1.5 0 0 1 .79 1.968l-17.534 41.039a1.5 1.5 0 0 1-1.38.911z" fill="#003029" id="bISCBBYZWETw0yXL41GVw"/><path d="m190.506 456.478 31.287-73.813c27.626-73.468-55.021-163.373-87.847-129.27-30.402 32.588-51.567 60.847-98.136 126.539-5.199 7.334-9.817 14.524-13.864 21.557 60.943-13.949 149.794 40.625 168.56 54.987z" fill="#F9F9F9" id="wi22UNcc6EaPIrxy0kKrX"/><path d="M190.506 457.978c-.32 0-.635-.103-.897-.298-23.86-17.794-57.563-34.93-90.156-45.838-33.779-11.307-61.839-14.566-76.985-8.944a1.5 1.5 0 0 1-1.822-2.155c4.078-7.088 8.769-14.382 13.94-21.677 47.328-66.764 68.163-94.432 98.262-126.695 5.894-6.122 13.711-8.771 22.622-7.684 18.806 2.302 41.527 21.351 56.539 47.401a1.5 1.5 0 1 1-2.6 1.498c-14.565-25.274-36.388-43.729-54.304-45.921-8.051-.987-14.807 1.292-20.08 6.769-29.966 32.121-50.752 59.727-97.992 126.366-4.312 6.084-8.285 12.164-11.841 18.119 16.359-4.158 43.377-.578 75.213 10.076 32.186 10.772 65.464 27.579 89.462 45.145l30.545-72.061a1.5 1.5 0 1 1 2.763 1.17l-31.287 73.812a1.5 1.5 0 0 1-1.382.917z" fill="#003029" id="ykRHVgovh30EF_p6-dica"/><path d="M550.446 355.807c11.863 10.364 43.266 39.175 49.082 45.51 31.996 34.855 34.468 55.927 44.661 116.594 8.927 53.13 12.786 76.527 12.786 76.527l-126.383 26.72-28.723-141.574-26.482-39.313z" fill="#FFA78E" id="dTVeTbNAooRAWMiU1HCkw"/><path d="M1020.719 699.314 434.27 673.271c-51.79-2.301-114.832-22.407-121.054-105.129a1.5 1.5 0 1 1 2.991-.224c2.791 37.111 17.604 64.609 44.027 81.729 19.056 12.348 44.01 19.287 74.169 20.626l586.449 26.045z" fill="#003029" id="rd4Bc3NjLRPn7V3u8D20p"/><path d="m277.024 467.729-116.392-30.055s-143.936-27.852-149.81-13.971c-28.639 67.674.395 117.444 77.236 133.657 88.455 18.664 166.363 22.053 166.363 22.053z" fill="#FFA78E" id="DglaI5lRUbpfHLDlI1AOW"/><path d="M245.545 592.117c-26.285-29.212-20.417-60.511-20.417-60.511 3.062-21.155 13.908-73.541 51.896-63.877 26.517 6.746 58.638 39.229 76.143 78.932 0 .001-81.337 74.668-107.622 45.456z" fill="#FFA78E" id="LtHtK17YoSpGCGZlXfho4"/><path d="M341.07 522.725c44.374 43.034 51.227 81.355 44.092 106.635-6.175 21.88-31.54 22.287-33.857-4.628-.612-7.107-.698-39.584-30.724-60.66-15.504-10.883 2.632-58.665 20.489-41.347z" fill="#FFA78E" id="sbWW4b1EdPfY1xGsNj3rN"/><path d="M331.73 544.676s8.694 68.025 7.064 95.006c-2.274 37.657-31.551 42.736-37.472 11.164-7.894-42.091-8.848-99.651-8.848-99.651.759-22.017 31.293-27.245 39.256-6.519z" fill="#FFA78E" id="kGXhc-QpNGvahQVhyMShe"/><path d="M308.694 548.94s3.796 29.169-.009 55.417c-2.798 19.303-7.292 33.914-11.983 44.225-15.351 33.747-46.446 25.686-41.817-5.38 3.255-21.841 7.566-36.267 9.388-49.033 4.266-29.887 3.44-41.084 3.44-41.084-2.022-22.992 40.243-18.418 40.981-4.145z" fill="#FFA78E" id="lGoPswIrTjorwdz3Au1zF"/><path d="M336.278 587.848a1.5 1.5 0 0 1-1.493-1.373c-.778-9.125-1.641-17.37-2.564-24.505a1.5 1.5 0 0 1 2.975-.385c.929 7.178 1.797 15.467 2.579 24.636a1.5 1.5 0 0 1-1.497 1.627zm-39.577 62.233a1.5 1.5 0 0 1-1.364-2.121c5.292-11.632 9.394-26.785 11.864-43.819 1.516-10.459 2.011-22.588 1.469-36.051a1.501 1.501 0 0 1 1.438-1.56c.825-.05 1.526.61 1.559 1.438.549 13.646.045 25.961-1.498 36.602-2.51 17.312-6.695 32.745-12.102 44.632a1.499 1.499 0 0 1-1.366.879z" fill="#003029" id="Tf9wBpAuiJaIS2M4Hhqsu"/><path d="M279.237 558.521c-2.476 25.858-12.141 57.02-23.639 76.231s-34.766 8.04-29.741-17.39c5.026-25.43 11.623-48.057 12.532-51.105 5.109-17.13 43.468-35.098 40.848-7.736z" fill="#FFA78E" id="ZveftrBeZ6IdtTDyXEFbx"/><path d="M251.072 641.831a1.5 1.5 0 0 1-1.118-2.5c14.943-16.717 25.871-60.909 27.79-80.952a1.5 1.5 0 0 1 2.986.285c-1.838 19.196-12.416 64.629-28.54 82.667-.296.331-.706.5-1.118.5zm-19.89-47.01a1.5 1.5 0 0 1-1.451-1.882l3.813-14.502c-4.977-5.351-9.888-14.195-12.632-20.803a1.5 1.5 0 1 1 2.771-1.15c2.742 6.603 7.7 15.493 12.595 20.472a1.5 1.5 0 0 1 .381 1.434l-4.026 15.313a1.504 1.504 0 0 1-1.451 1.118z" fill="#003029" id="ccmc_D6BN9sE5lKfxO2dD"/><circle cx="315.552" cy="47.507" fill="#003029" r="47.507" id="hd81SUpvnB3MD5073Ffr1"/><circle cx="326.399" cy="73.207" fill="#E4634F" r="33.86" id="iXXmT03_wzVSfYHrYyTk2"/><path d="M341.945 173.21c-1.15-16.089 14.247-14.738 14.394-3.251 11.11-8.395 20.114 6.103 5.005 10.704 2.373 3.206.197 13.062-10.485 10.87-14.3-2.937-13.296-13.488-8.914-18.323z" fill="#E4634F" id="AkMT0AVJEIWkTHqHnlmJO"/><g fill="#003029" id="H1552gRmlw4apJz0d7_k"><path d="M365.678 182.466c-9.795 0-23.905-4.286-31.527-14.205a1.501 1.501 0 0 1 2.379-1.829c8.072 10.505 24.726 14.191 33.152 12.722a1.5 1.5 0 0 1 .515 2.955c-1.35.236-2.873.357-4.519.357zm-50.22-76.965c-11.408 15.105-34.186 13.828-42.874-.713 2.816-13.289 20.28-40.928 46.398-47.941 31.494-8.457 78.404 9.376 86.042 39.654z" fill="#003029" id="B5ysxQrsL-pB1S_SLavKi"/><path d="M400.709 87.723c27.531 11.004 33.963 44.243 20.245 63.53l-32.431-14.065c2.616-7.943 2.247-17.629-.283-28.578-2.876 8.958-6.852 16.903-13.068 22.788l-17.771-7.707c2.382-4.834 4.573-10.455 3.227-17.173-1.767 4.547-5.852 11.435-10.306 14.103l-46.272-20.068c4.893-15.158 16.284-35.566 35.04-37.672zm-3.321 65.463c-.538 0-1.058-.29-1.327-.799-2.327-4.403-5.292-6.922-8.814-7.486-3.853-.616-8.292 1.172-12.175 4.911a1.5 1.5 0 1 1-2.081-2.16c4.568-4.399 9.938-6.483 14.731-5.713 3.095.496 7.514 2.469 10.991 9.046a1.5 1.5 0 0 1-1.325 2.201z" fill="#003029" id="bvHjEe1yuTGrmnD93L9w7"/><path d="M391.027 154.987c-3.699 6.488-9.049 10.406-11.95 8.752s-2.254-8.254 1.444-14.742c1.479-2.594 3.221-4.777 4.966-6.357 3.805-.574 8.388 5.334 8.17 6.13-.539 1.967-1.422 4.098-2.63 6.217zm-36.676-20.034c-.538 0-1.058-.29-1.327-.799-2.327-4.403-5.292-6.922-8.814-7.486-3.854-.619-8.292 1.172-12.175 4.911a1.5 1.5 0 1 1-2.081-2.16c4.568-4.399 9.938-6.481 14.731-5.713 3.095.496 7.514 2.469 10.991 9.046a1.5 1.5 0 0 1-1.325 2.201z" fill="#003029" id="Jsm1fkG7Gw6akVx2ZKJ3M"/><path d="M347.99 136.754c-3.699 6.488-9.049 10.406-11.95 8.752s-2.254-8.254 1.444-14.742c1.479-2.594 3.221-4.777 4.966-6.357 3.805-.574 8.388 5.334 8.17 6.13-.54 1.967-1.422 4.098-2.63 6.217zm8.347-75.924a1.5 1.5 0 0 1-.874-2.721c4.691-3.352 8.505-10.428 9.716-18.027 1.262-7.921-.313-15.368-4.435-20.97a1.5 1.5 0 0 1 2.416-1.778c4.602 6.253 6.371 14.499 4.981 23.22-1.351 8.48-5.541 16.143-10.934 19.996-.263.189-.568.28-.87.28zM225.505 333.622a1.5 1.5 0 0 1-1.472-1.222c-1.187-6.282-2.96-12.642-5.271-18.901a1.5 1.5 0 0 1 2.815-1.039c2.368 6.416 4.187 12.938 5.404 19.384a1.499 1.499 0 0 1-1.476 1.778zm258.439 129.485a1.5 1.5 0 0 1-.843-2.742l3.127-2.117-12.069-17.111a1.499 1.499 0 0 1 .104-1.86l75.06-84.465a1.5 1.5 0 1 1 2.243 1.992l-74.27 83.576 12.265 17.389a1.501 1.501 0 0 1-.385 2.107l-4.393 2.975a1.497 1.497 0 0 1-.839.256z" fill="#003029" id="GWD7TfruHLzlzXAspvas2"/></g><path d="M263.518 224.412c-7.425 14.133-5.13 34.893 3.585 51.412 16.438 31.158 56.962 44.998 88.12 28.56 16.918-8.926 30.162-29.113 20.315-57.418-4.57-13.483-21.061-17.427-25.481-10.972 13.663 12.242 16.438 38.902-4.549 49.975-20.988 11.073-48.918 1.127-59.99-19.86-7.034-13.333-6.356-28.686.456-40.949-.063-5.303-16.43-12.219-22.456-.748z" fill="#F9F9F9" id="G53YhwFI3_acmATlTRJ"/><path d="M326.663 312.895c-7.118 0-14.358-1.167-21.49-3.519-16.974-5.594-31.334-17.568-39.397-32.853-9.389-17.797-10.831-39.02-3.586-52.81 3.018-5.744 8.932-8.186 15.819-6.529 4.556 1.096 9.421 4.257 9.465 7.956.003.261-.062.518-.189.746-6.837 12.31-7.002 27.084-.441 39.521 5.149 9.761 14.418 17.499 25.432 21.232 11.12 3.77 22.978 3.042 32.531-1.999 8.105-4.275 13.168-11.494 14.256-20.327 1.229-9.977-2.699-20.654-10.008-27.203a1.501 1.501 0 0 1-.237-1.965c1.948-2.845 5.874-4.166 10.504-3.524 6.577.905 14.581 5.852 17.635 14.862 4.624 13.291 4.569 26.108-.164 37.053-4.032 9.325-11.445 17.2-20.871 22.174-9.047 4.773-19.027 7.185-29.259 7.185zm-61.818-87.786c-6.805 12.954-5.365 33.054 3.583 50.015 7.705 14.604 21.44 26.051 37.683 31.404 16.604 5.472 33.796 4.24 48.411-3.472 15.906-8.391 29.406-27.403 19.598-55.598-2.647-7.81-9.544-12.086-15.207-12.865-2.841-.394-5.263.098-6.758 1.317 7.31 7.24 11.168 18.358 9.885 28.771-1.212 9.835-6.835 17.866-15.834 22.614-10.278 5.421-22.997 6.22-34.895 2.187-11.733-3.978-21.618-12.242-27.122-22.674-6.961-13.193-6.863-28.839.238-41.951-.372-1.45-3.022-3.769-7.121-4.755-2.623-.629-9.091-1.406-12.461 5.007zm158.896 67.55a1.5 1.5 0 0 1-1.431-1.951l8.35-26.46a1.5 1.5 0 0 1 2.861.903l-8.35 26.46a1.502 1.502 0 0 1-1.43 1.048z" fill="#003029" id="ecy-1MVgLizALKOH_dB9R"/><path d="M655.041 583.844c10.135 56.367 10.593 80.01-2.387 100.596-11.234 17.817-33.877 11.516-28.865-13.006 1.323-6.475 2.494-38-8.711-70.088-5.787-16.569 35.885-40.185 39.963-17.502z" fill="#FFA78E" id="peOHxKqmBBuhaaTVn-UC5"/><path d="M636.685 592.913c10.467 58.217 10.941 82.637-2.465 103.899-11.603 18.402-34.99 11.894-29.813-13.433 1.367-6.688 2.575-39.248-8.997-72.389-5.977-17.113 37.063-41.505 41.275-18.077z" fill="#FFA78E" id="VvZvbcODJkg8cKX-bR4WL"/><path d="M634.218 698.312a1.499 1.499 0 0 1-1.268-2.299c11.951-18.955 12.909-40.525 4.099-92.324a1.5 1.5 0 1 1 2.957-.503c8.957 52.667 7.901 74.729-4.519 94.428-.284.45-.771.698-1.269.698z" fill="#003029" id="luTpUOyiIHIyGzG6Oo-le"/><path d="M608.798 594.994c6.807 61.438 5.578 86.932-9.9 108.156-13.396 18.369-37.321 9.933-30.137-16.109 1.897-6.876 5.454-40.739-4.274-76.11-5.024-18.266 41.572-40.662 44.311-15.937z" fill="#FFA78E" id="SnlDzTX6SizmcJbrr7lUQ"/><path d="M598.896 704.65a1.5 1.5 0 0 1-1.211-2.384c13.758-18.865 16.306-41.055 10.906-94.972a1.5 1.5 0 0 1 1.343-1.642c.83-.088 1.56.519 1.642 1.343 5.488 54.791 2.809 77.463-11.467 97.038-.294.403-.75.617-1.213.617z" fill="#003029" id="OPVHU-I8HvCnlcOJt"/><path d="M538.009 616.57c5.599-4.715 18.031-26.009 16.245-30.777-6.09-16.263-30.125-21.253-34.419-15.405-8.849 12.052-15.479 25.754-20.423 41.544-3.203 10.229-3.697 23.342-2.822 31.772 2.981 28.737 30.219 31.977 37.577-1.639 2.075-9.479 3.842-25.495 3.842-25.495z" fill="#FFA78E" id="ZpCTA3IZCtwczlai8VPLP"/><path d="M574.699 589.915c5.396 61.578 3.583 87.037-12.377 107.9-13.814 18.057-37.539 9.075-29.76-16.796 2.054-6.831 6.387-40.604-2.528-76.188-4.603-18.375 42.494-39.696 44.665-14.916z" fill="#FFA78E" id="tnp_ft7NrCKYQIMx1GvTR"/><path d="M533.368 646.793a1.5 1.5 0 0 1-1.431-1.954c1.948-6.135 3.056-18.302 1.509-24.211a1.5 1.5 0 1 1 2.902-.76c1.839 7.024.309 20.02-1.552 25.879a1.498 1.498 0 0 1-1.428 1.046zm28.953 52.523a1.5 1.5 0 0 1-1.19-2.412c13.709-17.921 16.989-39.56 13.497-89.052a1.5 1.5 0 0 1 1.391-1.602 1.492 1.492 0 0 1 1.602 1.391c3.552 50.35.124 72.482-14.107 91.085-.296.388-.742.59-1.193.59zm467.468-122.485-.101-.003-227.436-15.122a1.501 1.501 0 0 1 .199-2.994l227.436 15.122a1.501 1.501 0 0 1-.098 2.997z" fill="#003029" id="G4N5IfQs7n0HMzMel0HFu"/><path d="m645.738 526.67 40.32-6.565 7.233 44.427-40.32 6.564z" fill="#25968A" id="XkYtK1w7iecWi8I-Z72"/><path d="M501.869 481.084a1.5 1.5 0 0 1-1.498-1.606c1.174-16.628 9.219-26.011 9.561-26.402a1.5 1.5 0 0 1 2.26 1.974c-.076.087-7.729 9.07-8.828 24.639a1.5 1.5 0 0 1-1.495 1.395zM391.975 463.48a1.5 1.5 0 0 1-.565-2.89l63.531-25.808a1.5 1.5 0 0 1 1.628 2.448l-21.017 21.141a1.5 1.5 0 1 1-2.127-2.115l15.833-15.926-56.719 23.04c-.185.075-.376.11-.564.11z" fill="#003029" id="sFG8LHOqlpaDx1Fuoo76"/><path d="M321.085 109.442c-.199 0-.402-.039-.596-.124l-17.035-7.389a1.5 1.5 0 0 1-.866-1.707c2.918-12.895 8.831-22.889 17.576-29.707a1.499 1.499 0 0 1 2.105.261c.51.653.393 1.596-.26 2.104-7.912 6.169-13.362 15.18-16.21 26.796l15.885 6.89a1.5 1.5 0 0 1-.599 2.876z" fill="#F9F9F9" id="WyycmqJHVqsXnevt7ULhJ"/></g></g><g transform="translate(529.0 1321.0) rotate(0.0 178.0 46.5) scale(1.0419502029754117 1.050206653567315)" id="Qy6SzcKWDJ6zoAOjIb2c5"><g clip-path="url(#clipPath_pVQN7FSk)" transform="matrix(1 0 0 1 0 0)" id="MHXZdbmwuqEvFo_9OnNJo"><path d="M.028 75.981C-1.217 36.545 38.94 8.195 67.49 1.63c43.999-10.118 81.114 28.712 85.395 65.74z" fill="#FFBBA0" id="JRJ5_jZ3egiaxmXhynQZV"/><path d="M11.101 64.909h204.537c6.115 0 11.073 4.957 11.073 11.073 0 6.115-4.957 11.073-11.073 11.073H11.101C4.986 87.055.028 82.098.028 75.982c0-6.116 4.958-11.073 11.073-11.073z" fill="#FFBBA0" id="xQ3VeBW-8fZcr6V8j8b8X"/><path d="M123.644 66.409H79.219a1.5 1.5 0 0 1 0-3h44.426a1.5 1.5 0 0 1-.001 3z" fill="#003029" id="Hg499aE52QyZZ1Sn7W6yc"/><path d="M114.984 75.981c-1.245-39.436 38.912-67.786 67.462-74.352 43.999-10.118 81.114 28.712 85.395 65.74z" fill="#FFBBA0" id="DMcNSAFBkZnWBx-Gl6ZVv"/><path d="M126.057 64.909h204.537c6.115 0 11.073 4.957 11.073 11.073 0 6.115-4.957 11.073-11.073 11.073H126.057c-6.115 0-11.073-4.957-11.073-11.073 0-6.116 4.958-11.073 11.073-11.073z" fill="#FFBBA0" id="Iht4oPGBx3Juqf8YcH"/><g fill="#003029" id="bVI7s299BLb_gKHOTHjBP"><path d="M126.057 88.554c-6.933 0-12.573-5.64-12.573-12.572-.699-22.106 11.861-43.986 34.459-59.98a1.5 1.5 0 1 1 1.733 2.449c-21.761 15.402-33.86 36.354-33.193 57.484.001 5.325 4.295 9.619 9.573 9.619a1.5 1.5 0 0 1 .001 3zm140.827-22.145h-64.219a1.5 1.5 0 0 1 0-3h64.219a1.5 1.5 0 0 1 0 3zm-82.602 0h-21.83a1.5 1.5 0 0 1 0-3h21.83a1.5 1.5 0 0 1 0 3zm-118.34 0H47.75a1.5 1.5 0 0 1 0-3h18.192a1.5 1.5 0 0 1 0 3z" fill="#003029" id="y4qjs6bL5SuKpyGO5m1VZ"/></g></g></g><g transform="translate(635.0 826.0) rotate(0.0 254.5 108.5) scale(1.0015860084928196 1.0012642691693658)" id="pTBtrRXZIAeITy3yUqS4Q"><g clip-path="url(#clipPath_dLZZKNtf)" transform="matrix(1 0 0 1 0 0)" id="N8lbsovMLgoSDi9nIUboI"><path d="M16.026 197.68H183.32v19.046H0v-3.021c0-8.85 7.175-16.025 16.026-16.025z" fill="#E4634F" id="S8PWG0Z7Bsrw0R2xqemRu"/><path d="M426.979 216.726H125.702l80.956-194.947A35.328 35.328 0 0 1 239.284 0h251.218c12.603 0 21.156 12.813 16.322 24.452z" fill="#E4634F" id="uD-ggN5S6fOQXqpoUFL2m"/><g fill="#003029" id="iHKKZwJj5X6hBJ4rxU67n"><path d="M330.239 131.562c-6.167 0-11.503-2.395-15.023-6.742-3.624-4.476-4.878-10.431-3.531-16.769 2.683-12.62 15.144-22.888 27.779-22.888 6.167 0 11.503 2.395 15.023 6.742 3.624 4.476 4.878 10.431 3.531 16.769-2.683 12.621-15.144 22.888-27.779 22.888zm9.224-43.398c-11.295 0-22.441 9.201-24.845 20.511-1.156 5.436-.115 10.499 2.928 14.258 2.94 3.631 7.447 5.63 12.692 5.63 11.295 0 22.441-9.201 24.845-20.511 1.156-5.436.115-10.499-2.928-14.258-2.94-3.631-7.447-5.63-12.692-5.63zm-210.962 123.32a1.5 1.5 0 0 1-1.385-2.075l5.11-12.305a1.5 1.5 0 1 1 2.77 1.15l-5.11 12.305a1.498 1.498 0 0 1-1.385.925z" fill="#003029" id="UwbnIZVzYZ-Asxg1Bcm-P"/></g></g></g></g></g></svg>