<svg xmlns="http://www.w3.org/2000/svg" fill="none" viewBox="51.5 60.1 454.75 439.05"><defs><clipPath id="assetClipPath_w1zH6ASt"><path d="m0 0 h 3000 v 3000 h -3000 v -3000 z" id="path_mFnSpOV2" fill="#ffffff"/></clipPath><clipPath id="clipPath_OKrcHAU_"><path d="m0 0 h 1202.315 v 1031.932 h -1202.315 v -1031.932 z" id="path_I7U2QI4D"/></clipPath><clipPath id="clipPath_F_XFHJ7r"><path d="m0 0 h 545.407 v 350.23 h -545.407 v -350.23 z" id="path_6zMstfBx"/></clipPath><clipPath id="clipPath_E8YABsDs"><path d="m0 0 h 269.813 v 241.97 h -269.813 v -241.97 z" id="path_9Lk_xhZ-"/></clipPath><clipPath id="clipPath_dvZczWYs"><path d="m0 0 h 640.792 v 382.121 h -640.792 v -382.121 z" id="path__UuO2m8l"/></clipPath><clipPath id="clipPath_f681svSL"><path d="m0 0 h 45.288 v 45.288 h -45.288 v -45.288 z" id="path_t8xCzSyX"/></clipPath><clipPath id="clipPath_uoNqO-RD"><path d="m0 0 h 209.845 v 347.759 h -209.845 v -347.759 z" id="path_lOnnCewx"/></clipPath><clipPath id="clipPath_L8JBNHhA"><path d="m0 0 h 138.816 v 169.319 h -138.816 v -169.319 z" id="path_tpP0B5z8"/></clipPath><clipPath id="clipPath_b-p2w3R8"><path d="m0 0 h 89.455 v 158.179 h -89.455 v -158.179 z" id="path_pAGcSONW"/></clipPath></defs><g transform="" data-asset-index="0"><g clip-path="url(#assetClipPath_w1zH6ASt)" transform="scale(0.18666666666666668 0.18666666666666668)" data-asset-index="0"><defs/><g transform="translate(276.0 620.0) rotate(0.0 1218.0 1027.0) scale(2.0260913321384164 1.9904412306237231)" id="O-0x7UcgAixsC4E9kG7-1"><g clip-path="url(#clipPath_OKrcHAU_)" transform="matrix(1 0 0 1 0 0)" id="FSMjaLp9Gr-ZTN9MQxomx"><path d="M1097.124 863.563c-49.339-15.666-95.521-17.539-137.655 0l24.249 83.967c6.708 24.458 29.083 42.435 55.67 42.435 31.886 0 57.736-25.849 57.736-57.736l-.002-.08h.002z" fill="#DE5D4A" id="z0ManzRcVSExZAVO8sIbb"/><path d="m656.125 417.138-.001.036c-56.705-1.059-103.532 44.051-104.591 100.756s44.051 103.532 100.756 104.591c1.946.061 339.541 7.359 339.541 7.359 57.266 1.07 104.557-44.487 105.627-101.753 1.012-54.164-39.69-99.396-92.557-105.044v-.004c-39.356-4.483-239.066-8.479-348.775-5.941z" fill="#FFBBA0" id="UOkV_8UKXYARqyVklyS7y"/><path d="M639.679 521.975a1.501 1.501 0 0 1-1.409-.986l-17.738-48.574a1.501 1.501 0 0 1 2.819-1.03l17.738 48.574a1.501 1.501 0 0 1-1.41 2.016z" fill="#003029" id="iFoBlQWTQrt39rxdPr"/><path d="M178.513 934.633c28.413-43.272 42.694-87.23 37.189-132.536l-87.396.662c-25.36-.149-48.714 16.537-55.897 42.136-8.615 30.701 9.29 62.572 39.991 71.187l.078.02-.001.002z" fill="#DE5D4A" id="E6y8QX4m73ZNAGwx6aDGB"/><path d="M538.605 251.355s-26.925 6.781-50.046 56.644c-14.523 31.322-49.48 117.151-111.649 295.727l-42.298-17.624c62.125-182.828 102.93-277.063 116.805-304.498 22.586-44.658 49.931-58.119 49.931-58.119z" fill="#50B9AD" id="H8aKd5jLN_lPlyTxoxHJW"/><path d="M444.34 96.7c5.312-18.096 26.866-13.156 32.375 1.862 4.076 11.112-3.569 26.953-24.13 27.101-7.442-.31-10.5-17.579-8.245-28.963z" fill="#DE5D4A" id="VbI0N_SFwKrhBrGhdcu"/><path d="M467.101 108.078c-.186 0-.375-.035-.559-.109l-14.381-5.781a1.5 1.5 0 1 1 1.119-2.784l14.381 5.781a1.5 1.5 0 0 1-.56 2.893z" fill="#003029" id="B0VUc4AhxkzQ3DTm0VIT"/><path d="M457.354 111.658a1.5 1.5 0 0 1-1.384-2.077l5.877-14.118a1.5 1.5 0 0 1 2.769 1.153l-5.877 14.118c-.24.576-.798.924-1.385.924z" fill="#003029" id="EmPpyEjqHPp1Cv2n6nmPq"/><path d="M368.57 171.1c-112.407 90.998-137.205 33.882-33.831-46.158 11.631-4.618 22.62 27.035 33.831 46.158z" fill="#25968A" id="WKDkrnAtr_g-X4lRhsEl"/><path d="M477.136 86.519c-1.818-5.877-4.063-11.607-6.512-16.724-17.277-28.001-43.322-48.113-82.33-32.763-46.747 18.396-55.075 58.553-39.126 99.844 3.443 9.498 6.186 15.383 13.086 27.122 29.706 37.169 69.721 30.752 102.829 14.522 38.431-18.838 48.729-70.844 12.053-92.001z" fill="#DE5D4A" id="yfGKPUb3V17rl6E-AUBwq"/><path d="M349.169 136.876c7.686 11.226 20.271 8.451 6.422-18.49-6.559.932-12.849 8.215-12.1 16.031z" fill="#003029" id="X_Cmvh8jgUw0iJ48qWWOQ"/><path d="M429.898 126.248c-1.845-11.359 22.499-15.017 23.347-3.519 2.695 4.475.041 12.355-8.464 14.248-8.197 1.824-17.273-4.259-14.883-10.729z" fill="#FFA189" id="x4GE4L7zOlZJPB3fAgy-7"/><path d="M431.146 127.737c-5.491 0-10.743-.526-15.428-1.271a1.5 1.5 0 0 1 .471-2.963c15.042 2.392 36.14 2.479 51.238-10.688a1.5 1.5 0 0 1 1.971 2.261c-11.197 9.765-25.376 12.661-38.252 12.661z" fill="#003029" id="QWHH87m2fPgqyHnU8atgl"/><path d="M373.599 101.73c.262-.208.528-.412.792-.617.406-.317.811-.634 1.221-.947.283-.217.57-.431.855-.646.394-.297.787-.595 1.184-.889.298-.221.599-.44.899-.66.388-.283.776-.567 1.167-.847.31-.223.622-.443.933-.664a185.865 185.865 0 0 1 2.113-1.472 159.538 159.538 0 0 1 3.312-2.215 163.32 163.32 0 0 1 3.148-2.007c.404-.251.809-.5 1.215-.748.325-.198.65-.397.976-.593.413-.249.828-.494 1.244-.74.321-.189.642-.38.965-.568.425-.247.851-.49 1.278-.733.317-.181.633-.363.95-.542.443-.249.887-.493 1.332-.738.302-.167.603-.335.906-.5.488-.265.978-.524 1.469-.784.262-.139.522-.28.784-.418a170.364 170.364 0 0 1 4.535-2.289c.246-.12.493-.235.739-.353.514-.247 1.029-.494 1.545-.735.302-.141.604-.278.906-.417.461-.212.921-.424 1.383-.631.326-.146.653-.289.979-.432.44-.194.879-.388 1.32-.578.336-.145.673-.286 1.01-.428.431-.182.862-.363 1.293-.541a170.653 170.653 0 0 1 2.311-.928c.346-.136.692-.269 1.037-.402a132.017 132.017 0 0 1 2.315-.868 162.218 162.218 0 0 1 2.314-.824 159.05 159.05 0 0 1 2.309-.779c.428-.14.856-.276 1.283-.412.34-.107.68-.216 1.02-.32.431-.133.862-.261 1.293-.389.337-.1.674-.202 1.011-.299.436-.125.872-.246 1.307-.367.328-.091.657-.184.984-.272.459-.124.917-.24 1.375-.358.302-.077.604-.158.906-.232.509-.126 1.017-.246 1.524-.365.25-.059.501-.122.751-.178 1.513-.345 3.018-.657 4.515-.935.247-.046.493-.086.74-.13.5-.089.999-.179 1.497-.26.296-.048.591-.091.886-.137.446-.069.892-.139 1.336-.202.313-.044.625-.083.938-.124.424-.056.849-.112 1.271-.162.32-.038.638-.071.957-.105.412-.044.823-.088 1.233-.127.323-.031.645-.057.966-.084.403-.034.806-.066 1.207-.095a108.67 108.67 0 0 1 2.149-.123c.323-.015.645-.026.966-.037a76.331 76.331 0 0 1 3.272-.04 61.476 61.476 0 0 1 2.088.049 56.14 56.14 0 0 1 2.068.108c.299.02.599.039.896.062.386.031.77.069 1.153.106.285.028.572.053.856.085.399.044.793.097 1.188.149.264.034.53.065.792.103.436.063.868.135 1.299.208.215.036.433.067.646.105.643.115 1.282.239 1.914.375-18.175-39.195-53.187-46.621-82.855-34.054a101.48 101.48 0 0 0-4.23 1.917c-.9.431-1.786.87-2.657 1.32-.195.101-.395.198-.588.3a94.622 94.622 0 0 0-3.028 1.663c-.245.14-.484.283-.726.425-.79.461-1.566.931-2.33 1.408-.242.151-.486.301-.725.453a91.36 91.36 0 0 0-2.756 1.826c-.149.104-.293.209-.441.313a90.827 90.827 0 0 0-5.324 4.033c-.052.043-.108.085-.16.128a84.087 84.087 0 0 0-2.383 2.051c-.21.187-.416.375-.623.563a82.521 82.521 0 0 0-1.847 1.728c-.153.147-.31.293-.461.441a84.03 84.03 0 0 0-2.118 2.152c-.162.17-.318.343-.478.514a83.91 83.91 0 0 0-1.619 1.786c-.172.195-.344.389-.514.585a81.705 81.705 0 0 0-1.883 2.254c-.082.102-.159.205-.241.307a83.673 83.673 0 0 0-2.04 2.676 83.489 83.489 0 0 0-1.494 2.108c-.059.085-.12.17-.178.255a85.757 85.757 0 0 0-1.547 2.372c-.134.213-.265.427-.397.641a83.079 83.079 0 0 0-1.164 1.943c-.105.18-.212.359-.315.54a83.901 83.901 0 0 0-1.324 2.411c-.095.18-.185.36-.279.54a85.52 85.52 0 0 0-.997 1.984c-.106.219-.214.438-.318.658a82.59 82.59 0 0 0-1.123 2.452l-.1.237a83.58 83.58 0 0 0-1.21 2.945 87.06 87.06 0 0 0-.804 2.14c-.044.122-.091.244-.135.367a85.817 85.817 0 0 0-.831 2.461c-.069.216-.135.431-.203.646-.207.661-.406 1.32-.595 1.979-.056.196-.115.392-.169.587-.229.816-.445 1.63-.648 2.442-.041.164-.078.327-.118.491a91.364 91.364 0 0 0-.466 2.019l-.143.661c-.17.811-.333 1.619-.478 2.423l-.018.104a89.123 89.123 0 0 0-.743 4.973c-.017.138-.036.276-.052.413-.09.781-.167 1.556-.235 2.326-.017.195-.031.389-.047.583-.05.618-.093 1.231-.128 1.841-.011.19-.024.381-.034.571a77.939 77.939 0 0 0-.085 2.242l-.006.405a82.227 82.227 0 0 0-.012 1.854c0 .109-.003.221-.002.329 0 .037.005.074.006.111.113 10.565 2.375 19.496 5.842 24.88a87.641 87.641 0 0 1 3.465-6.129c.532-.715.907-1.444 1.169-1.846.414-.637.839-1.272 1.271-1.905.143-.209.292-.416.436-.625.294-.424.588-.847.891-1.269.178-.249.362-.496.543-.744.276-.378.552-.757.835-1.134.199-.265.403-.528.604-.792.274-.358.548-.717.827-1.073.212-.271.429-.541.644-.81.278-.348.555-.695.838-1.041.223-.273.45-.545.676-.817.282-.339.566-.679.853-1.017a133.894 133.894 0 0 1 5.639-6.203c.315-.325.634-.649.953-.972.258-.261.515-.521.776-.781.327-.326.657-.649.988-.972.259-.253.517-.507.779-.759.343-.33.689-.657 1.036-.984.256-.242.511-.484.77-.725.367-.341.739-.68 1.11-1.018.244-.223.486-.446.731-.667.411-.369.827-.735 1.243-1.101.214-.188.425-.378.64-.565 1.264-1.1 2.551-2.184 3.859-3.251.217-.177.438-.351.656-.527.435-.354.875-.709 1.319-1.06z" fill="#25968A" id="qlmyaVSwL0YM65KNt9sC8"/><path d="M391.95 67.677c3.885-17.522 20.28-26.58 35.429-13.724-12.426 3.153-24.276 7.635-35.429 13.724z" fill="#003029" id="M6zNiW_hcBrEvNYzflTb_"/><path d="M383.5 95.998a1.498 1.498 0 0 1-1.375-.9l-7.504-17.176a1.5 1.5 0 0 1 .531-1.841c23.081-15.707 48.853-25.318 70.708-26.369a1.49 1.49 0 0 1 1.435.871l7.959 17.291a1.5 1.5 0 0 1-2.726 1.255l-7.533-16.365c-20.777 1.249-45.113 10.349-67.125 25.102l7.004 16.031a1.5 1.5 0 0 1-1.374 2.101z" fill="#003029" id="hGuGZIhsNfft_MVNzDjo6"/><path d="M391.952 69.177a1.5 1.5 0 0 1-1.466-1.825c2.185-9.852 8.17-17.308 16.01-19.944 7.155-2.407 14.916-.488 21.854 5.402a1.5 1.5 0 0 1-1.941 2.287c-6.105-5.182-12.836-6.903-18.957-4.845-6.834 2.298-12.082 8.934-14.037 17.75a1.501 1.501 0 0 1-1.463 1.175z" fill="#003029" id="x9cab13CRm2sufrtDui3O"/><path d="M349.169 136.876c-15.995-9.992-28.818 8.023-22.955 22.907 4.339 11.012 20.578 17.769 36.041 4.215 5.355-5.177-3.836-20.113-13.086-27.122z" fill="#DE5D4A" id="nXkPmKEe0R8868KjOVm8"/><g fill="#003029" id="mh6EvbwfPifz4unZQhavO"><path d="M338.723 160.885a1.5 1.5 0 0 1-1.341-2.168l6.905-13.876a1.5 1.5 0 1 1 2.685 1.336l-6.905 13.876a1.5 1.5 0 0 1-1.344.832z" fill="#003029" id="OJzqivjT4-Ty-TdJyBVW8"/><path d="M348.386 157.082c-.219 0-.44-.048-.651-.149l-13.774-6.644a1.5 1.5 0 0 1 1.304-2.702l13.774 6.644a1.5 1.5 0 0 1-.653 2.851zm76.737-43.83c-.392 0-.783-.152-1.077-.456-6.78-6.99-19.282-7.939-29.083-2.207a1.5 1.5 0 1 1-1.514-2.589c10.957-6.41 25.037-5.246 32.751 2.707a1.5 1.5 0 0 1-1.077 2.545z" fill="#003029" id="sYOavgQUZ7PyKzyyAnr8r"/><path d="M420.927 109.04a1.5 1.5 0 0 1-1.5-1.5c0-4.223-2.178-11.081-5.42-14.56a1.499 1.499 0 1 1 2.195-2.045c3.845 4.126 6.226 11.832 6.226 16.605a1.501 1.501 0 0 1-1.501 1.5zm28.106-12.819a1.5 1.5 0 0 1-1.471-1.213c-1.824-9.359 1.78-20.74 14.003-23.614a1.5 1.5 0 0 1 .687 2.92c-10.349 2.432-13.356 11.857-11.746 20.119a1.499 1.499 0 0 1-1.473 1.788z" fill="#003029" id="PSyx7FkGWzuHs4PaBqn-n"/><path d="M464.633 83.715c3.153 6.77 3.254 13.401.227 14.811s-8.037-2.935-11.19-9.705c-1.26-2.707-2.033-5.391-2.313-7.728 1.732-3.436 5.078-7.086 5.798-6.682 4.184 2.351 6.448 7.092 7.478 9.304z" fill="#003029" id="yN88Mmt8UaoVq1YJP18ax"/></g><path d="M995.703 422.5c-57.266-1.069-104.557 44.487-105.627 101.753-.361 19.343 4.603 37.544 13.535 53.214-.036 1.13-.345 109.422-.315 129.9.019 13.051-23.385 44.297-9.474 67.284 15.393 25.436 50.311 35.81 50.311 35.81l15.336 53.103h137.655v-52.882s.281-279.845.332-282.555c1.07-57.267-44.487-104.557-101.753-105.627z" fill="#FFBBA0" id="uH0Y0Q9ylt3GFfTXsxK8"/><path d="M1097.124 812.181h-.002l-152.99-.221a1.5 1.5 0 0 1 .002-3h.002l152.99.221a1.5 1.5 0 0 1-.002 3zM903.588 629.485a1.5 1.5 0 0 1-1.216-2.378l10.566-14.655a1.5 1.5 0 1 1 2.433 1.754l-8.61 11.941 20.583-2.131a1.5 1.5 0 1 1 .308 2.983l-23.911 2.476a.967.967 0 0 1-.153.01z" fill="#003029" id="mYUlGgPOvF6lVqbLobdXU"/><path d="M978.778 811.95h-.017a1.499 1.499 0 0 1-1.483-1.517l2.158-193.677c.387-34.664-27.492-63.574-62.146-64.445-66.297-1.667-158.427-4.036-220.842-5.848a1.5 1.5 0 0 1 .087-2.999c62.411 1.812 154.537 4.18 220.831 5.848 17.649.444 34.118 7.687 46.373 20.395 12.254 12.708 18.895 29.429 18.698 47.083l-2.158 193.676a1.503 1.503 0 0 1-1.501 1.484z" fill="#003029" id="T5PulDZDqhCFQMgzVUlZy"/><path d="M924.142 168.778c-12.387-38.249-53.482-59.2-91.79-46.796l-.008.003c-.787.241-177.258 54.366-203.586 62.445-39.932 10.642-63.676 51.641-53.033 91.572 10.617 39.838 51.449 63.558 91.292 53.1a.126.126 0 0 1 .003.01l.118-.039c.053-.014.106-.024.159-.038a75.747 75.747 0 0 0 7.938-2.606c33.983-11.098 163.593-53.426 201.813-65.891.053-.017.107-.03.16-.047 38.308-12.403 59.321-53.465 46.934-91.713z" fill="#E1604D" id="XXhcEGDi3yQVwQMxW8Jgo"/><path d="M161.481 1014.669c2.666 19.934-25.867 16.494-40.645 13.35-28.736-6.114-41.583-23.76-39.975-40.613-9.225-7.249-15.314-13.415-22.969-34.047-8.159-21.991-4.777-37.64-4.777-37.64s-16.382-19.387-21.219-32.425 1.468-30.657 1.468-30.657-16.488-9.827-27.319-39.019-.746-43.785 13.911-45.459c19.378-2.213 52.07-.499 59.765 16.064 4.256 9.161 29.244 127.806 34.927 204.926 1.872 25.421 46.04 19.587 46.833 25.52z" fill="#FFFFFF" id="y695lPCXkp2iX7NxXTUie"/><path d="M140.938 1031.918c-7.305 0-14.946-1.27-20.414-2.433-32.099-6.831-42.236-26.372-41.224-41.401-8.688-6.887-15.07-13.33-22.814-34.205-7.323-19.737-5.548-34.333-4.975-37.742-2.751-3.313-16.548-20.266-21.021-32.324-4.314-11.628-.238-26.383 1.087-30.561-3.838-2.675-17.465-13.581-26.939-39.116-7.456-20.094-4.567-31.561-.832-37.641 3.411-5.552 9.085-9.043 15.979-9.831 18.846-2.153 52.964-1.01 61.295 16.922a1.5 1.5 0 1 1-2.721 1.263c-7.627-16.417-41.428-17.125-58.234-15.206-6.044.69-10.803 3.602-13.763 8.42-3.387 5.513-5.947 16.065 1.088 35.027 10.525 28.368 26.521 38.157 26.681 38.252.615.367.885 1.119.645 1.793-.061.171-6.061 17.269-1.474 29.63 4.69 12.64 20.797 31.787 20.959 31.979.299.354.417.83.32 1.283-.032.153-3.174 15.536 4.717 36.803 7.677 20.692 13.618 26.418 22.489 33.39.401.315.615.813.566 1.322-1.326 13.902 8.039 32.459 38.794 39.003 8.304 1.767 28.435 5.117 36.016-1.903 2.478-2.295 3.404-5.494 2.831-9.78a1.5 1.5 0 0 1 2.974-.398c.702 5.25-.565 9.415-3.766 12.378-4.13 3.831-11.032 5.076-18.264 5.076z" fill="#003029" id="EiPda-nJtQvYuMB_zMwkc"/><path d="m148.637 945.724-7.528 38.187s11.621 9.918 16.572 14.488c6.108 5.639 8.076 11.116 3.801 16.269-47.903-10.193-57.885-16.031-64.524-39.647-17.013-60.525-27.233-130.365-28.102-136.872-5.759-43.08 14.858-42.08 10.848-54.058 16.731 3.615 56.646 14.295 56.646 14.295l18.753-14.255c7.667-5.038 18.058 1.826 15.753 10.716-.687 2.65-2.36 5.072-5.6 6.821-4.537 2.448-17.625 5.109-23.962 10.238-16.189 13.101-39.865 25.552-37.536 52.139 1.073 12.246 19.992 33.771 24.079 49.527l8.395-4.404c7.917-4.154 17.709-.814 21.455 7.317l4.591 9.965c2.547 5.528.301 12.075-5.1 14.864z" fill="#25968A" id="Ac_doicN3KgNngBK8UmKD"/><path d="M149.978 1001.99c-.447 0-.91-.049-1.382-.15a1.491 1.491 0 0 1-.464-.184l-19.784-11.964a17.145 17.145 0 0 1-7.896-11.179l-8.773-42.615c-1.226-8.125 2.527-15.982 9.546-20.096l5.78-3.389a1.5 1.5 0 0 1 1.518 2.588l-5.78 3.389a16.708 16.708 0 0 0-8.111 16.983l8.759 42.536a14.134 14.134 0 0 0 6.51 9.217l19.551 11.823c.973.152 1.749-.105 2.249-.747.63-.809.724-2.081.228-3.095a1.5 1.5 0 1 1 2.695-1.319c.998 2.038.774 4.553-.557 6.26-.991 1.267-2.437 1.942-4.089 1.942z" fill="#003029" id="DqbTIwqSegbesX77s1V"/><path d="M161.483 1016.169a1.52 1.52 0 0 1-.313-.033c-49.04-10.435-58.857-16.522-65.656-40.709-17.924-63.77-28.051-136.375-28.145-137.079-3.708-27.735 3.359-37.689 8.036-44.276 2.567-3.616 4.117-5.798 2.876-9.505a1.5 1.5 0 1 1 2.844-.952c1.725 5.152-.592 8.416-3.274 12.194-4.404 6.203-11.06 15.578-7.509 42.142.094.702 10.19 73.09 28.059 136.665 6.381 22.703 15.861 28.472 63.392 38.586a1.499 1.499 0 0 1-.31 2.967z" fill="#003029" id="h2djHXOx11tq2xwcv06EL"/><path d="m659.737 595.526-.036-.003c4.35-56.548-37.965-105.915-94.513-110.265s-105.915 37.965-110.265 94.513c-.174 1.94-27.061 338.541-27.061 338.541-4.393 57.108 38.341 106.964 95.448 111.357 54.014 4.155 101.532-33.852 110.24-86.302h.004c6.761-39.029 22.346-238.17 26.183-347.841z" fill="#FFBBA0" id="tRwhmVRIWDyFhTRiJ43x6"/><path d="m657.733 642.956-.069-.001a1.5 1.5 0 0 1-1.43-1.567l1.572-34.417c.012-.25.085-.493.215-.707l46.596-77.117a1.5 1.5 0 0 1 2.568 1.552l-46.399 76.791-1.555 34.036a1.501 1.501 0 0 1-1.498 1.43z" fill="#003029" id="Z9TmH1hYvL8-2VURw70N"/><path d="M720.331 237.464c-9.276-34.805-41.614-57.302-76.205-55.461-51.543 2.743-227.342 68.96-297.276 104.566l.008.014c-31.849 15.164-49.444 51.271-40.111 86.621 10.55 39.956 51.493 63.795 91.449 53.245 1.116 4.119 31.25 114.033 32.059 116.035 3.551 8.791-15.919 33.425-11.596 55.421 3.197 16.271 14.824 21.895 32.635 27.186-12.194 11.049-12.449 67.487-5.395 67.487 0 0 133.627-140.166 165.425-210.645l77.727-64.778s11.234-11.702 7.404-26.383c-3.108-11.916-17.176-14.958-18.504-20.458-3.288-13.617-6.901-28.33-10.243-41.398 39.681-10.815 63.229-51.659 52.623-91.452z" fill="#E1604D" id="iF_s7dwql4BKuu8BYxps_"/><path d="M451.294 626.592a1.5 1.5 0 0 1-1.002-2.617l163.524-146.46a1.5 1.5 0 0 1 2.002 2.235L452.294 626.21a1.5 1.5 0 0 1-1 .382zM670.75 342.465c-.668 0-1.278-.45-1.452-1.127-.065-.254-6.591-25.643-12.689-46.71-5.794-20.019-21.712-39.747-21.873-39.944a1.5 1.5 0 0 1 2.327-1.893c.669.823 16.46 20.387 22.427 41.003 6.111 21.112 12.648 46.544 12.713 46.798a1.5 1.5 0 0 1-1.453 1.873z" fill="#003029" id="Ky-dggCEqECFJnE_SEorV"/><path d="M561.143 826.955c-18.526-5.574-37.391-5.711-54.892-1.345-1.078-.34-105.26-29.895-124.985-35.397-12.571-3.507-36.332-34.483-62.223-27.3-28.648 7.949-48.07 38.765-48.07 38.765l-55.271.418-37.189 132.536 50.916 14.287s269.363 75.876 271.958 76.657c54.848 16.501 112.688-14.585 129.189-69.432 16.5-54.847-14.585-112.687-69.433-129.189z" fill="#FFBBA0" id="uOAeTG9I_GM9y4S7S9YHd"/><path d="M229.429 950.42a1.502 1.502 0 0 1-1.445-1.908l41.545-147.241a1.502 1.502 0 0 1 1.851-1.037 1.502 1.502 0 0 1 1.037 1.851l-41.545 147.241a1.502 1.502 0 0 1-1.443 1.094zm231.396-136.217a1.53 1.53 0 0 1-.41-.057l-24.086-6.826a1.502 1.502 0 0 1-.141-2.839l15.762-6.209a1.499 1.499 0 1 1 1.099 2.791l-11.629 4.581 19.813 5.615a1.5 1.5 0 0 1-.408 2.944z" fill="#003029" id="SbE47A6L8o6cgBVGCRa-J"/><path d="M448.873 894.91a64.97 64.97 0 0 1-15.129-1.789l-176.578-42.29a1.5 1.5 0 1 1 .699-2.918l176.578 42.289a61.682 61.682 0 0 0 50.888-10.227 61.67 61.67 0 0 0 25.131-45.4c5.682-78.625 15.215-216.553 15.215-256.91a1.5 1.5 0 1 1 3 0c0 40.451-9.538 178.461-15.223 257.126a64.67 64.67 0 0 1-26.352 47.605 64.662 64.662 0 0 1-38.229 12.514z" fill="#003029" id="ZVQYmllQ5Url4iMe4Jup1"/><path d="M1154.374 124.203a20.194 20.194 0 0 0-11.346-7.449c-4.686-23.321-20.963-49.733-42.779-77.012 0 0-102.764 31.578-102.764 31.58-33.97 11.078-52.528 47.596-41.452 81.566 11.077 33.971 47.595 52.53 81.567 41.454a42957.29 42957.29 0 0 0 92.259-31.347 31.314 31.314 0 0 0 2.417-.825c16.503-6.507 25.204-12.429 26.13-23.876.386-4.773-.805-9.829-4.032-14.091z" fill="#DE5D4A" id="j_6m9WKnZIJ6y8K533qAV"/><path d="M357.698 470.444 559.8 537.592l-45.886 138.11-202.102-67.148z" fill="#FFFFFF" id="YeMejscje973ldRAHeoFX"/><path d="M513.939 677.186a1.5 1.5 0 0 1-.473-.077l-202.103-67.14a1.498 1.498 0 0 1-.951-1.896l45.881-138.11a1.5 1.5 0 0 1 1.896-.951l202.103 67.14a1.498 1.498 0 0 1 .951 1.896l-45.881 138.11a1.5 1.5 0 0 1-1.423 1.028zm-200.207-69.592 199.256 66.194 44.936-135.263-199.256-66.194z" fill="#003029" id="NAW3S85h7G7fMOmKJg12J"/><path d="m304.32 513.696 212.24 17.463-11.934 145.037-212.239-17.463z" fill="#FFFFFF" id="KDnuw9GGWTtcq23PD4eqV"/><path d="M504.643 677.719c-.041 0-.083-.002-.125-.005L292.273 660.25a1.504 1.504 0 0 1-1.372-1.618l11.934-145.042a1.496 1.496 0 0 1 1.618-1.372l212.246 17.463a1.504 1.504 0 0 1 1.372 1.618l-11.934 145.042a1.5 1.5 0 0 1-1.494 1.378zm-210.629-20.336 209.256 17.218 11.688-142.052-209.256-17.217z" fill="#003029" id="B1fn88ccZcVxb-zsEMp2R"/><path d="M401.094 641.127c-.386 0-.769-.148-1.06-.438l-99.003-98.693a1.5 1.5 0 0 1 2.119-2.124l98.091 97.783 112.403-82.862a1.501 1.501 0 0 1 1.781 2.414l-113.44 83.626c-.267.197-.58.294-.891.294z" fill="#003029" id="Ml1xqWqBn99NtpqnkKy87"/><path d="m540.87 753.973-81.265-6.686 16.079-195.425 115.172 9.476-13.29 161.518c-1.54 18.726-17.97 32.658-36.696 31.117z" fill="#50B9AD" id="gKOCCtyfqxyGlwtx1CnmD"/><path d="m457.076 747.079-148.98-12.258c-18.726-1.541-32.658-17.971-31.117-36.697l13.29-161.518 216.794 17.838-13.29 161.518c-1.541 18.726-17.97 32.657-36.697 31.117z" fill="#50B9AD" id="gzznnQGEUjDJciA97gBuL"/><path d="M390.626 657.765c-8.011 0-14.528-6.517-14.528-14.528s6.518-14.528 14.528-14.528 14.528 6.517 14.528 14.528-6.517 14.528-14.528 14.528zm0-26.056c-6.357 0-11.528 5.171-11.528 11.528s5.171 11.528 11.528 11.528c6.356 0 11.528-5.171 11.528-11.528s-5.171-11.528-11.528-11.528zm69.266 116.986c-.973 0-1.952-.04-2.938-.121a1.5 1.5 0 0 1-1.372-1.618 1.495 1.495 0 0 1 1.618-1.372c17.869 1.472 33.608-11.873 35.079-29.745l13.29-161.518a1.49 1.49 0 0 1 1.618-1.372 1.5 1.5 0 0 1 1.372 1.618l-13.29 161.518c-1.526 18.533-17.099 32.61-35.377 32.61zm117.117-129.851c-.041 0-.082-.002-.123-.005l-64.505-5.307a1.5 1.5 0 0 1-1.372-1.618l2.324-28.245a1.504 1.504 0 0 1 1.618-1.372l64.505 5.308a1.5 1.5 0 0 1 1.372 1.618l-2.324 28.245a1.504 1.504 0 0 1-.525 1.021 1.508 1.508 0 0 1-.97.355zm-62.887-8.18 61.515 5.061 2.078-25.255-61.515-5.062z" fill="#003029" id="KyIOTVXMAwgtm0rPxF1N0"/><path d="M547.023 206.52s17.106 9.234 14.759 64.146c-1.474 34.494-9.814 126.792-36.551 313.98l45.668 3.758c28.727-190.946 35.73-293.397 35.996-324.14.433-50.043-15.644-71.332-15.644-71.332-7.641-9.089-51.3 8.655-44.228 13.588z" fill="#50B9AD" id="tyiCtt22-O8-9YmTQqi7j"/><path d="M525.233 586.147a1.5 1.5 0 0 1-1.487-1.71l4.555-32.234a1.5 1.5 0 0 1 2.97.42l-4.555 32.234a1.5 1.5 0 0 1-1.483 1.29zm45.668 3.758a1.5 1.5 0 0 1-1.486-1.719l4.792-32.401a1.5 1.5 0 0 1 2.968.439l-4.792 32.401a1.502 1.502 0 0 1-1.482 1.28z" fill="#003029" id="gN3Ndy8CRZBXn30SI0Zhe"/><path d="M423.41 254.368c10.694 24.623 47.863 49.814 96.806 24.927 39.08-19.871 39.124-53.599 20.463-68.144-7.678-5.971-19.423-2.82-19.775 4.713 14.737 7.513 21.81 33.221-9.38 49.08-37.308 18.97-63.559-4.969-69.968-19.277-3.116-7.091-21.788.415-18.146 8.701z" fill="#E1604D" id="NfAGZM1dUJS-cv21wgOEQ"/><path d="M480.819 291.044c-9.25 0-17.025-1.771-23.096-3.955-16.132-5.803-29.474-17.812-35.69-32.123-1.051-2.397-.684-5.006 1.034-7.346 2.915-3.972 9.324-6.757 14.291-6.213 2.687.295 4.665 1.594 5.571 3.657 3.58 7.992 13.073 18.142 26.202 22.781 13.069 4.617 27.103 3.192 41.713-4.237 13.603-6.917 21.097-16.516 21.103-27.03.004-8.012-4.708-15.799-11.725-19.377a1.5 1.5 0 0 1-.817-1.406c.16-3.421 2.285-6.32 5.832-7.953 4.261-1.963 10.973-2.066 16.363 2.126 8.968 6.99 13.652 18.12 12.532 29.775-1.541 16.029-13.655 30.933-33.237 40.89-15.274 7.766-28.776 10.411-40.076 10.411zm-44.74-46.706c-3.766 0-8.503 2.208-10.594 5.056-1.089 1.484-1.325 2.954-.703 4.37l.003.006c5.892 13.567 18.585 24.967 33.954 30.496 12.929 4.65 33.971 7.333 60.797-6.308 18.648-9.482 30.169-23.516 31.61-38.502 1.021-10.628-3.236-20.767-11.389-27.121-4.394-3.417-9.829-3.35-13.265-1.768-1.315.606-3.448 1.953-3.975 4.463 7.589 4.311 12.435 12.653 12.431 21.549-.004 6.776-2.963 19.645-22.744 29.703-15.155 7.706-30.394 9.224-44.072 4.392-13.967-4.935-24.099-15.807-27.945-24.393-.475-1.08-1.535-1.713-3.157-1.892a8.436 8.436 0 0 0-.951-.051z" fill="#003029" id="s3x_R8QLe31KfcXtthzl"/><path d="M113.471 469.944c-15.894-36.929 1.202-79.772 38.187-95.692l.008-.003c.751-.337 169.14-75.946 194.265-87.223 37.045-18.316 81.924-3.133 100.24 33.912 18.273 36.958 3.199 81.709-33.658 100.105l.004.009-.114.049c-.049.025-.096.052-.145.076a75.687 75.687 0 0 1-7.688 3.272 956849.824 956849.824 0 0 0-195.203 83.464c-.051.022-.1.047-.151.07-36.984 15.92-79.851-1.11-95.745-38.039z" fill="#E1604D" id="LptTnnySA0nzY0o0a5y9r"/><path d="M387.189 433.523a1.501 1.501 0 0 1-.636-2.859l27.785-12.988a1.5 1.5 0 1 1 1.27 2.718l-27.785 12.988a1.506 1.506 0 0 1-.634.141z" fill="#003029" id="KDHlr5NOhfrJS0owqts7"/><path d="M997.485 71.315s-97.875 30.04-165.094 50.656l-.038.011c-38.307 12.404-59.32 53.465-46.933 91.713 12.387 38.249 53.482 59.2 91.789 46.796.061-.02.12-.044.181-.064 5.572-1.817 9.135-2.978 10.078-3.283 28.267-9.134 40.873 3.802 76.324-9.037 23.089-8.362 32.556-39.313 32.556-39.313l41.251-14.455z" fill="#E1604D" id="encOC8MNOhkCX69cBUtc1"/><path d="M996.348 210.296a1.5 1.5 0 0 1-1.43-1.049l-39.44-125.014a1.5 1.5 0 0 1 2.861-.903l39.439 125.014a1.5 1.5 0 0 1-1.43 1.952z" fill="#003029" id="bHvX0hVmUaS63KBCjDjx"/><path d="M1200.196 1012.779c3.944 19.721-19.931 17.229-30.516 17.229s-25.118-1.246-40.359-8.617c-11.123 4.463-21.501 8.614-43.507 8.613-23.456-.001-36.951-8.616-36.951-8.616s-23.875 8.614-37.782 8.614c-13.907-.001-28.232-12.041-28.232-12.041s-14.949 12.04-46.086 12.039-41.31-14.533-37.781-28.856c4.667-18.938 17.647-48.991 35.852-50.443 14.342-1.146 261.422 42.373 265.362 62.078z" fill="#FFFFFF" id="OZXsTRd7cybnx77niVraU"/><path d="m1110.225 942.273 86.299 52.904c5.98 3.666 7.611 11.619 3.559 17.35s-208.387-30.6-218.468-32.88c-42.393-9.588-34.283-28.569-46.908-28.976 9.21-14.429 33.108-48.135 33.108-48.135l-13.923-15.299c-5.687-7.198.245-18.149 9.302-16.627 2.7.454 5.259 1.909 7.283 4.984 2.835 4.306 9.13 19.284 11.734 27.01 6.651 19.735 10.087 46.264 35.824 53.33 11.854 3.255 38.616-6.995 54.811-5.345l-1.209-9.403c-1.14-8.867 5.397-16.886 14.324-17.57l10.939-.838c6.069-.465 11.425 3.919 12.161 9.952z" fill="#25968A" id="Ez0y5qqaIAKZQEzY95uKb"/><path d="M1175.589 991.652c-.37 0-.743-.038-1.115-.116l-86.398-18.045c-7.964-1.664-14.025-7.916-15.441-15.927l-1.166-6.598a1.5 1.5 0 1 1 2.954-.522l1.166 6.598a16.712 16.712 0 0 0 13.1 13.513l86.398 18.045a2.377 2.377 0 0 0 2.362-.834 2.379 2.379 0 0 0 .352-2.48 1.499 1.499 0 1 1 2.758-1.18 5.399 5.399 0 0 1-.789 5.562 5.402 5.402 0 0 1-4.181 1.984zm1.733 39.957c-1.546 0-3.027-.029-4.394-.056-1.176-.023-2.27-.045-3.249-.045-15.148 0-28.375-2.775-40.413-8.479-10.956 4.393-21.532 8.476-43.45 8.476h-.004c-21.05-.001-34.118-6.743-37.115-8.467-4.063 1.427-24.755 8.464-37.617 8.464h-.001c-12.402 0-24.817-8.955-28.273-11.65-3.843 2.667-18.808 11.648-46.04 11.648h-.004c-21.433 0-31.178-6.697-35.58-12.315-4.019-5.129-5.317-11.664-3.657-18.4 4.539-18.417 17.478-50.007 37.189-51.58a1.494 1.494 0 0 1 1.614 1.376 1.5 1.5 0 0 1-1.376 1.614c-18.045 1.44-30.467 32.882-34.514 49.307-1.456 5.906-.382 11.381 3.105 15.833 3.99 5.093 12.993 11.165 33.218 11.165 30.157.001 45-11.591 45.146-11.708a1.504 1.504 0 0 1 1.904.021c.139.117 14.082 11.689 27.267 11.689 13.482 0 37.036-8.439 37.272-8.525a1.508 1.508 0 0 1 1.315.146c.132.083 13.461 8.381 36.146 8.382 21.749 0 32.046-4.131 42.948-8.506a1.494 1.494 0 0 1 1.211.042c11.781 5.697 24.769 8.467 39.707 8.467.997 0 2.111.022 3.308.045 7.712.152 19.365.381 24.023-5.189 2.048-2.449 2.609-5.815 1.714-10.292a1.5 1.5 0 1 1 2.942-.588c1.07 5.349.277 9.657-2.355 12.804-4.658 5.574-14.156 6.321-21.987 6.321z" fill="#003029" id="xcm3VNUg0nk1eX6V5KAkX"/><path d="M399.848 324.348c.011-20.377-36.206-85.379-39.69-89.122-4.162-4.472-10.162-7.189-16.747-6.979a21.81 21.81 0 0 0-12.263 4.234c-20.697 15.671-42.048 31.852-59.716 46.686l-.049.038c-27.661 22.618-31.75 63.377-9.132 91.039s63.377 31.75 91.039 9.132a65.166 65.166 0 0 0 5.772-5.355l31.357-30.958c5.901-4.097 9.425-10.998 9.429-18.715z" fill="#DE5D4A" id="vn_HzdMJmxBqUNWfp_10U"/><path d="M271.985 278.746s-81.11 62.474-136.82 105.367l-.032.024c-31.519 25.057-36.787 70.881-11.766 102.35 25.021 31.47 70.855 36.668 102.374 11.611.05-.04.097-.083.147-.123 4.58-3.657 7.509-5.994 8.286-6.611 23.264-18.473 46.56-17.352 68.3-35.244 18.96-15.605 16.69-48.237 16.69-48.237l33.556-28.011z" fill="#E1604D" id="iH0YX0Qq4b4oIOaK5p507"/><path d="M247.637 484.081a1.5 1.5 0 0 1-.706-2.825c7.219-3.839 14.453-6.534 21.45-9.141 11.553-4.304 22.466-8.369 33.139-17.154 18.132-14.923 16.169-46.656 16.147-46.975a1.5 1.5 0 0 1 .535-1.255l33.556-28.011a1.5 1.5 0 0 1 1.923 2.303l-32.979 27.529c.232 5.208.648 33.974-17.276 48.726-11.061 9.104-22.721 13.448-33.998 17.648-6.905 2.573-14.045 5.233-21.089 8.979a1.491 1.491 0 0 1-.702.176z" fill="#003029" id="DVBUt5Uv9i2rf9kkgQf3q"/><path d="M319.164 409.383c-.438 0-.872-.191-1.168-.558l-82.36-102.023a1.499 1.499 0 1 1 2.334-1.884l82.36 102.023a1.499 1.499 0 0 1-1.166 2.442z" fill="#003029" id="IH9AaU75fY9BYn0z7fc_F"/><path d="M340.44 274.799s10.428-5.718 17.153-10.461c-12.572 27.343 16.951 44.204 42.406 9.235 28.716-39.448-12.177-80.361-67.229-42.174-5.818 15.224-.56 29.447 7.67 43.4z" fill="#DE5D4A" id="oOoIggVbCmzuYhPURLF4t"/><path d="M350.163 303.714s10.428-5.718 17.153-10.461c-12.572 27.343 16.951 44.204 42.406 9.235 28.716-39.448-12.177-80.361-67.229-42.174-5.818 15.224-.56 29.447 7.67 43.4z" fill="#DE5D4A" id="iOjVaCsO4Kn956G6WWZwU"/><path d="M342.494 261.815a1.5 1.5 0 0 1-.857-2.732c29.909-20.748 54.115-17.728 66.797-7.984a1.5 1.5 0 1 1-1.829 2.379c-11.839-9.099-34.675-11.757-63.259 8.07a1.49 1.49 0 0 1-.852.267z" fill="#003029" id="JLjmlsgq0IEyhIcpUo6wA"/><path d="M354.499 330.948s9.862-5.408 16.223-9.894c-11.89 25.86 16.031 41.807 40.106 8.734 27.158-37.309-11.517-76.002-63.583-39.886-5.502 14.398-.529 27.849 7.254 41.046z" fill="#DE5D4A" id="ZhZVWvWRU2qgx0AT7BvR"/><path d="M416.061 292.183a1.5 1.5 0 0 1-1.306-.76c-3.846-6.774-10.604-11.561-19.028-13.48-13.888-3.163-30.803 1.521-47.628 13.191a1.5 1.5 0 0 1-1.71-2.464c17.525-12.156 35.282-17.003 50.004-13.651 9.255 2.108 16.703 7.408 20.97 14.924a1.5 1.5 0 0 1-1.302 2.24z" fill="#003029" id="IzH5RpJCHlhbNAh6EqmK6"/><path d="M353.02 321.879c26.623-18.467 47.378-16.103 57.43-3.553 11.206 13.991 6.281 33.325-.431 43.878-10.321 16.227-32.314 18.606-34.038-7.998-3.161.06-4.986.308-10.951.708-6.767-10.898-11.068-21.897-12.01-33.035z" fill="#DE5D4A" id="pHDdwTiSjmzJ1gpCD8jlJ"/><path d="M376.544 360.431a1.501 1.501 0 0 1-1.474-1.232c-.514-2.834-.746-6.015-.689-9.454a1.488 1.488 0 0 1 1.525-1.475 1.5 1.5 0 0 1 1.475 1.525c-.054 3.244.162 6.228.642 8.869a1.5 1.5 0 0 1-1.479 1.767zm37.38-35.135a1.5 1.5 0 0 1-1.348-.84 28.067 28.067 0 0 0-3.298-5.192c-8.607-10.748-27.681-15.382-55.403 3.847a1.5 1.5 0 0 1-1.71-2.464c29.418-20.406 50.001-15.062 59.455-3.258a31.016 31.016 0 0 1 3.65 5.748 1.5 1.5 0 0 1-1.346 2.159z" fill="#003029" id="wCnIyNVCkVBPwQeVUJlfm"/><path d="M1013.791 66.859c14.826-19.948 37.65-48.332 56.423-62.261s36.745 6.151 21.727 28.666-30.43 41.699-32.526 44.275c-.643.791 13.169 19.949-6.187 42.994-12.277 14.618-55.621-31.899-39.437-53.674z" fill="#DE5D4A" id="eBv48PxF1PFgIeBruL4ki"/><path d="M1053.23 122.033a1.5 1.5 0 0 1-.955-2.658c5.554-4.58 9.051-12.011 9.848-20.923.809-9.048-1.38-17.028-3.851-19.944a1.499 1.499 0 0 1-.019-1.916c.677-.832 16.759-20.649 32.441-44.161a1.5 1.5 0 0 1 2.497 1.664c-14.067 21.09-28.461 39.23-31.875 43.479 2.989 4.464 4.534 12.877 3.795 21.145-.869 9.718-4.749 17.876-10.926 22.971a1.498 1.498 0 0 1-.955.343z" fill="#003029" id="cTG6CbXXSqpAJOtEc7HND"/><path d="M1100.422 75.035c41.47-11.946 43.262-27.1 40.766-36.41-5.15-19.208-34.947-15.032-47.34-10.815-19.643 6.684-23.023 19.68-20.374 26.316 4.057 10.162 15.893 16.956 42.34 9z" fill="#DE5D4A" id="rFeXc0dJhsLP8it-IBWyT"/><path d="M1095.57 68.081c-15.33.001-21.227-7.73-23.49-13.399-1.439-3.604-1.142-8.11.815-12.361 2.233-4.85 7.597-11.551 20.468-15.931 5.131-1.746 13.664-3.619 22.225-3.642h.004a1.5 1.5 0 0 1 .004 3c-8.198.022-16.361 1.813-21.266 3.482-11.864 4.037-16.723 10.03-18.71 14.346-1.591 3.456-1.873 7.192-.754 9.994 4.735 11.861 18.745 14.668 40.514 8.12a1.501 1.501 0 0 1 .865 2.873c-8.314 2.5-15.116 3.517-20.675 3.518z" fill="#003029" id="vxEN8B98h0k_O2HM7LWXM"/><path d="M1108.42 105.912c41.47-11.946 43.262-27.1 40.766-36.41-5.15-19.208-34.947-15.032-47.34-10.815-19.643 6.684-23.023 19.68-20.374 26.316 4.057 10.162 15.893 16.956 42.34 9z" fill="#DE5D4A" id="zxGhpFEc4aHdjBI6d0agL"/><path d="M1103.568 98.957c-15.33.001-21.227-7.73-23.49-13.399-1.439-3.604-1.142-8.11.815-12.361 2.233-4.85 7.597-11.551 20.468-15.931 8.817-3 28.684-6.743 40.772.565a1.5 1.5 0 1 1-1.552 2.568c-10.336-6.249-28.541-3.599-38.254-.293-11.864 4.037-16.723 10.03-18.71 14.346-1.591 3.456-1.873 7.192-.754 9.994 4.734 11.861 18.744 14.668 40.514 8.12a1.5 1.5 0 0 1 .865 2.873c-8.313 2.501-15.115 3.518-20.674 3.518z" fill="#003029" id="p9hEgNAhY3WYSV2lec9af"/><path d="M1112.944 137.889c41.47-11.946 43.262-27.1 40.766-36.41-5.15-19.208-34.947-15.032-47.34-10.815-19.643 6.684-23.023 19.68-20.374 26.316 4.057 10.162 15.893 16.956 42.34 9z" fill="#DE5D4A" id="KS5-7YUuUp72Su7NR1L5d"/><path d="M1108.093 130.934c-15.33.001-21.227-7.73-23.49-13.399-1.439-3.604-1.142-8.109.815-12.361 2.233-4.85 7.597-11.551 20.468-15.931 8.547-2.909 33.217-7.941 44.583 3.544a1.5 1.5 0 1 1-2.132 2.11c-9.132-9.227-30.292-6.623-41.485-2.815-11.864 4.037-16.723 10.03-18.71 14.346-1.591 3.456-1.873 7.192-.754 9.994 4.735 11.861 18.745 14.668 40.514 8.12a1.501 1.501 0 0 1 .865 2.873c-8.314 2.502-15.116 3.519-20.674 3.519z" fill="#003029" id="YR9lGN1avx7j7j2nc2RE0"/><path d="M1131.784 162.874c25.801-10.782 28.498-23.612 26.376-31.524-5.15-19.208-34.947-15.032-47.34-10.815-19.643 6.684-23.023 19.68-20.374 26.316 4.057 10.162 15.893 16.956 42.34 9 0 0-2.34 1.262-2.751 2.453.599 1.81 1.251 3.147 1.749 4.57z" fill="#DE5D4A" id="W_RTS2oX4-PedBg_U_1l0"/><path d="M1112.542 160.805c-15.33.001-21.227-7.73-23.49-13.399-1.439-3.605-1.142-8.11.816-12.362 2.233-4.85 7.597-11.551 20.468-15.93 11.804-4.017 33.183-6.609 43.703 2.712a1.501 1.501 0 0 1-1.989 2.246c-9.495-8.414-30.033-5.764-40.747-2.118-11.864 4.037-16.723 10.029-18.71 14.345-1.591 3.456-1.874 7.192-.755 9.995 4.735 11.861 18.745 14.668 40.515 8.12a1.501 1.501 0 0 1 .865 2.873c-8.315 2.501-15.117 3.518-20.676 3.518z" fill="#003029" id="WUm72gclQpAUOB-bU43X"/></g></g><g transform="translate(1052.0 432.0) rotate(0.0 546.0 351.0) scale(2.002174522879244 2.0043971104702623)" id="uVw4Ay7v6Y1q5ArSx8_7C"><g clip-path="url(#clipPath_F_XFHJ7r)" transform="matrix(1 0 0 1 0 0)" id="BAMQxxs_8wZ_uWQzCoILT"><path d="M1.501 350.231a1.5 1.5 0 0 1-.81-2.763L543.098.237a1.5 1.5 0 1 1 1.617 2.527L2.309 349.993a1.492 1.492 0 0 1-.808.238z" fill="#003029" id="LLpOPXiQOBHWp_ejt4GDa"/></g></g><g transform="translate(998.0 804.0) rotate(0.0 270.0 242.0) scale(2.0013861452190964 2.0002479646237137)" id="llFxqYKNPRRvKIpaWKGZY"><g clip-path="url(#clipPath_E8YABsDs)" transform="matrix(1 0 0 1 0 0)" id="rsNFX_8xT-XYIiuKCVIP_"><path d="M1.499 115.024 194.54 1.506l73.77 125.448L75.27 240.473z" fill="#FFFFFF" id="CjQrE3oq0tMcRitKzI0G"/><g fill="#003029" id="WLMoA9ebvavYUlg4rcyV3"><path d="M75.273 241.97a1.498 1.498 0 0 1-1.293-.74L.207 115.783a1.5 1.5 0 0 1 .533-2.053L193.779.207a1.498 1.498 0 0 1 2.053.533l73.773 125.447a1.5 1.5 0 0 1-.532 2.053L76.034 241.763a1.5 1.5 0 0 1-.761.207zM3.554 115.556l72.252 122.861 190.453-112.002L194.007 3.553z" fill="#003029" id="aV7SZainL8VzTb_35P6ZJ"/><path d="M157.867 160.943c-.072 0-.145-.005-.219-.016L15.128 140.05a1.5 1.5 0 0 1 .434-2.969L156.87 157.78l48.884-135.32a1.499 1.499 0 1 1 2.821 1.019l-49.3 136.472a1.497 1.497 0 0 1-1.408.992z" fill="#003029" id="wluJOcroTlVYdh7dvCqLY"/></g></g></g><g transform="translate(1106.0 342.0) rotate(0.0 641.0 383.0) scale(2.0006491966191837 2.004600636971012)" id="ubUpqLwzkAZGT1xhdVTBA"><g clip-path="url(#clipPath_dvZczWYs)" transform="matrix(1 0 0 1 0 0)" id="uNBjZ7w_hAmMK2zdhNuDT"><path d="M1.501 382.122a1.5 1.5 0 0 1-.768-2.79L638.525.211a1.5 1.5 0 1 1 1.533 2.579L2.267 381.911a1.506 1.506 0 0 1-.766.211z" fill="#003029" id="GYq7g2FFX9f7cgdXVPp9c"/></g></g><g transform="translate(1072.0 1052.0) rotate(0.0 46.0 46.0) scale(2.0314432079137963 2.0314432079137963)" id="dJrYG4wEiybjy27SI3Fkf"><g clip-path="url(#clipPath_f681svSL)" transform="matrix(1 0 0 1 0 0)" id="K8b4mJKWoKvyRk1jiH0J"><path d="M38.358 36.999 27.219 43.43c-6.628 3.827-15.103 1.556-18.929-5.072L1.859 27.219C-1.968 20.591.303 12.116 6.931 8.29L18.07 1.859C24.698-1.968 33.173.303 36.999 6.931L43.43 18.07c3.826 6.627 1.555 15.102-5.072 18.929z" fill="#FFBBA0" id="uw8NYvqzoF3P5STGa5IVD"/></g></g><g transform="translate(2122.0 322.0) rotate(0.0 210.0 348.0) scale(2.0014772808501515 2.001386017328092)" id="yVK7wpHSIpyecgyGDxpx"><g clip-path="url(#clipPath_uoNqO-RD)" transform="matrix(1 0 0 1 0 0)" id="oVOYVgV82_CifRyqaXtwY"><path d="M181.098 103.602C177.599 82.258 162.887 30.311 154.056 0l-30.274 11.588c7.619 24.831 20.381 67.365 23.847 84.72 4.621 23.143-3.939 45.991-23.475 56.521-21.646 5.234-43.693-5.899-55.205-26.403-7.829-13.945-27.39-55.078-38.675-79.045L0 58.97c14.172 28.92 38.332 80.466 48.836 95.259 18.101 25.49 51.163 38.652 85.574 25.481 34.411-13.172 51.772-45.097 46.688-76.108z" fill="#003029" id="GeNGQ9UvV3EmSagcFwPm4"/><path d="M198.345 346.572c9.228-3.532 13.845-13.876 10.312-23.103L141.03 146.796l-33.416 12.791 67.627 176.673c3.533 9.227 13.877 13.844 23.104 10.312z" fill="#003029" id="K0LUEsO8zTfu422_UTgA8"/><g fill="#FFFFFF" id="Kwvtj1naBms2pAYE5WTq8"><path d="M102.088 159.978c-6.257 0-12.516-1.267-18.592-3.797-11.189-4.66-20.834-13.43-27.157-24.694-7.884-14.042-27.646-55.611-38.724-79.14a1.5 1.5 0 0 1 2.714-1.278c11.061 23.492 30.787 64.988 38.625 78.949 12.677 22.579 37.003 32.425 59.16 23.945a1.5 1.5 0 1 1 1.072 2.802c-5.598 2.142-11.347 3.213-17.098 3.213zm66.841-69.495a1.5 1.5 0 0 1-1.469-1.207c-3.472-17.39-16.408-60.452-23.81-84.574a1.5 1.5 0 1 1 2.868-.88c7.418 24.175 20.385 67.348 23.884 84.866a1.5 1.5 0 0 1-1.473 1.795z" fill="#FFFFFF" id="OTJ-xaW8MN9yDlMrW6wD7"/></g></g></g><g transform="translate(2590.0 620.0) rotate(-10.036841107925447 -139.0 169.0) scale(-2.002650991240203 1.9962319645166817)" id="w6mfFa3zZX76Fn_nJ0aBj"><g clip-path="url(#clipPath_L8JBNHhA)" transform="matrix(1 0 0 1 0 0)" id="Xjx7PHa9QzuiZ1ZUKG"><path d="M132.798 53.684C114.632 36.721 87.084 12.896 66.116 2.563S31.071 15.209 49.887 34.664s37.42 35.559 39.945 37.718c.775.663-9.375 21.989 13.804 41.185 14.702 12.176 48.992-41.366 29.162-59.883z" fill="#DE5D4A" id="VscE9pdFOgEI9JWPpCxA"/><path d="M103.634 115.067c-.247 0-.498-.061-.73-.19-6.991-3.903-12.273-11.232-14.872-20.636-2.211-8.001-2.201-16.555-.062-21.483-4.12-3.566-21.534-18.825-39.161-37.051a1.5 1.5 0 0 1 2.156-2.086c19.651 20.319 39.026 36.923 39.842 37.62a1.5 1.5 0 0 1 .325 1.889c-1.907 3.311-2.627 11.556-.208 20.312 2.383 8.625 7.157 15.307 13.443 18.815a1.501 1.501 0 0 1-.733 2.81z" fill="#003029" id="vs-OePiFTtUSVBMB0Kkox"/><path d="M49.042 77.278C6.101 72.97 1.619 58.383 2.403 48.776c1.618-19.82 31.681-21.061 44.63-19.137C67.557 32.689 73.215 44.866 71.8 51.87c-2.167 10.725-12.591 19.533-40.036 16.454z" fill="#DE5D4A" id="gZluGIPh9m3xALqag0qNw"/><path d="M41.713 70.407c-3.637 0-7.11-.254-10.116-.592a1.5 1.5 0 1 1 .335-2.981c22.594 2.535 35.87-2.742 38.399-15.26.597-2.958-.351-6.582-2.536-9.696-2.73-3.889-8.585-8.912-20.981-10.754-5.125-.762-13.476-1.059-21.546.391a1.501 1.501 0 0 1-.531-2.953c8.428-1.514 17.158-1.203 22.518-.406 13.449 1.999 19.928 7.628 22.996 11.998 2.688 3.831 3.79 8.21 3.021 12.014-3.01 14.889-18.362 18.239-31.559 18.239z" fill="#003029" id="hW47d3Y40j8DYRoLcZcyC"/><path d="M46.716 109.089C3.775 104.781-.707 90.194.077 80.587c1.618-19.82 31.681-21.061 44.63-19.137 20.524 3.05 26.182 15.227 24.767 22.231-2.167 10.725-12.591 19.533-40.036 16.454z" fill="#DE5D4A" id="MDZHb0UWq4jhHGGyFtipH"/><path d="M39.387 102.218c-3.637 0-7.11-.254-10.117-.592a1.5 1.5 0 1 1 .335-2.981c22.592 2.535 35.87-2.742 38.399-15.26.597-2.958-.351-6.582-2.536-9.697-2.73-3.889-8.586-8.912-20.981-10.754-10.15-1.508-28.534-.848-37.58 7.154a1.499 1.499 0 1 1-1.987-2.247c4.508-3.988 11.494-6.718 20.203-7.894 6.454-.872 13.858-.864 19.806.019 13.449 1.999 19.928 7.628 22.995 11.998 2.689 3.831 3.79 8.21 3.021 12.014-3.009 14.89-18.361 18.24-31.558 18.24z" fill="#003029" id="hOX442QSwKmZeu20wZx9"/><path d="M48.005 141.359C5.064 137.051.582 122.465 1.366 112.857c1.618-19.82 31.681-21.061 44.63-19.137 20.524 3.05 26.182 15.227 24.767 22.231-2.167 10.725-12.591 19.533-40.036 16.454z" fill="#DE5D4A" id="ndpzNEdBH1IxZf3D1OSZY"/><path d="M40.676 134.488c-3.637 0-7.11-.254-10.117-.592a1.5 1.5 0 1 1 .335-2.981c22.593 2.534 35.87-2.742 38.399-15.26.597-2.958-.351-6.582-2.536-9.697-2.73-3.889-8.586-8.912-20.981-10.754-11.696-1.738-32.979-.501-40.306 10.215a1.5 1.5 0 0 1-2.477-1.693c9.121-13.34 34.294-12.817 43.223-11.49 13.449 1.999 19.928 7.628 22.995 11.998 2.689 3.831 3.79 8.21 3.021 12.014-3.007 14.889-18.359 18.239-31.556 18.24z" fill="#003029" id="b91g1SQet8HK1LTyKHGRt"/><path d="M33.957 169.319C6.64 163.344 1.683 151.206 2.35 143.041c1.618-19.82 31.681-21.061 44.63-19.137 20.524 3.05 26.182 15.227 24.767 22.231-2.167 10.725-12.591 19.533-40.036 16.454 0 0 2.528.821 3.147 1.919-.266 1.89-.667 3.322-.901 4.811z" fill="#DE5D4A" id="U_polbGLWc7oY23YUXFdt"/><path d="M41.66 164.672c-3.637 0-7.11-.254-10.117-.592a1.5 1.5 0 1 1 .335-2.981c22.593 2.535 35.87-2.742 38.399-15.26.597-2.958-.351-6.582-2.536-9.696-2.73-3.889-8.585-8.912-20.981-10.754-11.197-1.664-31.875-.584-39.705 9.397a1.5 1.5 0 1 1-2.36-1.852c8.676-11.058 30.175-12.345 42.507-10.513 13.449 1.999 19.928 7.628 22.996 11.998 2.688 3.831 3.79 8.21 3.021 12.014-3.01 14.889-18.361 18.239-31.559 18.239z" fill="#003029" id="DulRr8Mp17Q39c2T3g3In"/></g></g><g transform="translate(956.0 1050.0) rotate(0.0 89.0 158.0) scale(1.9898272874629703 1.99773674128677)" id="QCd2vNIolAy_VsQI8tnxW"><g clip-path="url(#clipPath_b-p2w3R8)" transform="matrix(1 0 0 1 0 0)" id="lTNq9oTCUxF24EndihDPI"><g id="M1IZVmZeFANPmglkPC22L"><g id="l3O37RjHsWtwpzR3qg5Pg"><g id="H3FSp64zZzY_1Duv4Hwb"><path d="M10.135 58.642s10.428-5.718 17.153-10.461c-12.572 27.343 16.951 44.204 42.406 9.235C98.41 17.968 57.517-22.945 2.465 15.242c-5.818 15.224-.559 29.446 7.67 43.4z" fill="#DE5D4A" id="fIxOu1J3buzROtbfAzrX-"/></g><g id="N0nvUSFYozqqKYBHgDs2k"><path d="M19.858 87.557s10.428-5.718 17.153-10.461c-12.572 27.343 16.951 44.204 42.406 9.235C108.133 46.883 67.24 5.97 12.188 44.157c-5.818 15.224-.559 29.446 7.67 43.4z" fill="#DE5D4A" id="omLuetnYOiNcC-i2-o-OD"/><path d="M12.19 45.657a1.501 1.501 0 0 1-.857-2.733c29.91-20.748 54.116-17.728 66.796-7.983a1.5 1.5 0 1 1-1.829 2.378c-11.84-9.099-34.676-11.757-63.258 8.07-.26.182-.557.268-.852.268z" fill="#003029" id="IgJA5zPb-lrOWwz2XrHWT"/></g><g id="Xz22cunMTSg6dm1DNwEIX"><path d="M24.195 114.79s9.862-5.408 16.223-9.894c-11.89 25.86 16.031 41.807 40.106 8.734 27.158-37.309-11.517-76.002-63.583-39.886-5.503 14.398-.53 27.849 7.254 41.046z" fill="#DE5D4A" id="p0OjTsxUGSFotF3bYOodn"/><path d="M85.757 76.026a1.5 1.5 0 0 1-1.306-.76c-3.846-6.774-10.604-11.561-19.028-13.48-13.893-3.164-30.805 1.521-47.628 13.191a1.5 1.5 0 1 1-1.71-2.466C33.611 60.356 51.37 55.508 66.09 58.861c9.256 2.108 16.703 7.408 20.97 14.924a1.5 1.5 0 0 1-1.303 2.241z" fill="#003029" id="C-QJZUYHnaJxPOxe5XNOa"/></g><path d="M22.715 105.722c26.623-18.467 47.378-16.103 57.43-3.553 11.206 13.991 6.281 33.325-.431 43.878-10.321 16.227-32.314 18.606-34.038-7.998-3.161.06-4.986.308-10.95.708-6.767-10.898-11.068-21.897-12.011-33.035z" fill="#DE5D4A" id="qybkLZV7ZckM1eHBJ0P3z"/><path d="M46.24 144.273a1.5 1.5 0 0 1-1.474-1.233c-.514-2.837-.746-6.018-.689-9.454.014-.828.707-1.506 1.525-1.475a1.5 1.5 0 0 1 1.475 1.525c-.054 3.24.161 6.224.641 8.869a1.5 1.5 0 0 1-1.478 1.768zm37.38-35.134a1.499 1.499 0 0 1-1.348-.841 28.015 28.015 0 0 0-3.298-5.192c-8.608-10.748-27.684-15.381-55.404 3.847a1.5 1.5 0 0 1-1.71-2.464c29.417-20.406 50.002-15.062 59.456-3.258a31.082 31.082 0 0 1 3.65 5.748 1.5 1.5 0 0 1-1.346 2.16z" fill="#003029" id="NDkh_a5WwoDWA7M4Q87LP"/></g></g></g></g></g></g></svg>