<svg xmlns="http://www.w3.org/2000/svg" fill="none" viewBox="15.22 34.98 623.4 457.27"><defs><clipPath id="assetClipPath_-IkOpQN9"><path d="m0 0 h 456.961 v 466.849 h -456.961 v -466.849 z" id="path_JquVbgBI" fill="#ffffff"/></clipPath><clipPath id="assetClipPath_-7Y3GSDt"><path d="m0 0 h 3000 v 2571 h -3000 v -2571 z" id="path_nXJg7OK-" fill="#ffffff"/></clipPath><clipPath id="clipPath_ZTn7DU_S"><path d="m0 0 h 590.86 v 749.461 h -590.86 v -749.461 z" id="path_9bDBDFTK"/></clipPath><clipPath id="clipPath_-D0hPVEL"><path d="m0 0 h 841.569 v 1366.129 h -841.569 v -1366.129 z" id="path_5qAS1tc8"/></clipPath><clipPath id="clipPath_2Fol7-QB"><path d="m0 0 h 624.929 v 444.569 h -624.929 v -444.569 z" id="path_rXNNptv2"/></clipPath><clipPath id="clipPath_2WtusjcA"><path d="m0 0 h 1189.529 v 600.811 h -1189.529 v -600.811 z" id="path_2how9aNe"/></clipPath><clipPath id="clipPath_i85fWpZR"><path d="m0 0 h 427.669 v 154.89 h -427.669 v -154.89 z" id="path_V6xbgGMR"/></clipPath><clipPath id="clipPath_kMYMSgwU"><path d="m0 0 h 366.62 v 313.539 h -366.62 v -313.539 z" id="path_hfoucrFs"/></clipPath><clipPath id="clipPath_Ec1Qd_mp"><path d="m0 0 h 1149.188 v 1068.942 h -1149.188 v -1068.942 z" id="path_Rcyj70P1"/></clipPath><clipPath id="clipPath_YJRbCDfv"><path d="m0 0 h 164.248 v 240.087 h -164.248 v -240.087 z" id="path_3OyV9S4P"/></clipPath><clipPath id="clipPath_YEre7B-M"><path d="m0 0 h 159.026 v 201.226 h -159.026 v -201.226 z" id="path_2UdFo933"/></clipPath><clipPath id="clipPath_vZUBKPul"><path d="m0 0 h 74.064 v 144.17 h -74.064 v -144.17 z" id="path_E_0iSGaf"/></clipPath><clipPath id="clipPath_oZ9dV2rR"><path d="m0 0 h 305.517 v 492.842 h -305.517 v -492.842 z" id="path_yKlNAlcl"/></clipPath></defs><g transform="translate(66 35)" data-asset-index="0"><g clip-path="url(#assetClipPath_-IkOpQN9)" transform="scale(0.48581826457837757 0.48581826457837757)" data-asset-index="0"><path d="m168.55 466.849c-.102 0-.206-.01-.31-.032-.696-.146-1.194-.762-1.191-1.473l.62-168.025-162.298 43.494c-.688.184-1.409-.14-1.729-.775-.319-.636-.148-1.408.409-1.85l131.754-104.277-135.196-99.773c-.573-.422-.769-1.189-.472-1.835.298-.646 1.01-.994 1.701-.833l163.674 37.994-6.287-167.908c-.027-.711.45-1.343 1.141-1.513.69-.17 1.406.168 1.712.811l72.344 151.654 127.355-109.606c.539-.464 1.331-.485 1.894-.051.564.434.745 1.204.434 1.844l-73.462 151.116 165.098 31.232c.699.132 1.209.737 1.221 1.448s-.477 1.333-1.171 1.489l-163.95 36.784 78.519 148.552c.333.629.177 1.405-.371 1.858-.549.453-1.34.458-1.895.013l-130.98-105.247-67.187 154.009c-.242.555-.788.9-1.374.9zm.627-172.987c.328 0 .65.107.915.312.37.285.586.727.585 1.194l-.601 162.73 65.07-149.156c.187-.428.563-.745 1.017-.857.453-.112.934-.006 1.298.287l126.854 101.931-76.045-143.871c-.218-.413-.232-.904-.036-1.329.196-.424.578-.733 1.034-.836l158.784-35.625-159.896-30.248c-.459-.087-.852-.383-1.062-.8-.21-.418-.213-.909-.009-1.329l71.148-146.355-123.342 106.152c-.354.305-.83.427-1.288.331-.457-.096-.844-.4-1.045-.822l-70.064-146.876 6.091 162.618c.017.467-.184.915-.544 1.213-.361.298-.838.41-1.294.304l-158.518-36.796 130.937 96.629c.376.277.601.714.609 1.182.008.467-.202.911-.569 1.201l-127.602 100.991 157.185-42.124c.128-.034.258-.051.388-.051z" fill="#5FB3ED" id="keN6sKEIY0Wjhwu9ng-KY"/></g></g><g transform="" data-asset-index="1"><g clip-path="url(#assetClipPath_-7Y3GSDt)" transform="scale(0.21766666666666667 0.21766666666666667)" data-asset-index="1"><defs/><g transform="translate(70.0 1190.0) rotate(0.0 421.42857142857144 535.0) scale(1.4264921349509916 1.4276927018217092)" id="aAy1rsXN7idjEr5sjKIyC"><g clip-path="url(#clipPath_ZTn7DU_S)" transform="matrix(1 0 0 1 0 0)" id="p3sQJmXkRYV437Afqqa4P"><path d="M535.862 732.847a7.002 7.002 0 0 1-6.859-5.641c-8.43-42.561-39.688-76.029-81.574-87.345l-88.655-23.951a7 7 0 0 1 3.651-13.515l88.655 23.951a127.177 127.177 0 0 1 59.824 35.999 127.173 127.173 0 0 1 31.832 62.141 7 7 0 0 1-6.875 8.362z" fill="#003029" id="BHSFC-PMEIgHmNqHHJW6R"/><path d="M185.339 732.847a7.001 7.001 0 0 1-6.875-8.362 127.173 127.173 0 0 1 31.832-62.141 127.173 127.173 0 0 1 59.824-35.999l88.655-23.951a7 7 0 0 1 3.651 13.515l-88.655 23.951c-41.886 11.316-73.143 44.785-81.574 87.345a7.002 7.002 0 0 1-6.859 5.641z" fill="#003029" id="y58fkBNBCTJdl_8y7I5p"/><path d="M360.6 616.152a7 7 0 0 1-7-7V436.98a7 7 0 1 1 14 0v172.172a7 7 0 0 1-7 7z" fill="#003029" id="Y_GnpITZw8wXllOsmFLq4"/><path d="M346.43 409.664h28.34v128.525a2.418 2.418 0 0 1-2.417 2.417h-23.506a2.418 2.418 0 0 1-2.417-2.417z" fill="#FEFEFE" id="ckHr5ImevnExX1yCmD08g"/><path d="M226.43 1.5H47.923C15.724 1.5-6.679 33.504 4.342 63.758L133.59 418.566a33.692 33.692 0 0 0 31.657 22.16h253.651L270.011 32.007C263.339 13.69 245.925 1.5 226.43 1.5z" fill="#FEFEFE" id="G-woCzlAg5SRdEOokNlV7"/><path d="M372.353 542.106h-23.506a3.921 3.921 0 0 1-3.917-3.917V409.664a1.5 1.5 0 0 1 1.5-1.5h28.341a1.5 1.5 0 0 1 1.5 1.5v128.525a3.921 3.921 0 0 1-3.917 3.917zM347.93 411.164v127.025c0 .506.412.917.917.917h23.506a.918.918 0 0 0 .917-.917V411.164h-25.341z" fill="#003029" id="BbhoGDhLRD6cL5Bd_42Z6"/><path d="M276.43 1.5H97.923c-32.199 0-54.602 32.004-43.581 62.258l137.321 376.968h277.235L320.011 32.007C313.339 13.69 295.925 1.5 276.43 1.5z" fill="#FEFEFE" id="sSmVMzb3wH7Tm8K8d8Wr-"/><rect fill="#FEFEFE" height="62.124" rx="31.062" width="456.76" x="132.601" y="378.601" id="RNPiU5Dn8DrZzE7ZreQSA"/><path d="M169.032 380.102a1.499 1.499 0 0 1-1.409-.987l-20.866-57.282a1.5 1.5 0 0 1 2.819-1.026l20.866 57.282a1.5 1.5 0 0 1-1.409 2.013zm-26.026-71.166a1.5 1.5 0 0 1-1.41-.987l-7.729-21.218a1.5 1.5 0 0 1 2.819-1.026l7.729 21.218a1.5 1.5 0 0 1-1.409 2.013zM99.553 189.371a1.499 1.499 0 0 1-1.409-.987L52.932 64.271c-5.423-14.886-3.322-30.868 5.764-43.848S82.079 0 97.923 0a1.5 1.5 0 1 1 0 3C83.072 3 69.67 9.978 61.154 22.144S50.668 49.29 55.751 63.245l45.211 124.112a1.5 1.5 0 0 1-1.409 2.013z" fill="#003029" id="GbMkifvPVtJ4xf6r6ApKQ"/><path d="M156.045 407.24a1.5 1.5 0 0 1-1.352-2.147l12.987-27.138a1.5 1.5 0 0 1 1.353-.853h292.464a1.5 1.5 0 1 1 0 3h-291.52l-12.579 26.285a1.5 1.5 0 0 1-1.354.853z" fill="#003029" id="cn4f0mzaI6evw9dHsgQx"/><path d="M374.771 609.045c0 15.605-28.34 15.605-28.34 0v-27.349a2.417 2.417 0 0 1 2.417-2.417h23.506a2.417 2.417 0 0 1 2.417 2.417z" fill="#FEFEFE" id="c0aXMaG4heOKQpmRb9ljj"/><circle cx="185.332" cy="722.182" fill="#FEFEFE" r="25.779" id="D3Zo5Iz5Q7lowCQbhJJTW"/><circle cx="535.793" cy="721.998" fill="#FEFEFE" r="25.779" id="YSFNZSBTwqbrSOR5adA3d"/><g fill="#003029" id="a2qIApE92x4sRPa7Z8AqD"><path d="M405.703 442.226h-72.529a1.5 1.5 0 1 1 0-3h72.529a1.5 1.5 0 1 1 0 3z" fill="#003029" id="nSNMMqwE5dbVMJ-Waqgxx"/><path d="M558.298 442.226H163.663c-12.464 0-23.649-6.946-29.189-18.128a34.972 34.972 0 0 1-2.293-5.019L2.932 64.272C-2.49 49.385-.39 33.403 8.696 20.423 17.782 7.444 32.079 0 47.923 0h228.508c20.048 0 38.128 12.656 44.99 31.494l125.897 345.608h110.98c17.955 0 32.562 14.607 32.562 32.562s-14.607 32.563-32.562 32.563zM47.923 3C33.072 3 19.67 9.978 11.154 22.144 2.638 34.31.668 49.291 5.751 63.245L135 418.052a32.403 32.403 0 0 0 2.129 4.65c5.064 10.217 15.218 16.524 26.534 16.524h394.635c16.301 0 29.562-13.262 29.562-29.563s-13.262-29.562-29.562-29.562h-112.03c-.63 0-1.194-.394-1.409-.987L318.602 32.52C312.17 14.863 295.222 3 276.43 3H47.923zM360.6 622.249c-7.787 0-15.67-4.535-15.67-13.204v-27.349a3.921 3.921 0 0 1 3.917-3.917h23.506a3.921 3.921 0 0 1 3.917 3.917v27.349c0 8.668-7.883 13.204-15.67 13.204zm-11.753-41.47a.918.918 0 0 0-.917.917v27.349c0 7.011 6.568 10.204 12.67 10.204s12.67-3.193 12.67-10.204v-27.349a.918.918 0 0 0-.917-.917zM185.332 749.461c-15.042 0-27.279-12.237-27.279-27.279s12.238-27.279 27.279-27.279 27.28 12.237 27.28 27.279-12.238 27.279-27.28 27.279zm0-51.559c-13.388 0-24.279 10.892-24.279 24.279s10.892 24.279 24.279 24.279 24.28-10.892 24.28-24.279-10.892-24.279-24.28-24.279zm350.461 51.375c-15.042 0-27.279-12.237-27.279-27.279s12.238-27.28 27.279-27.28 27.28 12.238 27.28 27.28-12.238 27.279-27.28 27.279zm0-51.559c-13.388 0-24.279 10.892-24.279 24.28s10.892 24.279 24.279 24.279 24.28-10.892 24.28-24.279-10.892-24.28-24.28-24.28z" fill="#003029" id="eJCD0g_A0N9lWXsnrTQfA"/></g></g></g><g transform="translate(1668.5714285714287 311.42857142857144) rotate(0.0 600.7142857142857 974.2857142857142) scale(1.4276055456279537 1.4263451171678725)" id="NiiJM6wQdXfPnVTSK3Ksr"><g clip-path="url(#clipPath_-D0hPVEL)" transform="matrix(1 0 0 1 0 0)" id="wkYNZ_UjRoxZKHD_Ml8"><path d="M515.096 162.083c-35.872 4.149-194.847 109.851-194.847 109.851 10.281-45.206 16.222-87.587 15.472-125.617 55.547-102.243 115.459-93.929 179.375 15.766z" fill="#E4634F" id="Dofh8xzUTykMJaniZ7a-M"/><path d="M242.697 715.668c-5.38-60.736-94.466-33.893-141.238 9.292 0 0 14.803 42.336 58.028 42.336 55.15 0 72.114-23.005 83.21-51.628z" fill="#FF8E77" id="q10RnmEyUInGk9_boHzB"/><path d="M120.955 766.355s-91.503 1.818-103.826-1.031c-23.905-5.527-22.575-29.675 2.645-36.001 14.061-3.527 80.393-8.42 80.393-8.42 32.137-.474 45.598 40.135 20.788 45.452z" fill="#FF8E77" id="cVZKt16o08n_XpE8MyrHS"/><path d="M134.955 766.355s-91.503 1.818-103.826-1.031c-23.905-5.527-22.575-29.675 2.645-36.001 14.061-3.527 80.393-8.42 80.393-8.42 32.137-.474 45.598 40.135 20.788 45.452z" fill="#FF8E77" id="toRgV3Ucxlh77OkX1X4oB"/><path d="M191.791 723.534c-24.853.307-61.228 2.142-83.521 9.176-22.293 7.033-16.573 33.368 10.472 34.412 27.044 1.044 51.621-.185 54.937-.371 18.634-1.046 46.809-43.57 18.112-43.216z" fill="#FF8E77" id="ybUZTQ3i_hinfheO7RgPr"/><path d="m118.743 768.622-.059-.001c-16.323-.63-24.706-8.926-25.773-16.867-.82-6.103 2.574-13.971 14.558-17.752 12.09-3.814 25.969-4.596 43.09-4.596a1.5 1.5 0 0 1 0 3c-16.843 0-30.463.758-42.187 4.457-8.541 2.695-13.326 8.248-12.487 14.491.87 6.48 8.412 13.708 22.915 14.269a1.5 1.5 0 0 1-.057 2.999zm-87.612-1.798c-.112 0-.225-.012-.339-.039-11.202-2.59-18.211-9.529-18.291-18.11-.088-9.432 8.119-17.6 20.908-20.808 3.716-.932 11.314-2.036 22.582-3.281a1.5 1.5 0 0 1 .33 2.982c-11.134 1.23-18.597 2.309-22.181 3.208-11.397 2.859-18.713 9.874-18.638 17.87.066 7.123 6.184 12.953 15.967 15.215a1.5 1.5 0 0 1-.336 2.961z" fill="#003029" id="PERkxqw-P4mjVdisbr5qp"/><path d="M247.14 335.311c19.191-56.772 84.897-100.28 134.976-124.958 33.681-16.598 81.372-34.886 118.458-44.587 39.843-10.423 100.428-24.706 178.534 31.885l-91.999 95.952-236.49 92.855-103.479-51.146z" fill="#FEFEFE" id="Ztaiwr1QvmYSgn0ZJx5ok"/><path d="M592.017 291.032s17.617 32.826 22.596 43.422 25.668 29.89 25.668 29.89c11.845 28.97-216.094 98.328-248.369 87.522-11.907-26.31-40.827-90.852-42.332-99.503-.869-4.998-.342-15.943 1.861-31.006l169.982-61.468 70.594 31.142z" fill="#FEFEFE" id="JR6GwwPhdgaTJcfPqDfTT"/><path d="m408.522 1124.967 119.639-124.513c25.78 64.307 48.814 128.576 68.705 192.799 42.538 45.353 27.254 68.698-11.613 89.466-24.085 12.87-65.932 33.803-117.028 58.343-13.897 6.674-26.327 10.377-36.289 12.414-8.217 1.68-13.511-8.421-7.431-14.198l18.437-17.517 47.704-60.825-82.123-135.97z" fill="#FF8E77" id="NSsg5hhy-i_IZk_pM6NnK"/><path d="M437.549 388.967c99.998 22.977 165.927 99.686 127.66 227.487-34.393 112.298-71.234 202.467-105.327 282.734 48.431 56.005 69.516 98.691 84.788 143.437l-194.44 138.34c-19.915-50.043-30.128-72-60.255-154.723-51.186-140.543-59.547-164.884-11.413-285.605 17.676-44.332 104.071-216.438 104.071-216.438s5.693-33.935 9.703-70.895c4.061-37.429 1.697-74.335 45.213-64.336z" fill="#FE5236" id="yYX4Ox6NW3nqfqnBaRipK"/><path d="m629.527 1316.021-63.823 29.481-8.244-17.848c20.868-15.677 46.835-31.197 66.05-39.805z" fill="#E4634F" id="nZ4MjMjhsiSuJNkfSpi00"/><path d="M399.901 1357.704a27.887 27.887 0 0 1 15.876-29.452s11.187-5.257 16.402-7.583c4.767-2.126 11.225-5.186 15.506-10.74l23.473-32.071c11.746-1.947 23.873-1.546 36.315.794 2.46.463 3.529 3.398 1.98 5.364l-8.272 10.494 61.712 24.647-63.052 42.541z" fill="#FFBBA0" id="RgAFjlhJtwf_L4FmXVBX"/><path d="m624.557 1290.21-125.478 75.829-99.17.09c-5.646.005-5.654-8.42-.008-8.425l99.17-.09 122.945-75.437c5.518-1.745 8.059 6.288 2.541 8.033z" fill="#FFBBA0" id="BDL_TciBBk9KMNkNYLWy-"/><path d="M436.676 1331.084c-5.034 0-10.018-1.844-13.963-5.432a1.5 1.5 0 0 1 2.018-2.22c5.815 5.287 14.266 6.15 21.029 2.145l54.657-32.359a1.501 1.501 0 0 1 1.528 2.582l-54.657 32.359a20.796 20.796 0 0 1-10.612 2.925zm-.559 28.087a1.5 1.5 0 0 1-.001-3l62.954-.057h.001a1.5 1.5 0 0 1 .001 3l-62.954.057zm-36.216.033a1.5 1.5 0 0 1-.001-3l19.555-.018h.001a1.5 1.5 0 0 1 .001 3l-19.555.018zm180.658-40.873a1.5 1.5 0 0 1-.796-2.772c11.146-6.969 22.09-13.507 31.746-19.275 4.316-2.578 8.428-5.035 12.273-7.358a1.5 1.5 0 1 1 1.552 2.568c-3.849 2.326-7.966 4.785-12.287 7.366-9.644 5.76-20.574 12.29-31.694 19.243a1.488 1.488 0 0 1-.794.228zm-81.486-241.764a1.5 1.5 0 0 1-1.29-.732L421.148 947.25c-26.208-43.975-16.946-78.288 4.742-145.611 21.513-66.78 74.634-219.131 75.168-220.662a1.499 1.499 0 1 1 2.832.988c-.534 1.531-53.643 153.849-75.145 220.594-21.408 66.451-30.564 100.296-5.021 143.155l76.635 128.585a1.5 1.5 0 0 1-1.287 2.268z" fill="#003029" id="RtGeAA4aUpYzYeGoTw_7S"/><path d="m556.269 1119.688 164.913-51.191c-8.508 68.758-28.488 126.521-33.506 193.567 22.968 57.783.194 73.906-43.579 78.993-27.126 3.152-73.731 7.302-130.266 11.418-15.376 1.12-28.299.012-38.315-1.742-8.261-1.447-9.487-12.785-1.713-15.933l23.572-9.546 66.669-39.123-7.777-166.445z" fill="#FF8E77" id="w7GsR9hbNty_ZL5UT2BCg"/><path d="M564.044 1287.633a1.5 1.5 0 0 1-1.497-1.43l-7.777-166.445a1.499 1.499 0 1 1 2.996-.14l7.777 166.445a1.499 1.499 0 0 1-1.428 1.568l-.071.002z" fill="#003029" id="GYS071ScQwDmwVbfs6b3C"/><path d="M765.806 1135.935h-245.7c-.567-147.354-.855-371.766 9.865-548.927 0 0-38.897-178.743 135.243-207.235 49.147 49.727 61.908 78.017 73.563 160.856 12.944 92.002 27.03 595.306 27.03 595.306z" fill="#FE5236" id="a5XWXt4WKT3Edn5TNeoyz"/><path d="M462.793 1357.704a27.887 27.887 0 0 1 15.903-29.438l16.409-7.568a96.985 96.985 0 0 0 17.025-10.074l38.28-28.065c11.786 1.686 23.228 5.725 34.384 11.709 2.206 1.183 2.34 4.304.27 5.711l-11.051 7.511 48.501 37.651-59.784 16.649-99.936-4.085z" fill="#FFBBA0" id="Ip6d3JqwOxfd1VUrcVXUB"/><path d="M692.942 1340.597c-32.17 1.021-92.17 10.979-130.979 25.532h-99.17c-5.646 0-5.646-8.426 0-8.426h99.17c38.808-14.553 98.808-24.511 130.979-25.532 5.787 0 5.787 8.425 0 8.425z" fill="#FFBBA0" id="pgXmMaVS-KnAzaMaF0lCI"/><path d="M497.812 1335.623a28.9 28.9 0 0 1-18.697-6.854 1.5 1.5 0 0 1 1.94-2.288 25.911 25.911 0 0 0 25.807 4.507l66.626-24.904a1.5 1.5 0 1 1 1.05 2.81l-66.626 24.904a28.84 28.84 0 0 1-10.1 1.825z" fill="#003029" id="S8UbYNk97DJudstqgSTNU"/><path d="M686.303 1366.129H616v-19.66c25.519-5.481 55.6-8.682 76.654-8.439l-6.351 28.098z" fill="#FFBBA0" id="ee2STdo6qtYsRVY9fBnYX"/><path d="M516.516 1359.204h-53.723a1.5 1.5 0 0 1 0-3h53.723a1.5 1.5 0 0 1 0 3zm125.358-11.505a1.501 1.501 0 0 1-.242-2.981c19.399-3.191 37.604-5.187 51.262-5.62.826-.02 1.521.624 1.547 1.452s-.624 1.521-1.452 1.547c-13.531.429-31.597 2.412-50.871 5.582-.082.013-.164.02-.245.02z" fill="#003029" id="mTJc-erOlXqk2IjtusRPw"/><path d="M240.177 721.798c.871-2.248 12.669-31.741 15.938-40.173 10.674-6.678 32.999-21.942 38.707-36.056 34.645-85.667 97.09-245.243 97.09-245.243 9.927-77.86-112.266-80.266-144.772-65.015-17.603 47.357-144.418 386.487-144.418 386.487z" fill="#FEFEFE" id="S3a8zAKOTXmpf6FGgCTMc"/><path d="M240.177 723.298H102.722a1.502 1.502 0 0 1-1.405-2.025c1.268-3.391 127.016-339.67 144.417-386.484a1.5 1.5 0 1 1 2.812 1.046c-16.694 44.911-133.092 356.199-143.661 384.464h134.271c.639-1.614 1.94-4.88 3.544-8.905 3.927-9.857 9.862-24.753 12.017-30.31.117-.302.329-.558.603-.729 9.587-5.998 32.492-21.449 38.112-35.347 34.246-84.679 96.459-243.631 97.083-245.227a1.5 1.5 0 0 1 2.794 1.094c-.625 1.596-62.844 160.563-97.096 245.258-5.67 14.021-26.6 28.781-38.88 36.5-2.294 5.896-8.022 20.272-11.846 29.872-2.056 5.161-3.615 9.073-3.911 9.837-.224.577-.78.958-1.399.958zm307.743 635.906h-14.298a1.5 1.5 0 0 1 0-3h14.298a1.5 1.5 0 0 1 0 3z" fill="#003029" id="RZG9TkAe82zuQmPSXk9lp"/><path d="M391.912 451.866c-15.658-33.668-29.888-66.874-42.332-99.503l179.629-66.548c20.174 39.158 50.871 100.339 50.871 100.339l60.201-21.811c8.882 4.451 18.329 10.853 24.932 15.429 20.726 144.369-247.541 203.93-273.301 72.093z" fill="#FE5236" id="ngYJ7NcZI5pEv9mMmW2ja"/><path d="M705.805 1137.435a1.5 1.5 0 0 1-1.499-1.458c-.141-5.032-14.232-504.271-27.016-595.139-11.834-84.117-25.506-114.534-73.144-162.735a1.5 1.5 0 0 1 2.133-2.109c48.206 48.775 62.034 79.509 73.981 164.426 12.807 91.032 26.903 590.439 27.044 595.473a1.5 1.5 0 0 1-1.458 1.541h-.043zM247.14 336.811a1.5 1.5 0 0 1-1.421-1.981c20.799-61.529 93.969-105.243 135.734-125.823 35.266-17.378 82.985-35.339 118.742-44.692 37.225-9.738 99.527-26.035 179.794 32.121a1.5 1.5 0 1 1-1.761 2.429c-79.118-57.324-140.563-41.251-177.274-31.648-35.581 9.308-83.072 27.183-118.175 44.481-41.347 20.375-113.766 63.591-134.218 124.094a1.5 1.5 0 0 1-1.421 1.02z" fill="#003029" id="UJAS9NQRNVYcEKoQhU_ye"/><path d="M380.94 340.746c-16.585-32.638-36.337-74.087-38.924-109.87-.066-4.025-22.981 11.167-24.203 16.337-4.086 21.572 18.12 76.9 31.767 105.15l31.36-11.618zm116.38-43.116c-18.153-58.282-9.583-114.38.485-131.048 4.007-5.347 34.933-15.017 31.731-7.405-9.599 17.459-21.568 64.852-.326 126.639l-31.889 11.814z" fill="#FE5236" id="zJjKvdUXnhfAqJmrlou3j"/><path d="M701.167 624.785s46.066-10.703 64.447-53.944c5.477-12.885-108.234-65.582-108.234-65.582s-30.971 24.026-62.33 52.698z" fill="#FF8E77" id="vZrD6Qbco9_XaUoiGav5-"/><path d="M634.176 574.434s-7.599 8.573-13.491 13.876c28.369-5.967 37.899 25.366-.386 41.804-43.188 18.544-72.88-28.607-25.249-72.158 15.542-2.212 27.778 5.766 39.126 16.477z" fill="#FF8E77" id="s1Sl6R8iWigNGBQPOIpE4"/><path d="M659.258 589.745s-7.599 8.573-13.491 13.876c28.369-5.967 37.899 25.366-.386 41.804-43.188 18.544-72.88-28.607-25.249-72.158 15.542-2.212 27.778 5.766 39.126 16.477z" fill="#FF8E77" id="ySe4WTdpsAiB-mVLF6g1Y"/><path d="M598.7 634.132a1.5 1.5 0 0 1-1.364-.873c-6.451-14.01-4.117-37.417 21.783-61.099a1.5 1.5 0 1 1 2.024 2.214c-24.708 22.591-27.091 44.582-21.083 57.63a1.501 1.501 0 0 1-1.361 2.128z" fill="#003029" id="tGsagbeC7EcG00RoFk6jT"/><path d="M683.911 599.636s-7.187 8.108-12.759 13.124c26.83-5.643 35.843 23.99-.365 39.537-40.846 17.538-68.927-27.056-23.88-68.244 14.699-2.092 26.271 5.453 37.004 15.583z" fill="#FF8E77" id="uQfKYoIdxtIhRVLy20DcP"/><path d="M632.938 650.356c-.361 0-.723-.13-1.011-.392-6.159-5.625-9.552-13.767-9.555-22.926-.004-14.559 8.35-30.218 23.524-44.092a1.5 1.5 0 1 1 2.024 2.214c-14.544 13.299-22.552 28.171-22.548 41.877.002 8.307 3.049 15.663 8.578 20.712a1.5 1.5 0 0 1-1.012 2.608z" fill="#003029" id="DQZnQC1Mmk9yMGi-MfECp"/><path d="M675.709 596.309c-23.034 21.061-25.248 41.061-15.607 53.183 10.748 13.515 29.96 13.02 41.305 8.97 17.447-6.227 24.38-26.377-.24-33.68.732-2.957 1.355-4.617 3.005-10.134l-28.464-18.339z" fill="#FF8E77" id="VxrB6Wo49B-qmgmzvvv"/><path d="M705.484 627.824c-.196 0-.396-.039-.588-.121-2.376-1.014-5.13-1.853-8.183-2.494a1.5 1.5 0 0 1 .616-2.936c3.245.682 6.187 1.58 8.744 2.671a1.5 1.5 0 0 1-.589 2.88zm-40.987 27.6c-.331 0-.664-.109-.941-.333a29.98 29.98 0 0 1-4.627-4.665c-9.083-11.422-9.711-31.927 15.769-55.224a1.5 1.5 0 1 1 2.024 2.214c-23.956 21.904-23.686 40.781-15.445 51.143a26.966 26.966 0 0 0 4.163 4.198 1.499 1.499 0 0 1-.943 2.667z" fill="#003029" id="yF9lKMAQyceHdeEmrIHaX"/><path d="m646.634 513.802 45.919-107.815-154.221-122.863c-16.399-54.72 59.471-132.045 107.379-106.473 38.439 22.553 66.584 43.719 130.174 93.26 35.58 27.719 74.644 65.088 61.622 143.968-7.364 44.612-9.428 66.482-19.562 98.459-5.745 18.128-23.909 24.302-39.04 28.407-7.749 16.85-16.272 36.391-16.272 36.391l-115.998-63.334z" fill="#FEFEFE" id="mU5V3Fk6MbhDEI0VRALzK"/><g fill="#003029" id="CHD-wj7JECwk_WeBe8OTE"><path d="M692.552 407.487a1.5 1.5 0 0 1-1.354-2.143l17.623-37.191a1.5 1.5 0 1 1 2.711 1.285l-17.623 37.191a1.5 1.5 0 0 1-1.356.858z" fill="#003029" id="s5rgEavcMgpVhnlyHWmpy"/><path d="M762.632 578.636c-.249 0-.496-.062-.719-.184l-115.998-63.333a1.5 1.5 0 0 1-.661-1.905l45.472-106.765-125.493-99.977a1.5 1.5 0 0 1 1.869-2.347l126.386 100.688a1.5 1.5 0 0 1 .446 1.761l-45.385 106.563 113.367 61.897c2.148-4.904 9.193-20.925 15.628-34.917a1.5 1.5 0 0 1 .97-.821c14.988-4.066 32.852-10.855 38.001-27.404 7.945-25.536 10.996-44.819 15.616-74.007a3574.957 3574.957 0 0 1 3.898-24.25c12.817-77.644-24.8-114.288-61.064-142.541-61.448-47.872-102.411-78.456-129.957-93.119-5.837-3.107-15.721-6.91-15.821-6.948a1.5 1.5 0 0 1 1.075-2.801c.412.158 10.154 3.906 16.156 7.101 27.738 14.766 68.814 45.428 130.391 93.401 18.176 14.16 36.743 30.412 49.426 53.254 14.505 26.124 18.677 56.264 12.754 92.142a3582.452 3582.452 0 0 0-3.895 24.23c-4.64 29.318-7.705 48.686-15.714 74.429-5.502 17.686-23.817 24.933-39.402 29.223-7.577 16.501-15.884 35.536-15.968 35.729a1.5 1.5 0 0 1-1.375.9z" fill="#003029" id="I2uYxNsAXzPkjHim2GuHV"/><path d="M684.726 492.028c-.238 0-.48-.057-.705-.177l-22.965-12.245a1.5 1.5 0 1 1 1.411-2.647l22.965 12.245a1.5 1.5 0 0 1-.707 2.823zm94.178 50.217c-.238 0-.48-.057-.705-.177l-64.538-34.413a1.5 1.5 0 1 1 1.411-2.647l64.538 34.413a1.5 1.5 0 0 1-.707 2.823zM459.99 901.437c-.118 0-.238-.014-.356-.043l-37.553-9.179a1.5 1.5 0 1 1 .712-2.914l34.278 8.379-7.584-14.089a1.5 1.5 0 1 1 2.642-1.422l9.183 17.058a1.501 1.501 0 0 1-1.321 2.211zM181.134 683.125h-19.281a1.5 1.5 0 0 1 0-3h19.281a1.5 1.5 0 0 1 0 3zm74.981 0H197.47a1.5 1.5 0 0 1 0-3h58.645a1.5 1.5 0 0 1 0 3zm206.676 676.079a1.5 1.5 0 0 1-1.482-1.279c-1.914-12.832 4.977-25.588 16.758-31.021l16.409-7.568a95.618 95.618 0 0 0 16.761-9.918l12.871-9.437a1.5 1.5 0 0 1 1.774 2.42l-12.866 9.433a98.665 98.665 0 0 1-17.283 10.226l-16.409 7.568c-10.578 4.879-16.766 16.333-15.047 27.855a1.5 1.5 0 0 1-1.485 1.722zm60.27-603.888-.063-.001a1.5 1.5 0 0 1-1.437-1.561l6.858-165.528-47.761-9.62a1.5 1.5 0 0 1 .593-2.941l49.017 9.873a1.5 1.5 0 0 1 1.203 1.532l-6.911 166.807a1.5 1.5 0 0 1-1.498 1.438zm-99.019-311.127a1.5 1.5 0 0 1-1.402-.968l-31.468-82.798a1.5 1.5 0 0 1 .869-1.935l109.809-41.733a1.498 1.498 0 0 1 1.935.869l32.119 84.511a1.502 1.502 0 0 1-.899 1.946l-57.781 20.58-52.663 19.434a1.501 1.501 0 0 1-.519.093zm-29.533-83.429 30.407 80.007 51.276-18.922.016-.006 56.347-20.069-31.042-81.677-107.005 40.667z" fill="#003029" id="wzQfDNu9pbDlxjxWrmC4"/></g><path d="M474.154 177.208c8.436 25.485-2.489 69.037-55.565 83.098-42.38 11.227-64.889-13.89-60.669-37.17 1.745-9.569 12.603-15.046 17.884-9.665-5.981 15.423 5.878 39.303 39.701 30.342 40.458-10.718 44.077-46.061 39.32-61-2.402-7.364 16.522-14.211 19.328-5.606z" fill="#FEFEFE" id="Ajqbp4a_iWdZaMPyplboL"/><path d="M398.894 264.523c-12.882 0-24.018-3.779-31.951-11.104-8.602-7.943-12.527-19.364-10.499-30.55 1.225-6.719 6.299-11.114 10.783-12.491 3.732-1.146 7.249-.401 9.647 2.043a1.5 1.5 0 0 1 .328 1.593c-2.848 7.344-1.171 16.29 4.171 22.261 7.01 7.834 18.995 9.997 33.747 6.089 15.844-4.198 27.258-12.487 33.924-24.639 6.698-12.208 7.011-26.102 4.351-34.457-.696-2.132-.086-4.419 1.72-6.429 3.338-3.716 9.975-5.91 14.795-4.891 2.841.601 4.853 2.302 5.667 4.79 4.902 14.812 2.957 32.656-5.203 47.733-6.822 12.604-21.277 29.303-51.403 37.284-6.996 1.854-13.75 2.767-20.079 2.767zm-28.291-51.671c-.968 0-1.851.196-2.495.394-3.617 1.11-7.713 4.682-8.712 10.16-1.844 10.17 1.739 20.566 9.583 27.809 11.061 10.214 29.004 12.999 49.227 7.641 29.09-7.707 42.992-23.729 49.532-35.813 7.774-14.364 9.641-31.323 4.993-45.364l-.002-.006c-.48-1.47-1.636-2.409-3.436-2.79-3.754-.792-9.335 1.057-11.943 3.961-1.09 1.214-1.459 2.393-1.097 3.504 2.858 8.974 2.549 23.833-4.576 36.82-6.977 12.718-19.352 21.742-35.786 26.096-21.45 5.683-32.233-1.939-36.751-6.989-5.932-6.63-7.878-16.079-5.093-24.351-1.105-.813-2.331-1.072-3.443-1.072z" fill="#003029" id="hH7GmgHa7tf8vHBpze"/><path d="M448.259 93.204c11.621 36.125 20.242 101.113 19.731 165.453 13.446-16.84 43.277-63.447 47.106-96.574-4.596-9.447-43.435-84.218-55.217-108.477C448.52 30.217 423.799-8.309 365.7 1.595c-49.997 8.523-63.501 44.323-63.74 66.35z" fill="#E4634F" id="c46ih2MF47ZNJDo1w1"/><path d="M310.391 107.1c-17.277-41.584-9.447-79.635 36.657-94.858 47.703-15.751 79.786 9.797 93.928 51.741 5.908-17.91 27.287-12.26 32.296 2.932 3.706 11.241-4.458 26.82-25.013 26.288.93 47.573-33.574 69.894-69.77 76.921-44.316 8.604-82.766-23.306-68.098-63.025z" fill="#FF8E77" id="h86F4hbc0jqDh0ns4xD3I"/><path d="M371.326 115.557c5.166-13.227-12.712-14.822-14.171-3.427-12.2-11.746-22.735 4.473-8.139 9.649-2.724 2.914-1.904 13.821 8.993 13.41 14.629-.553 17.117-14.327 13.317-19.632z" fill="#E4634F" id="Gsr00Uk3bne1d65RRhztH"/><path d="M349.577 122.848c-.942 0-1.874-.035-2.795-.107a1.499 1.499 0 0 1-1.378-1.612 1.498 1.498 0 0 1 1.612-1.378c12.992 1.014 28.59-5.764 34.773-15.115a1.5 1.5 0 0 1 2.503 1.655c-6.277 9.493-21.373 16.558-34.715 16.558zM463.398 76.11a1.49 1.49 0 0 1-.604-.128l-14.182-6.253a1.5 1.5 0 1 1 1.211-2.745l14.182 6.253a1.5 1.5 0 0 1-.606 2.873z" fill="#003029" id="TGRWKJ8G95t2e1om0uaM5"/><path d="M453.538 79.365a1.5 1.5 0 0 1-1.364-2.122l6.341-13.916a1.5 1.5 0 1 1 2.73 1.244l-6.341 13.916a1.501 1.501 0 0 1-1.366.879z" fill="#003029" id="rDtdqEifGxk1j9T49KTzj"/><path d="M440.976 63.984c-29.901-6.16-64.672-31.5-69.996-56.361-9.012 26.679-33.064 50.058-69.021 60.322-.24-5.856 2.566-60.594 69.756-64.454 64.088-3.682 69.26 60.493 69.26 60.493z" fill="#E4634F" id="E6Hjm2H7fMdVys1pQTSuv"/><path d="M340.907 89.575c-.387 0-.774-.149-1.068-.447-5.911-5.992-15.39-8.828-23.238-1.658a1.5 1.5 0 1 1-2.023-2.215c9.27-8.47 20.7-5.021 27.397 1.766a1.5 1.5 0 0 1-1.067 2.553z" fill="#003029" id="U6nTJ7BZr-WWoENxhgXJs"/><path d="M322.409 93.625c2.961 7.055 7.859 11.727 10.938 10.434 3.08-1.293 3.176-8.06.214-15.115-1.411-3.362-3.261-6.182-5.145-8.074-.317-.318-8.091 1.667-8.134 2.276-.2 2.839.505 6.616 2.127 10.479zm64.115-18.205c-.387 0-.774-.149-1.068-.447-5.911-5.992-15.389-8.829-23.238-1.658a1.5 1.5 0 1 1-2.023-2.215c9.27-8.47 20.7-5.022 27.397 1.766a1.5 1.5 0 0 1-1.067 2.553z" fill="#003029" id="dHq_9iOla2poNsNT3nMRe"/><path d="M368.026 79.469c2.961 7.055 7.859 11.727 10.938 10.434 3.08-1.293 3.176-8.06.214-15.115-1.411-3.362-3.261-6.182-5.145-8.074-.317-.318-8.091 1.667-8.134 2.276-.2 2.839.505 6.616 2.127 10.479zm95.431 95.781a1.5 1.5 0 0 1-1.489-1.336c-3.187-28.913-7.954-57.281-13.423-79.881a1.5 1.5 0 0 1 2.916-.706c5.498 22.719 10.288 51.222 13.489 80.258a1.5 1.5 0 0 1-1.493 1.664z" fill="#003029" id="HCXSgHa71NitmCtWYKuL"/></g></g><g transform="translate(1190.0 770.0) rotate(0.0 445.7142857142858 317.1428571428571) scale(1.4264477587511086 1.426743012413628)" id="sfMeb91npCrVLDrpfbVPS"><g clip-path="url(#clipPath_2Fol7-QB)" transform="matrix(1 0 0 1 0 0)" id="Bv2Xbcp7TvfZIy57nsE9G"><path d="M216.198 106.974 577.882 1.5h18c18.05 0 31.727 16.293 28.6 34.07L569.65 347.326c-2.442 13.884-14.503 24.009-28.6 24.009H30.1c-18.05 0-31.727-16.293-28.6-34.07l105.932-95.845c2.442-13.884 94.669-134.445 108.766-134.445z" fill="#50B9AD" id="T6OeVThz9ipOjdR_aE1l3"/><path d="M84.933 1.5h492.949c18.05 0 31.727 16.293 28.6 34.07L551.65 347.326c-2.442 13.884-14.503 24.009-28.6 24.009H30.1c-18.05 0-31.727-16.293-28.6-34.07L56.332 25.509C58.774 11.625 70.835 1.5 84.932 1.5z" fill="#FEFEFE" id="LXHHHNuDt73-6WtRTIGmR"/><path d="M400.686 444.569H300.208l-70-73.235h135.244l45.977 48.102c9.038 9.456 2.336 25.133-10.744 25.133z" fill="#50B9AD" id="BZxnAwKeCGij4IvKdhF1P"/><path d="M188.693 430.861h166.519v13.708H174.985c0-7.566 6.142-13.708 13.708-13.708z" fill="#50B9AD" id="u-qUtC8ke9_fUsiNMMnWj"/><path d="M355.212 432.361h-84.121a1.5 1.5 0 1 1 0-3h84.121a1.5 1.5 0 1 1 0 3z" fill="#003029" id="yVj0rHDvXX7OLfdW3wQ7H"/><path d="m558.964 346.989 7.025-36.887H6.993l-.738.129L1.5 337.265c-3.127 17.777 10.55 34.07 28.6 34.07h492.949c14.098 0 33.473-10.461 35.915-24.345z" fill="#50B9AD" id="F8Q9su8VDHh-egFy78sv"/><g fill="#003029" id="gOcXFi-b12UM8T_jNCmI6"><path d="M1.502 338.765a1.5 1.5 0 0 1-1.479-1.76L54.855 25.249A30.493 30.493 0 0 1 84.933 0h492.949a30.469 30.469 0 0 1 23.39 10.904 1.5 1.5 0 1 1-2.298 1.928 27.477 27.477 0 0 0-21.092-9.833H84.933A27.498 27.498 0 0 0 57.81 25.768L2.977 337.525a1.5 1.5 0 0 1-1.476 1.24zm197.334 34.107a1.5 1.5 0 1 1 0-3l180.255-.037a1.5 1.5 0 1 1 0 3z" fill="#003029" id="Q7G8en1nMf5XuJJfuGrVV"/></g></g></g><g transform="translate(627.1428571428571 1404.2857142857142) rotate(0.0 849.2857142857143 428.57142857142867) scale(1.427936123096981 1.4266430826713514)" id="vlAwo6f8mkFISd5xe8qwQ"><g clip-path="url(#clipPath_2WtusjcA)" transform="matrix(1 0 0 1 0 0)" id="Fx9b0IOFmH01269w2PX6w"><path d="M897.539 586.709a7 7 0 0 1-7-7V407.537a7 7 0 1 1 14 0v172.172a7 7 0 0 1-7 7Z" fill="#003029" id="j08Dt6xLDBqa9NLQYuM0e"/><path d="M883.369 19.196h28.34v406.723h-28.34z" fill="#FEFEFE" id="XcAkjuwD55NPvOOqkpLv3"/><path d="M911.709 427.42h-28.34a1.5 1.5 0 0 1-1.5-1.5V19.196a1.5 1.5 0 0 1 1.5-1.5h28.34a1.5 1.5 0 0 1 1.5 1.5V425.92a1.5 1.5 0 0 1-1.5 1.5Zm-26.84-3h25.34V20.696h-25.34V424.42Z" fill="#003029" id="wiFqXlkvX0ol7ma8-QZ6I"/><path d="M883.369 549.858h28.34v37.061h-28.34z" fill="#FEFEFE" id="DP2CybaLHuRwiIu3RWZmm"/><path d="M911.709 588.42h-28.34a1.5 1.5 0 0 1-1.5-1.5v-37.062a1.5 1.5 0 0 1 1.5-1.5h28.34a1.5 1.5 0 0 1 1.5 1.5v37.062a1.5 1.5 0 0 1-1.5 1.5Zm-26.84-3h25.34v-34.062h-25.34v34.062Z" fill="#003029" id="aGl7na2l2rhFqcbVTaLVf"/><path d="M723.981 572.38h347.116c14.864 0 26.932 12.068 26.932 26.932H697.05c0-14.864 12.068-26.932 26.932-26.932Z" fill="#FEFEFE" id="xWPDsh5avW_VpQXWzwK3q"/><path d="M1098.029 600.811H697.05a1.5 1.5 0 0 1-1.5-1.5c0-15.677 12.754-28.431 28.432-28.431H883.37a1.5 1.5 0 1 1 0 3H723.982c-13.52 0-24.609 10.604-25.388 23.931h397.891c-.779-13.328-11.868-23.931-25.388-23.931H897.539a1.5 1.5 0 1 1 0-3h173.558c15.677 0 28.431 12.754 28.431 28.431a1.5 1.5 0 0 1-1.5 1.5Z" fill="#003029" id="XP-zkBjpNO2oqqVYmEOgg"/><rect x="1.5" y="1.5" width="1186.529" height="42.229" rx="10.635" ry="10.635" fill="#FEFEFE" id="lhepRicRJ_8YHbC3SJew"/><path d="M1177.393 45.229H12.135C5.444 45.229 0 39.785 0 33.094V12.136C0 5.444 5.444 0 12.135 0h1165.258c6.691 0 12.135 5.444 12.135 12.136v20.958c0 6.691-5.444 12.135-12.135 12.135ZM12.135 3C7.098 3 3 7.098 3 12.136v20.958c0 5.037 4.098 9.135 9.135 9.135h1165.258c5.037 0 9.135-4.098 9.135-9.135V12.136c0-5.038-4.098-9.136-9.135-9.136H12.135Z" fill="#003029" id="SL45grxEpD3urSAImQyQD"/></g></g><g transform="translate(1284.2857142857142 897.1428571428571) rotate(0.0 309.28571428571433 111.42857142857144) scale(1.446378925223546 1.4388091087684352)" id="ryfUPsxwBD3cADcavPI_l"><g clip-path="url(#clipPath_i85fWpZR)" transform="matrix(1 0 0 1 0 0)" id="bzl4cnNzcBrCs2ERazrxr"><path d="M21.612 154.891a1.498 1.498 0 0 1-1.109-2.509L137.584 23.674a1.501 1.501 0 0 1 1.807-.319L276.782 95.44l148.697-76.982a1.5 1.5 0 0 1 1.38 2.664L277.468 98.464a1.498 1.498 0 0 1-1.387-.004L139.024 26.55 22.722 154.4a1.497 1.497 0 0 1-1.11.491z" fill="#25968A" id="HnyYotLRAavgHTRW-I3"/><path d="M142.735 120.56a1.55 1.55 0 0 1-.203-.014L1.297 101.299a1.5 1.5 0 1 1 .405-2.973l140.68 19.171 130.511-85.404c.154-.101.326-.173.506-.211L421.534.034a1.5 1.5 0 0 1 .631 2.933l-147.863 31.79-130.745 85.558a1.495 1.495 0 0 1-.821.245z" fill="#E4634F" id="lfzR1rgbEeLBICApZQBF_"/></g></g><g transform="translate(2422.857142857143 1215.7142857142858) rotate(-165.10221513642702 242.85714285714266 -207.8571428571429) scale(1.324843941176928 -1.3258774369832327)" id="HIV-iN6lm5ieCapMMlj"><g clip-path="url(#clipPath_kMYMSgwU)" transform="matrix(1 0 0 1 0 0)" id="aH-0VT9_W45pYjfXFCVas"><path d="m27.512 39.086 306.34-37.59 31.287 254.969-306.34 37.59z" fill="#FEFEFE" id="eblWGJNc0RAIPHMvnIKA"/><path d="M58.793 295.543a1.504 1.504 0 0 1-1.489-1.317L26.022 39.268a1.5 1.5 0 0 1 1.306-1.671L333.655.011a1.499 1.499 0 0 1 1.671 1.306l31.283 254.958a1.5 1.5 0 0 1-1.306 1.671L58.976 295.532a1.404 1.404 0 0 1-.183.011zM29.182 40.392l30.917 251.98 303.349-37.22-30.917-251.98z" fill="#003029" id="ij7j1xGPYjrQrhJS4BCCt"/><path d="m339.741 223.672-15.124-1.714 6.719 54.764 14.261-5.319a7.935 7.935 0 0 0 5.103-8.401l-3.977-32.412a7.934 7.934 0 0 0-6.982-6.918z" fill="#FFBBA0" id="nfD5eIG6GbZgscThuhn0u"/><path d="m333.022 168.908-15.124-1.714 6.719 54.764 14.261-5.319a7.935 7.935 0 0 0 5.103-8.401l-3.977-32.412a7.935 7.935 0 0 0-6.982-6.918z" fill="#50B9AD" id="UvBDlB6gwvD5VOp1r8ELL"/><path d="m.001 58.582 306.34-37.59 31.287 254.969-306.34 37.59z" fill="#25968A" id="d31xnpbi1w2OXgja_jetS"/></g></g><g transform="translate(131.42857142857144 735.7142857142858) rotate(0.0 820.7142857142858 762.8571428571429) scale(1.428337723182431 1.4273125068659345)" id="Rg8mwzHbWk29C7ipovuWO"><g clip-path="url(#clipPath_Ec1Qd_mp)" transform="matrix(1 0 0 1 0 0)" id="sGj9JnAib8o3KaOFYH3Iw"><path d="M463.618 777.134c-39.108 37.393-93.558 92.692-122.397 127.5 23.746 59.862 76.981 87.943 139.076 43.388 0 0 35.537-21.834 84.883-52.26-15.434-24.601-82.091-115.668-101.562-118.628z" fill="#DE5D4A" id="H1oEO-RLiY73keP26I1f"/><path d="M245.823 445.381c-44.057 79.712-30.451 236.728 100.463 252.517 75.089 9.056 137.452 18.285 184.519 25.387-18.659 9.472-45.538 32.28-74.548 61.069 3.487 26.089 121.184 122.883 121.184 122.883s81.898-68.935 108.806-89.868c123.351-95.958 78.46-217.478-26.603-244.581-84.165-21.712-264.308-64.473-264.308-64.473 20.302-13.032-95.838-160.049-149.513-62.934z" fill="#FFBBA0" id="qYLD1EZm0Lw-_aRRsOvdC"/><path d="M530.807 724.785a1.5 1.5 0 0 1-.783-2.781c17.514-10.693 52.107-29.375 52.455-29.563a1.5 1.5 0 0 1 1.424 2.64c-.347.187-34.87 18.832-52.317 29.483-.244.149-.514.22-.78.22z" fill="#003029" id="n0bPdYp_NkIdS5aRcqKrT"/><path d="M510.918 805.831a1.501 1.501 0 0 1-.946-2.666c.635-.515 63.885-51.762 92.671-76.045 16.349-13.792 24.061-31.603 20.628-47.645-3.867-18.075-21.187-32.384-48.768-40.292-40.482-11.606-220.122-44.115-221.931-44.443a1.499 1.499 0 1 1 .534-2.952c1.812.327 181.599 32.864 222.225 44.511 28.697 8.227 46.765 23.338 50.875 42.548 3.668 17.144-4.417 36.048-21.627 50.566-28.809 24.302-92.082 75.569-92.717 76.083a1.494 1.494 0 0 1-.943.334z" fill="#003029" id="EOVhmzTeiIu_5Bczou5V"/><path d="M475.05 1047.377 304.196 952.5c10.259-23.818 20.055-32.989 37.024-47.866 0 0-2.332-11.084-3.21-15.721-1.647-8.699 14.175-11.424 13.984 1.195-.05 3.29.326 11.836.326 11.836a19.97 19.97 0 0 0 6.99 14.634l25.789 22.035a29.978 29.978 0 0 0 14.423 6.758l38.348 6.553 13.84-11.4a9.893 9.893 0 0 1 12.778.168l7.811 6.787c4.753 4.129 4.49 11.589-.542 15.374l-5.421 4.077s24.7 28.775 37.73 44.401a14.06 14.06 0 0 0 6.023 4.228c13.551 4.893 30.629 13.547 28.137 33.872l-38.011.076-17.105-.032a16.654 16.654 0 0 1-8.06-2.097z" fill="#25968A" id="kXFnRJWOmZ8rz0GAv2HqR"/><path d="m298.983 971.305 162.084 92.701a26.033 26.033 0 0 0 12.934 3.435l61.192-.017a9 9 0 0 0 9.017-8.983 9 9 0 0 0-8.983-9.017l-49.65.037a26.045 26.045 0 0 1-12.676-3.283l-165.254-91.924c-4.863-2.471-10.804-.381-13.048 4.591a9.563 9.563 0 0 0 4.384 12.461z" fill="#FEFEFE" id="KSj8glZHkafx8NehFti3H"/><path d="M475.59 1068.942a33.604 33.604 0 0 1-16.656-4.427l-160.665-91.89a11.047 11.047 0 0 1-5.038-14.398c1.256-2.781 3.532-4.871 6.411-5.884s5.963-.81 8.684.573l162.91 90.619a35.163 35.163 0 0 0 17.052 4.424h.026l46.911-.034c5.794.011 10.495 4.73 10.484 10.52s-4.753 10.492-10.52 10.48l-59.59.017h-.01zM303.339 954.709a8.14 8.14 0 0 0-2.7.465 7.99 7.99 0 0 0-4.673 4.289 8.05 8.05 0 0 0 3.761 10.541l160.696 91.907a30.599 30.599 0 0 0 15.167 4.031h.009l59.593-.017h.014c4.132 0 7.495-3.355 7.503-7.486.008-4.135-3.35-7.506-7.486-7.514l-46.907.034h-.028a38.164 38.164 0 0 1-18.511-4.802l-162.86-90.593a7.9 7.9 0 0 0-3.579-.856zm50.285 8.899c-1.349 0-2.708-.14-4.059-.425-5.097-1.073-9.47-4.068-12.315-8.431s-3.821-9.573-2.747-14.67c1.073-5.097 4.068-9.47 8.431-12.315s9.573-3.82 14.67-2.747 9.47 4.068 12.315 8.431 3.821 9.573 2.747 14.67a19.375 19.375 0 0 1-8.431 12.316 19.366 19.366 0 0 1-10.611 3.172zm-.073-36.012c-3.165 0-6.265.915-8.979 2.684a16.393 16.393 0 0 0-7.134 10.421 16.39 16.39 0 0 0 2.325 12.413 16.393 16.393 0 0 0 10.421 7.134c4.312.909 8.721.083 12.413-2.324s6.225-6.108 7.134-10.421a16.39 16.39 0 0 0-2.325-12.413 16.393 16.393 0 0 0-10.421-7.134 16.632 16.632 0 0 0-3.434-.36zm147.403 98.641c-.08 0-.159 0-.239-.002a15.976 15.976 0 0 1-9.693-3.482l-48.683-38.945c-6.532-5.961-9.47-14.883-7.742-23.349l1.803-8.834a1.5 1.5 0 1 1 2.94.6l-1.803 8.834c-1.518 7.437 1.069 15.281 6.751 20.47l48.608 38.882a12.962 12.962 0 0 0 7.864 2.825 12.947 12.947 0 0 0 10.594-5.266l1.351-1.841a1.5 1.5 0 0 1 2.419 1.775l-1.351 1.841a15.927 15.927 0 0 1-12.818 6.492z" fill="#003029" id="Z8gDtM6lQxFwKH-HO-gu4"/><rect fill="#FFBBA0" height="49.021" rx="10.707" transform="matrix(.68243223 .73094887 -.73094887 .68243223 782.277 -108.877)" width="191.801" x="420.539" y="821.337" id="uiKfQ_mnb2XymzEz_y1wS"/><g fill="#003029" id="myEBPCK-URV4sGvI6bHgr"><path d="M593.524 893.995c-.4 0-.8-.159-1.095-.474l-119.258-127.28a1.499 1.499 0 1 1 2.189-2.051l119.258 127.28a1.499 1.499 0 0 1-1.094 2.526z" fill="#003029" id="P7HFzYAxEMA3f9rMh-cK"/><circle cx="370.467" cy="46.193" r="26.276" fill="#003029" id="TR_ZroKg4TsUc7vueESM"/><circle cx="365.271" cy="79.877" r="26.276" fill="#003029" id="o7e-urmJevWrFubtU5t4"/><circle cx="388.879" cy="105.894" r="26.276" fill="#003029" id="Z_coW7Ysj1qM39mFVYsSA"/><circle cx="401.843" cy="26.282" r="26.276" fill="#003029" id="e-GlZvTkXFJ9gA-2IPysV"/><circle cx="409.95" cy="72.581" r="26.276" fill="#003029" id="ROHZJlbKhfPeYUVFKtTu"/><circle cx="438.949" cy="34.577" r="26.276" fill="#003029" id="x6sGYWRrKhyR0NJolO3A7"/><circle cx="451.295" cy="67.579" r="26.276" fill="#003029" id="vvrofoW5tc7-H8uwNa6SN"/><circle cx="457.502" cy="65.027" r="26.276" fill="#003029" id="jazu-6m6WhrUJnhDJCwF"/><circle cx="503.733" cy="71.75" r="26.276" fill="#003029" id="FV3dt0P6vArjrQSpkaj_H"/><circle cx="413.995" cy="79.603" r="26.276" fill="#003029" id="bqldM2tGxjUjzOl9r0vk6"/><circle cx="380.118" cy="113.973" r="26.276" fill="#003029" id="OZSoLU79CSg9YzYbV0PjF"/><circle cx="379.007" cy="158.473" r="26.276" fill="#003029" id="bqiAJ9IrftL2GK7aLJ1W_"/><circle cx="403.174" cy="199.863" r="26.276" fill="#003029" id="gtAEMaqJI3OtbZ6suwEtG"/><circle cx="449.639" cy="208.422" r="26.276" fill="#003029" id="evZTU3yOouFIHG4jFboq7"/><path d="m439.167 113.439-53.416 4.283-1.136 50.664 33.89 23.191z" fill="#003029" id="kqFC-4MwbPhajpDyIr6q9"/></g><path d="M545.272 129.166c-3.881-44.862-29.252-75.111-76.323-67.205-49.542 8.321-66.242 45.539-59.414 89.273-13.512-13.157-29.864 1.728-27.291 17.517 1.904 11.682 16.341 21.729 34.327 11.764 18.528 36.311 57.405 46.736 92.977 37.032 43.957-11.99 67.078-59.926 35.724-88.381z" fill="#DE5D4A" id="qNK44UpQhA_fC3LEyBbg3"/><path d="M394.553 172.514a1.498 1.498 0 0 1-1.17-2.438l9.691-12.096a1.501 1.501 0 0 1 2.342 1.876l-9.691 12.096c-.296.37-.732.562-1.172.562z" fill="#003029" id="CDWTP-nb2G6gbWH_EeiN"/><path d="M404.803 170.848c-.323 0-.648-.104-.922-.318l-12.051-9.414a1.5 1.5 0 1 1 1.846-2.364l12.051 9.414a1.5 1.5 0 0 1-.924 2.682z" fill="#003029" id="y3QrCBr8xuNGkIcNLOJX"/><path d="M494.48 167.227c-10.355-9.717 5.098-18.849 11.317-9.191 5.96-15.853 22.448-5.744 11.499 5.209 3.713 1.458 7.665 11.657-2.348 15.974-13.443 5.795-21.616-5.568-20.468-11.992z" fill="#B93D2F" id="GhO7GbKffRu4_ZtH6_7at"/><path d="M497.065 168.798c-6.858 0-13.423-1.438-18.277-4.359a1.5 1.5 0 0 1 1.547-2.571c9.604 5.781 26.603 5.19 37.893-1.317a1.5 1.5 0 1 1 1.498 2.6c-6.492 3.742-14.771 5.647-22.662 5.647zm32.094-86.458c-3.378-20.092-34.677-29.662-62.099-25.056-49.542 8.322-77.145 48.199-57.525 93.95 4.766 10.343 12.854 5.223 13.249-2.085 2.811-51.988 25.317-69.566 54.087-76.858 18.864-4.781 39.869-.335 52.288 10.05z" fill="#003029" id="FuEnyMacfYsShv9IIf"/><path d="M466.48 136.31a1.5 1.5 0 0 1-1.492-1.672c1.093-9.472 7.971-19.225 20.492-18.27a1.5 1.5 0 1 1-.229 2.991c-10.594-.814-16.317 7.261-17.283 15.623a1.5 1.5 0 0 1-1.488 1.328z" fill="#003029" id="OP-nDAImCZwWuxOdnq734"/><path d="M485.681 128.306c.974 7.589-.922 14.086-4.235 14.511s-6.788-5.383-7.762-12.972c-.464-3.616-.276-6.984.405-9.566.115-.434 7.837-2.613 8.179-2.107 1.596 2.357 2.879 5.978 3.412 10.134zm25.652.477a1.5 1.5 0 0 1-1.492-1.672c1.093-9.472 7.969-19.228 20.492-18.27a1.5 1.5 0 1 1-.229 2.991c-10.596-.817-16.317 7.26-17.282 15.623a1.5 1.5 0 0 1-1.488 1.328z" fill="#003029" id="TGycR8VFKo3rte26z2S9"/><path d="M530.535 120.779c.974 7.589-.922 14.086-4.235 14.511s-6.788-5.383-7.762-12.972c-.464-3.616-.276-6.984.405-9.566.115-.434 7.837-2.613 8.179-2.107 1.596 2.357 2.879 5.978 3.412 10.134z" fill="#003029" id="Br-5tli6DRkqOBa-jva90"/><path d="M354.716 108.756a1.501 1.501 0 0 1-1.452-1.884c3.916-14.807 19.147-23.667 33.955-19.752l.032.009c-1.352-4.763-1.396-9.763-.11-14.626 3.916-14.807 19.148-23.666 33.955-19.752a27.866 27.866 0 0 1 9.677 4.719c4.105-14.531 19.173-23.17 33.829-19.295a1.501 1.501 0 0 1-.767 2.901c-13.207-3.493-26.794 4.411-30.287 17.619a24.834 24.834 0 0 0-.391 1.76 1.502 1.502 0 0 1-2.485.831 24.483 24.483 0 0 0-10.344-5.633c-13.207-3.493-26.794 4.411-30.287 17.619-1.385 5.237-1.04 10.65.997 15.655a1.499 1.499 0 0 1-1.932 1.963 25.161 25.161 0 0 0-2.655-.868c-13.205-3.494-26.794 4.411-30.287 17.619a1.501 1.501 0 0 1-1.449 1.117z" fill="#FEFEFE" id="eZPTiuSLbiyfbfl6Vtq7f"/><path d="M807.395 323.479c-.083-49.053 1.398-139.429 1.398-139.429-13.215-57.757-59.792-78.559-99.56-45.806-10.117 8.332-26.99 23.243-27.528 52.577-.292 15.952-.575 51.903-.575 51.903l126.265 80.756z" fill="#DE5D4A" id="xJGSfyAfIbDXbdgFs9ESk"/><path d="M709.233 138.243c18.484-16.616 46.478-39.917 67.637-49.851 21.16-9.935 34.799 13.307 15.619 32.402s-38.086 34.845-40.651 36.956c-14.412 11.858-63.948-.32-42.605-19.506z" fill="#DE5D4A" id="BCRP_8YKzmEIS-sbOtYps"/><path d="M737.26 200.166a1.5 1.5 0 0 1-.707-2.824c6.351-3.389 11.25-9.98 13.796-18.558 2.585-8.708 2.02-16.965.176-20.312a1.5 1.5 0 0 1 .361-1.882c.828-.681 20.518-16.921 40.546-36.86a1.5 1.5 0 1 1 2.116 2.126c-17.967 17.887-35.668 32.817-39.855 36.304 2.045 4.967 1.893 13.521-.469 21.478-2.776 9.353-8.196 16.581-15.26 20.351-.225.12-.467.177-.705.177z" fill="#003029" id="pHQjNZrd7k2tDwxgYYYbp"/><path d="M792.528 163.416c43.015-3.495 47.772-17.994 47.17-27.615-1.243-19.847-31.277-21.656-44.26-19.977-20.578 2.661-26.465 14.73-25.183 21.759 1.964 10.764 12.22 19.768 39.718 17.208z" fill="#DE5D4A" id="S5wZR9oY-lW_sQGSnBCZ2"/><path d="M801.165 156.724c-24.944.001-31.041-11.501-32.385-18.872-.697-3.818.487-8.176 3.248-11.955 3.149-4.312 9.734-9.817 23.218-11.561 5.374-.695 14.108-.842 22.506.832a1.5 1.5 0 1 1-.586 2.942c-8.041-1.603-16.397-1.463-21.535-.799-12.428 1.607-18.378 6.519-21.18 10.355-2.244 3.072-3.261 6.678-2.719 9.647 2.292 12.564 15.466 18.09 38.104 15.984a1.5 1.5 0 0 1 .278 2.988 96.69 96.69 0 0 1-8.947.439z" fill="#003029" id="irklsj3wie_HHcSjy3h-I"/><path d="M794.252 195.265c43.015-3.495 47.772-17.994 47.17-27.615-1.243-19.847-31.277-21.656-44.26-19.977-20.578 2.661-26.465 14.73-25.183 21.759 1.964 10.764 12.22 19.768 39.718 17.208z" fill="#DE5D4A" id="Jsjj2N-7ApVTs8Wk03OMX"/><path d="M802.889 188.574c-24.944.001-31.041-11.502-32.385-18.872-.697-3.818.487-8.175 3.248-11.955 3.149-4.312 9.734-9.817 23.218-11.561 9.237-1.195 29.452-.928 39.853 8.63a1.5 1.5 0 0 1-2.029 2.209c-8.893-8.171-27.261-9.18-37.438-7.864-12.428 1.607-18.378 6.519-21.18 10.356-2.244 3.072-3.261 6.678-2.719 9.646 2.292 12.564 15.468 18.091 38.104 15.984a1.502 1.502 0 0 1 .278 2.988c-3.222.3-6.201.439-8.948.44z" fill="#003029" id="khv2UYzu5R3k3mb29TY5k"/><path d="M792.353 227.505c43.015-3.495 47.772-17.994 47.17-27.615-1.243-19.847-31.277-21.656-44.26-19.977-20.578 2.661-26.465 14.73-25.183 21.759 1.964 10.764 12.22 19.768 39.718 17.208z" fill="#DE5D4A" id="EY2GPl-eqH2PmDKZBiDB8"/><path d="M800.99 220.814c-24.944.001-31.041-11.502-32.385-18.872-.697-3.818.487-8.175 3.248-11.954 3.149-4.312 9.734-9.817 23.219-11.561 8.953-1.158 34.132-1.204 42.998 12.305a1.499 1.499 0 1 1-2.508 1.646c-7.123-10.853-28.38-12.491-40.105-10.976-12.428 1.607-18.378 6.519-21.181 10.356-2.244 3.072-3.26 6.678-2.719 9.646 2.292 12.564 15.466 18.09 38.104 15.984a1.5 1.5 0 1 1 .278 2.988c-3.222.3-6.201.439-8.948.44z" fill="#003029" id="nCYhfCrxepqrxJSeJaY67"/><path d="M790.802 257.59c43.015-3.495 47.769-17.918 47.167-27.539-1.243-19.847-31.277-21.656-44.26-19.977-20.578 2.661-26.465 14.73-25.183 21.759 1.964 10.764 12.22 19.768 39.718 17.208z" fill="#DE5D4A" id="L67zyz16W6s_WV3y7j3T-"/><path d="M799.436 250.974c-24.944.001-31.042-11.502-32.386-18.872-.697-3.818.487-8.175 3.248-11.955 3.149-4.312 9.734-9.817 23.218-11.561 12.366-1.6 33.835.094 42.3 11.314a1.5 1.5 0 0 1-2.395 1.807c-7.64-10.127-28.296-11.598-39.52-10.146-12.428 1.607-18.378 6.518-21.18 10.355-2.244 3.072-3.261 6.678-2.719 9.647 2.292 12.564 15.467 18.092 38.104 15.984a1.5 1.5 0 0 1 .278 2.988c-3.222.3-6.2.439-8.947.439z" fill="#003029" id="HRbniTvTqMezSpfJk_Wea"/><path d="m681.13 242.723-2.488 115.02-85.009-50.506c-76.048-19.43-130.555 79.48-93.068 108.381 35.716 26.658 94.046 65.277 175.239 105.313 47.977 23.657 114.286 19.147 135.442-60.703 7.734-29.19 28.355-38.329 29.173-60.706.861-23.539-30.218-28.588-25.515-46.017 8.411-31.172 12.143-42.534 12.143-42.534l-145.916-68.247z" fill="#FE5236" id="za3EkgOXZOuQAAkZ9b52o"/><path d="M677.375 417.851h-.033a1.5 1.5 0 0 1-1.467-1.532l1.708-78.953a1.497 1.497 0 0 1 1.532-1.467 1.5 1.5 0 0 1 1.467 1.532l-1.708 78.953a1.5 1.5 0 0 1-1.499 1.468z" fill="#003029" id="ctoPvXCQdh8tMdSa97oIL"/><path d="M807.399 728.267c32.844 28.862 67.005 56.691 106.675 90.993 47.833-10.928 79.146-38.321 100.824-75.318 0 0-51.483-67.43-99.958-130.837 0 0-85.278 75.531-107.542 115.162z" fill="#DE5D4A" id="x76_iDZhsHdjMIfeXt1ug"/><path d="m1005.371 721.638 13.046 10.731s52.739-16.338 61.802-19.242c26.072-8.354 39.164-9.114 52.141 7.395l-53.21 41.838-137.975 108.261c-13.329-16.072-24.246-32.669-29.377-50.531 0 0-9.812-2.562-17.316-4.295-9.1-2.101-4.731-16.986 6.516-12.431 3.315 1.343 7.412 3.02 10.809 4.415 4.286 1.76 9.133 1.647 13.388-.306l26.768-12.289a48.84 48.84 0 0 0 20.781-18.096l18.493-28.974-7.409-5.646c-4.695-3.578-4.921-10.571-.47-14.573l6.471-5.82c4.411-3.967 11.026-4.153 15.542-.438z" fill="#25968A" id="cxFGcqRkFaiJJ0QkJgoNv"/><path d="M1011.753 758.691c-4.913 0-9.786-1.437-13.915-4.254l-7.448-5.082a1.5 1.5 0 0 1 1.69-2.478l7.448 5.082c6.27 4.278 14.503 4.929 21.488 1.699l54.728-25.311c6.272-2.901 9.701-9.829 8.155-16.475a1.5 1.5 0 1 1 2.922-.68c1.868 8.023-2.261 16.383-9.817 19.878l-54.728 25.311a25.077 25.077 0 0 1-10.523 2.31zm-60.584 83.716c-.741 0-1.484-.042-2.23-.125-5.216-.584-9.864-3.164-13.086-7.261-3.222-4.098-4.632-9.222-3.969-14.43.662-5.199 3.31-9.858 7.458-13.12 4.149-3.261 9.303-4.736 14.509-4.153 5.217.585 9.864 3.164 13.086 7.261 6.646 8.452 5.081 20.811-3.489 27.55-3.554 2.794-7.847 4.277-12.279 4.278zm.458-36.213c-3.763 0-7.409 1.26-10.43 3.636-3.525 2.771-5.775 6.728-6.337 11.14-.56 4.404.63 8.735 3.351 12.197 2.721 3.461 6.65 5.64 11.062 6.135 4.419.495 8.796-.758 12.321-3.53 7.269-5.716 8.609-16.185 2.985-23.337-2.721-3.461-6.65-5.64-11.062-6.134a16.934 16.934 0 0 0-1.891-.106z" fill="#003029" id="Om3pxFlBZfVAtH8pX9ZJN"/><path d="m1143.892 736.141-52.748 41.475-136.651 107.368c-4.524 3.019-10.595 1.846-13.559-2.619-2.964-4.465-1.699-10.532 2.825-13.55l135.847-106.813 52.291-41.115c4.276-3.362 10.427-2.673 13.74 1.54 3.312 4.212 2.531 10.353-1.745 13.715z" fill="#FEFEFE" id="KPuYtEjNl5azVq8unu37u"/><path d="M949.009 888.162c-.748 0-1.5-.074-2.248-.225a11.038 11.038 0 0 1-7.077-4.743c-3.405-5.128-1.97-12.11 3.192-15.594l188.093-147.894c4.92-3.868 12.028-3.064 15.846 1.792a11.057 11.057 0 0 1 2.282 8.293 11.354 11.354 0 0 1-4.279 7.529l-52.748 41.475-136.651 107.368a1.488 1.488 0 0 1-.094.068 11.347 11.347 0 0 1-6.316 1.93zm189.019-167.904a8.403 8.403 0 0 0-5.204 1.807L944.687 869.993a1.645 1.645 0 0 1-.095.069c-3.831 2.556-4.911 7.703-2.408 11.473a8.06 8.06 0 0 0 5.169 3.461c2.173.436 4.394 0 6.261-1.229l136.603-107.331 52.748-41.474a8.364 8.364 0 0 0 3.157-5.549 8.079 8.079 0 0 0-1.664-6.06c-1.6-2.035-3.995-3.095-6.429-3.095z" fill="#003029" id="RAtadB56DLtM0a4GxbH8r"/><path d="M659.644 572.788c55.051 69.384 100.011 113.523 147.754 155.478 40.155-21.56 110.728-80.277 125.706-119.507 0 0-71.414-83.08-88.937-102.899-63.341-71.643-113.042-118.687-173.658-121.091-53.893-2.137-49.406 134.01-10.865 188.019z" fill="#FFBBA0" id="pHN-uCl_PTq711D3ZL9uK"/><rect fill="#FFBBA0" height="49.021" rx="12.391" transform="matrix(.69441979 -.71957012 .71957012 .69441979 -214.12 830.111)" width="195.238" x="772.69" y="642.649" id="bX1ctppFR0WhEml5s01R8"/><path d="M793.487 712.966a1.5 1.5 0 0 1-1.08-2.542L910.776 587.77a1.5 1.5 0 0 1 2.159 2.083L794.566 712.507a1.495 1.495 0 0 1-1.08.458z" fill="#003029" id="Mv4wXpDZprBjgys4AfVE3"/><path d="M508.685 267.561c14.123 46.4 17.432 138.613 12.563 156.952-5.253 19.783-31.994 91.557-31.994 91.557l-243.431-70.688c-24.186-41.163 14.448-43.826 19.784-55.746s10.576-31.816 10.576-31.816c21.914-50.816 53.979-124.672 63.304-135.711l169.198 45.453z" fill="#FE5236" id="aVGYuzog0-35ee-yPAAYE"/><path d="M593.633 307.237c-37.518-22.202-65.883-36.908-102.2-53.137-29.91-13.366-77.403-26.617-112.83-32.968-38.062-6.824-89.003-9.414-114.669-4.775l45.751 142.802 190.335 52.783 93.613-104.704z" fill="#FE5236" id="mQv_M-PwooE7awPr0KLPv"/><path d="M517.297 438.925a1.5 1.5 0 0 1-1.426-1.967c1.825-5.572 3.146-9.889 3.927-12.83 3.007-11.326 2.678-50.349-.734-86.988a1.5 1.5 0 0 1 2.987-.279c3.497 37.559 3.781 76.229.646 88.036-.795 2.996-2.133 7.367-3.975 12.993a1.501 1.501 0 0 1-1.425 1.034z" fill="#003029" id="hslVBnv1agYbxtsye1zgZ"/><path d="M369.561 225.986c-4.19 16.545-4.906 48.329 5.133 75.339l53.769-14.063 13.217 21.758 19.256-18.556 39.071 33.971c1.505-29.201.762-49.588-9.53-65.849-8.381-11.582-14.63-17.827-20.968-23.39-21.162-19.622-60.341-26.165-78.049-20.091-8.522 2.923-15.385 6.821-21.9 10.882z" fill="#FEFEFE" id="w1cw1NAaslOM3sVM-LuoH"/><path d="M500.008 325.935c-.355 0-.706-.126-.984-.368l-38.035-33.07-18.267 17.604a1.501 1.501 0 0 1-2.323-.302l-12.636-20.803-52.688 13.78a1.502 1.502 0 0 1-1.786-.928c-9.561-25.724-9.844-57.82-5.181-76.23.095-.376.332-.7.661-.905 6.32-3.939 13.384-8.002 22.207-11.028 19.026-6.524 58.755 1.124 79.555 20.411 6.697 5.878 12.875 12.158 21.163 23.611 10.312 16.288 11.398 36.036 9.813 66.806a1.5 1.5 0 0 1-1.497 1.422zm-39.071-36.971c.35 0 .701.122.984.368l36.74 31.945c1.321-28.397.042-46.891-9.45-61.888-8.071-11.149-14.115-17.293-20.689-23.065-20.101-18.637-58.314-26.062-76.573-19.8-8.302 2.847-15.04 6.671-21.077 10.415-3.522 14.557-5.033 45.175 4.765 72.59l52.448-13.717a1.502 1.502 0 0 1 1.662.672l12.243 20.156 17.906-17.256c.29-.279.665-.42 1.041-.42z" fill="#003029" id="y4r12ad7V0pCsOy28LLb"/><path d="M460.937 291.964a1.5 1.5 0 0 1-1.445-1.904l.801-2.855c3.009-10.706 5.198-18.495 6.201-30.675-17.944-18.234-59.459-23.335-67.996-21.467l.671 1.308c7.944 15.5 13.192 25.74 30.516 50.019a1.5 1.5 0 1 1-2.442 1.742c-17.452-24.458-23.027-35.337-30.744-50.394l-1.422-2.772a1.5 1.5 0 0 1 .482-1.919c3.265-2.255 17.489-1.495 31.708 1.695 10.765 2.415 30.518 8.25 41.864 20.198.292.308.441.726.408 1.149-1 12.863-3.248 20.859-6.358 31.926l-.8 2.85a1.5 1.5 0 0 1-1.444 1.097z" fill="#003029" id="Xscs3xqzQ524T5uTjUqs4"/><path d="M468.045 257.475a1.5 1.5 0 0 1-1.495-1.643c.823-8.595-7.331-16.963-7.414-17.046a1.5 1.5 0 0 1 2.132-2.111c.377.381 9.226 9.438 8.268 19.443a1.5 1.5 0 0 1-1.491 1.357zm-71.633-21.692a1.5 1.5 0 0 1-1.381-.914l-3.963-9.333a1.5 1.5 0 0 1 2.761-1.173l3.963 9.333a1.5 1.5 0 0 1-1.379 2.087z" fill="#003029" id="OUJjFJURs0u-n2UGZlZgY"/><path d="M245.823 445.381C147.845 614.259 275.6 732.427 397.025 687.324c84.377-31.341 187.488-81.248 262.619-114.536 75.209-40.238 110.29-147.196 75.161-167.807-37.469-21.983-75.74-27.322-122.205-10.138-81.524 30.15-281.915 108.235-281.915 108.235s-31.029-21.155-84.862-57.697z" fill="#FFBBA0" id="ZfBWU746Da7XW_XpX4xuP"/><path d="M831.061 674.033c-.411 0-.821-.168-1.117-.498-.824-.918-83.115-92.451-142.312-145.35-31.671-28.302-63.39-36.133-96.972-23.944-49.914 18.118-96.481 36.662-137.567 53.023-33.044 13.159-61.582 24.523-85.922 33.337-29.933 10.839-70.292 11.513-92.98-11.415-16.216-16.388-29.687-51.585-1.775-126.2a1.5 1.5 0 1 1 2.81 1.052c-21.654 57.884-21.274 100.43 1.097 123.039 21.755 21.986 60.791 21.219 89.826 10.705 24.296-8.798 52.814-20.154 85.834-33.303 41.106-16.369 87.696-34.922 137.654-53.056 34.716-12.601 67.424-4.579 99.995 24.527 59.321 53.01 141.719 144.664 142.545 145.583a1.5 1.5 0 0 1-1.115 2.502z" fill="#003029" id="tXDk_KNJ_KgBnaOpbO8VX"/><path d="M347.655 698.672c-6.602 0-13.822-.462-21.842-1.513a1.5 1.5 0 1 1 .39-2.974c32.8 4.298 51.97-1.457 70.301-8.266 60.969-22.647 132.009-55.124 194.687-83.777 24.192-11.06 47.042-21.506 67.847-30.724a1.5 1.5 0 1 1 1.215 2.743c-20.789 9.211-43.632 19.654-67.815 30.71-62.724 28.675-133.817 61.176-194.889 83.861-14.218 5.281-28.935 9.942-49.892 9.942z" fill="#003029" id="X7bzzDxAa8ED-cmtuFOPF"/><path d="M760.65 690.984a1.5 1.5 0 0 1-1.5-1.482c-.64-52.858-41.712-100.256-99.881-115.261a1.5 1.5 0 0 1-.259-2.812l30.939-14.422a1.5 1.5 0 1 1 1.267 2.719l-27.226 12.692c57.367 16.441 97.518 64.052 98.159 117.048a1.5 1.5 0 0 1-1.482 1.518h-.019zM348.036 497.827a1.5 1.5 0 0 1-.546-2.897l40.719-15.926a1.5 1.5 0 0 1 1.092 2.794l-40.719 15.926c-.179.07-.364.104-.546.104z" fill="#003029" id="xO1JafJa037wnhWvEIAY"/><path d="m228.315 512.293-15.357-25.637-138.843 12.745 49.481 82.607c45.312-18.716 81.858-41.241 104.719-69.715z" fill="#DE5D4A" id="ugh66Fl1bIRyIRs3LQ-gv"/><path d="m212.958 486.655-60.057-100.264 139.238-34.986c70.515-34.473 18.4-140.809-28.204-135.049-56.061 9.257-123.343 22.127-195.984 45.371-84.144 26.926-77.818 98.901-46.718 161.768 10.572 21.371-8.491 51.215-.539 69.696 9.681 22.499 38.271 13.881 40.576 25.517 9.068 45.774 11.733 61.119 11.733 61.119z" fill="#FE5236" id="SHEK-xGN57m_0ix7TfHNa"/><path d="M241.083 568.654s24.001 17.707 26.539 22.026 5.23 18.661 8.803 27.049c2.605 6.115 11.053 16.087 21.446 12.843 8.254-2.576 13.764-11.715 14.104-25.881.236-9.858-.861-21.642-12.579-38.173-13.491-19.032-35.172-31.184-35.172-31.184l-23.141 33.318z" fill="#DE5D4A" id="HPVLh2ZR56JExH9v2qg_O"/><path d="M211.023 592.213s24.001 17.707 26.539 22.026 5.23 18.661 8.803 27.049c2.605 6.115 11.053 16.087 21.446 12.843 8.254-2.576 16.482-11.912 14.104-25.881-2.184-12.832-3.396-28.654-12.223-42.151-15.099-23.088-32.168-31.465-32.168-31.465l-26.501 37.578z" fill="#DE5D4A" id="cDcBHtf8YuIiVlDNqwD"/><path d="M169.66 624.984c-14.508-4.565-37.174-16.354-46.064-42.977l104.719-69.715 35.909 23.043c12.819 57.26-30.022 80.154-94.565 89.649z" fill="#DE5D4A" id="AKzLQXrSy63dC_gL_4Tz"/><path d="M281.702 633.394a1.5 1.5 0 0 1-1.497-1.417c-.735-13.302-3.375-31.919-11.777-45.069-13.182-20.63-31.445-30.858-31.628-30.959a1.5 1.5 0 1 1 1.449-2.627c.774.427 19.118 10.703 32.707 31.971 8.753 13.698 11.49 32.858 12.245 46.519a1.5 1.5 0 0 1-1.499 1.583z" fill="#003029" id="GrchY8nMRsWELNpJG4pYI"/><path d="M158.477 617.866s21.071 18.834 23.082 23.133c2.011 4.3 3.278 18.068 5.905 26.298 1.915 6 8.999 16.157 19.093 14.019 8.015-1.698 14.024-9.83 15.601-23.164 1.097-9.279.777-20.307-8.48-37.127-12.604-22.9-35.99-32.752-35.99-32.752l-19.21 29.593z" fill="#DE5D4A" id="mJ0my9wg62yKaocXNOgbY"/><path d="M185.145 606.05s24.001 17.707 26.539 22.026 5.23 18.661 8.803 27.049c2.605 6.115 11.053 16.087 21.446 12.843 8.254-2.576 13.764-11.715 14.104-25.881.236-9.858-1.096-22.715-11.331-40.59-13.708-23.94-36.271-30.935-36.271-30.935z" fill="#DE5D4A" id="g7n3NBY9tpsLbjOc6Qprp"/><path d="M253.782 656.838a1.5 1.5 0 0 1-1.411-2.01c1.322-3.659 2.051-7.958 2.167-12.776.125-5.233-.303-23.563-11.08-39.722-12.355-18.527-31.251-30.623-31.441-30.743a1.5 1.5 0 1 1 1.606-2.534c.795.504 19.626 12.561 32.332 31.613 11.265 16.891 11.713 36.003 11.583 41.458-.123 5.142-.912 9.759-2.344 13.723a1.501 1.501 0 0 1-1.411.991zm-32.361 7.307a1.499 1.499 0 0 1-1.491-1.677c.689-5.824 2.785-23.549-5.986-42.014-10.394-21.884-27.258-29.823-27.427-29.9a1.501 1.501 0 0 1 1.247-2.729c.73.333 18.001 8.418 28.89 31.342 9.142 19.246 6.969 37.616 6.255 43.653a1.5 1.5 0 0 1-1.488 1.324zM163.29 406.396a1.502 1.502 0 0 1-1.31-.766l-23.726-42.265a1.5 1.5 0 1 1 2.616-1.468l23.726 42.265a1.5 1.5 0 0 1-1.307 2.234zm100.568-46.385a1.5 1.5 0 0 1-.365-2.955l28.28-7.106a1.5 1.5 0 0 1 .731 2.909l-28.28 7.106a1.498 1.498 0 0 1-.367.045zm61.351-77.064a1.5 1.5 0 0 1-1.496-1.415c-.009-.152-.956-15.342-8.533-30.774-10.07-20.507-26.487-31.722-48.795-33.332a1.5 1.5 0 0 1 .216-2.992c29.249 2.111 44.049 20.247 51.315 35.09 7.817 15.969 8.756 31.198 8.792 31.838a1.5 1.5 0 0 1-1.412 1.582c-.029.002-.058.002-.086.002zM536.973 329.8a1.5 1.5 0 0 1-.998-2.62c.228-.203 22.735-20.532 20.123-40.302a1.5 1.5 0 1 1 2.975-.393c2.822 21.352-20.123 42.064-21.101 42.935-.286.255-.642.38-.997.38z" fill="#003029" id="RSfjHx6cJAdYaQBSUHY"/></g></g><g transform="translate(1755.7142857142858 802.8571428571429) rotate(0.0 128.57142857142856 187.8571428571429) scale(1.56557679328124 1.5649089109959549)" id="FUZ6kyPr5Ck8THxr1LJAm"><g clip-path="url(#clipPath_YJRbCDfv)" transform="matrix(1 0 0 1 0 0)" id="rql6EnloufXQit8W0RsJ"><path d="M56.072 0h89.489c11.675 0 20.489 10.589 18.372 22.069l-37.385 202.724a18.681 18.681 0 0 1-18.372 15.293H18.687c-11.675 0-20.489-10.589-18.372-22.069L37.701 15.293A18.681 18.681 0 0 1 56.072 0z" fill="#FE5236" id="DWGHmUUn8NC2Fzm-jRGv4"/><g fill="#FEFEFE" id="vHxUvz2_9Eu4kDEZbPDGE"><path d="M144.213 33.484H51.871a1.5 1.5 0 0 1 0-3h92.342a1.5 1.5 0 0 1 0 3zm-8.027 43.144H43.844a1.5 1.5 0 0 1 0-3h92.342a1.5 1.5 0 0 1 0 3zm-8.027 43.144H35.816a1.5 1.5 0 0 1 0-3h92.342a1.5 1.5 0 0 1 0 3zm-8.028 43.144H27.789a1.5 1.5 0 0 1 0-3h92.342a1.5 1.5 0 0 1 0 3zm-8.027 43.144H19.762a1.5 1.5 0 0 1 0-3h92.342a1.5 1.5 0 0 1 0 3z" fill="#FEFEFE" id="nL7mYH7DatjJdg-79dtQm"/></g></g></g><g transform="translate(1194.2857142857142 770.0) rotate(28.34512203875468 105.71428571428578 134.28571428571433) scale(1.3295220368277612 1.334675581542289)" id="e6-8wRzvsDtkPthgu-J7s"><g clip-path="url(#clipPath_YEre7B-M)" transform="matrix(1 0 0 1 0 0)" id="iKv0WJh9LmNwcus84cw6u"><path d="M3.993 199.058a10.32 10.32 0 0 1-2.008-14.238L120.986 21.791l25.702 19.948L18.285 197.471c-3.551 4.306-9.882 5.01-14.291 1.588z" fill="#003029" id="qH_BYhCNc821J3Qg9tQ6Z"/><path d="m46.273 124.146 65.976-90.385c5.571-7.632 6.763-13.501 6.763-13.501l29.649 23.012s-5.962 3.305-11.401 9.902l-71.188 86.34-19.799-15.367z" fill="#003029" id="DQSbkddVSVAA1qhPTRcgo"/><path d="M92.394 92.219a7.036 7.036 0 0 1-4.327-1.482c-3.08-2.39-3.641-6.841-1.25-9.921l27.688-35.673a7.025 7.025 0 0 1 4.701-2.68 7.03 7.03 0 0 1 5.219 1.429c3.08 2.39 3.641 6.841 1.25 9.921L97.988 89.486a7.063 7.063 0 0 1-5.594 2.732zm27.704-46.812a4.09 4.09 0 0 0-.517.033 4.04 4.04 0 0 0-2.706 1.543L89.187 82.656a4.075 4.075 0 0 0 .72 5.711 4.075 4.075 0 0 0 5.711-.72l27.687-35.673a4.075 4.075 0 0 0-.72-5.711 4.037 4.037 0 0 0-2.487-.855z" fill="#FEFEFE" id="m-EXrP5Qneo29TYV8QuIf"/><path d="m119.012 20.259 29.649 23.013 8.017-34.824-5.921-4.596z" fill="#003029" id="nVzkiLLlpN3JaTdiexZvM"/><rect fill="#003029" height="14.298" rx="2.392" transform="matrix(.78997312 .61314147 -.61314147 .78997312 36.055 -92.958)" width="4.785" x="151.325" y="-.999" id="jcnBBryB-1fGsUV3Ir7lU"/><g fill="#FEFEFE" id="qnKdW9WteU3FUSy8PoVC"><path d="M66.071 141.013c-.322 0-.645-.103-.919-.315l-19.799-15.367a1.5 1.5 0 1 1 1.84-2.37l19.799 15.367a1.5 1.5 0 0 1-.921 2.685zm82.589-96.241c-.322 0-.645-.103-.919-.315l-29.649-23.012a1.5 1.5 0 1 1 1.84-2.37l29.649 23.012a1.5 1.5 0 0 1-.921 2.685z" fill="#FEFEFE" id="HuE0FtHNS_cvuYUx5-Imf"/></g></g></g><g transform="translate(1225.7142857142858 897.1428571428571) rotate(2.253420315771733 52.85714285714289 103.57142857142856) scale(1.4273369749714542 1.4367958461736638)" id="my66VDcL9hG9teXMC3aiS"><g clip-path="url(#clipPath_vZUBKPul)" transform="matrix(1 0 0 1 0 0)" id="HFVjHQP0m9cL9CfFaXLm"><path d="M24.937 49.996c42.86-5.049 47.09-19.711 46.139-29.303C69.116.903 39.036.182 26.123 2.33 5.655 5.734.208 18.007 1.744 24.986c2.352 10.686 12.927 19.313 40.315 15.76z" fill="#DE5D4A" id="ETNiRayYGzRDon60aruY9"/><path d="M30.562 43.047C7.91 43.048 1.827 32.347.278 25.308c-.834-3.79.191-8.188 2.813-12.064C6.083 8.821 12.464 3.081 25.877.85c5.346-.889 14.07-1.352 22.521.017a1.5 1.5 0 0 1-.479 2.961c-8.094-1.311-16.439-.869-21.55-.019-12.362 2.056-18.13 7.18-20.792 11.115-2.131 3.151-3.017 6.792-2.368 9.739 2.745 12.473 16.112 17.519 38.657 14.594a1.501 1.501 0 0 1 .385 2.976c-4.317.56-8.201.814-11.689.814z" fill="#003029" id="j3EO5RKdKzdQg4GOPpHmt"/><path d="M27.812 81.762c42.86-5.049 47.09-19.711 46.139-29.303-1.961-19.789-32.04-20.511-44.954-18.363C8.529 37.5 3.082 49.774 4.618 56.752c2.352 10.686 12.927 19.313 40.315 15.76l-17.122 9.25z" fill="#DE5D4A" id="CKUmLxP8InrAvRojs5YEY"/><path d="M33.437 74.813c-22.652.001-28.735-10.7-30.284-17.739-.834-3.791.191-8.188 2.813-12.065 2.991-4.423 9.373-10.163 22.785-12.394 9.188-1.527 29.399-1.993 40.139 7.182a1.5 1.5 0 0 1-1.949 2.281c-9.182-7.844-27.575-8.187-37.698-6.504-12.362 2.056-18.13 7.179-20.792 11.115-2.132 3.151-3.017 6.792-2.369 9.739 2.745 12.473 16.112 17.52 38.657 14.594a1.5 1.5 0 0 1 .385 2.976c-4.317.56-8.201.814-11.689.814z" fill="#003029" id="ySN8CLyXyS37ACh34tNDb"/><path d="M27.081 114.049C69.941 109 74.171 94.338 73.22 84.746c-1.961-19.789-32.04-20.511-44.954-18.363C7.798 69.787 2.351 82.061 3.887 89.039c2.352 10.686 12.927 19.313 40.315 15.76l-17.122 9.25z" fill="#DE5D4A" id="eTmlJh7pGYq3aKkz-2lVh"/><path d="M32.706 107.1c-22.652.001-28.735-10.7-30.284-17.739-.834-3.791.191-8.188 2.813-12.064 2.991-4.423 9.373-10.163 22.785-12.394 8.906-1.481 34.065-2.439 43.415 10.741a1.5 1.5 0 0 1-2.446 1.736c-7.511-10.589-28.813-11.457-40.476-9.518-12.362 2.056-18.13 7.179-20.792 11.115-2.131 3.151-3.017 6.792-2.368 9.739 2.745 12.473 16.111 17.519 38.657 14.594a1.5 1.5 0 0 1 .385 2.976c-4.317.56-8.201.814-11.689.814z" fill="#003029" id="ybXnx-YLI4E38A4gNgUEL"/><path d="M26.619 144.17c42.86-5.049 47.09-19.635 46.139-29.227-1.961-19.789-32.04-20.511-44.954-18.363-20.468 3.404-25.915 15.678-24.379 22.656 2.352 10.686 12.927 19.313 40.315 15.76l-17.121 9.175z" fill="#DE5D4A" id="dpMDY45lhjeWFyMQeo"/><path d="M32.244 137.297c-22.652.001-28.735-10.7-30.283-17.739-.834-3.79.191-8.188 2.813-12.064 2.991-4.423 9.372-10.163 22.785-12.394 12.3-2.045 33.816-1.13 42.682 9.777a1.5 1.5 0 0 1-2.328 1.892c-8.002-9.844-28.696-10.566-39.862-8.71-12.362 2.056-18.13 7.179-20.792 11.115-2.131 3.151-3.017 6.792-2.368 9.739 2.745 12.473 16.112 17.519 38.657 14.594a1.5 1.5 0 0 1 .385 2.976c-4.317.56-8.201.814-11.689.814z" fill="#003029" id="QBjwceUi8CkF9zOe-AJW"/></g></g><g transform="translate(2434.285714285714 552.8571428571429) rotate(0.0 217.8571428571429 351.42857142857144) scale(1.4261539806763153 1.4261307738730524)" id="NIVCtdEIMVuEU3QFPMgY"><g clip-path="url(#clipPath_oZ9dV2rR)" transform="matrix(1 0 0 1 0 0)" id="R9PHzmOsx90mMTSIaMhy9"><path d="M165.114 456.658s46.066-10.703 64.447-53.944c5.477-12.885-108.234-65.582-108.234-65.582s-30.971 24.026-62.33 52.698z" fill="#FF8E77" id="KZA0r0CsAeAT1eWwBLU5N"/><path d="M98.123 406.308s-7.599 8.573-13.491 13.876c28.369-5.967 37.899 25.366-.386 41.804-43.188 18.544-72.88-28.607-25.249-72.158 15.542-2.212 27.778 5.766 39.126 16.477z" fill="#FF8E77" id="ncCrhsnd6JMvmk345gSPt"/><path d="M123.205 421.618s-7.599 8.573-13.491 13.876c28.369-5.967 37.899 25.366-.386 41.804-43.188 18.544-72.88-28.607-25.249-72.158 15.542-2.212 27.778 5.766 39.126 16.477z" fill="#FF8E77" id="MKo7JglytzayCjiJDakxX"/><path d="M62.648 466.006a1.5 1.5 0 0 1-1.364-.873c-6.451-14.01-4.117-37.418 21.783-61.099a1.5 1.5 0 1 1 2.024 2.214C60.383 428.839 58 450.83 64.009 463.878a1.501 1.501 0 0 1-1.361 2.128z" fill="#003029" id="f8OBAkW9M48wURcnXZvF"/><path d="M147.858 431.51s-7.187 8.108-12.759 13.124c26.83-5.643 35.843 23.99-.365 39.537-40.846 17.538-68.927-27.056-23.88-68.244 14.699-2.092 26.271 5.453 37.004 15.583z" fill="#FF8E77" id="B4yR8A-R9eiCR1XQmRzNt"/><path d="M96.885 482.23c-.361 0-.723-.13-1.011-.392-6.159-5.625-9.552-13.767-9.555-22.926-.004-14.559 8.35-30.218 23.524-44.092a1.5 1.5 0 0 1 2.024 2.214c-14.544 13.299-22.552 28.171-22.548 41.877.002 8.307 3.049 15.663 8.578 20.712a1.5 1.5 0 0 1-1.012 2.608z" fill="#003029" id="qI18CQadH2CraEk9FaISO"/><path d="M139.656 428.183c-23.034 21.061-25.248 41.061-15.607 53.183 10.748 13.515 29.96 13.02 41.305 8.97 17.447-6.227 24.38-26.377-.24-33.68.732-2.957 1.355-4.617 3.005-10.134l-28.464-18.339z" fill="#FF8E77" id="Q6jOE-_r_nEMpXvDMKMAd"/><path d="M169.431 459.697c-.196 0-.396-.039-.588-.121-2.376-1.014-5.129-1.853-8.183-2.494a1.5 1.5 0 0 1 .616-2.936c3.246.682 6.187 1.58 8.744 2.671a1.5 1.5 0 0 1-.589 2.88zm-40.987 27.601c-.331 0-.664-.109-.941-.333a29.936 29.936 0 0 1-4.627-4.665c-9.083-11.422-9.71-31.927 15.769-55.224a1.5 1.5 0 0 1 2.024 2.214c-23.956 21.904-23.686 40.781-15.445 51.143a26.966 26.966 0 0 0 4.163 4.198 1.499 1.499 0 0 1-.943 2.667z" fill="#003029" id="mQqybYkhiSZeuB-nlDFp"/><path d="M110.581 345.675 156.5 237.86 2.279 114.997C-14.121 60.277 61.75-17.048 109.658 8.524c38.439 22.553 66.584 43.719 130.174 93.26 35.58 27.719 74.644 65.088 61.622 143.968-7.364 44.612-9.428 66.482-19.562 98.459-5.745 18.128-23.909 24.302-39.04 28.407-7.749 16.85-16.272 36.391-16.272 36.391l-115.998-63.334z" fill="#FEFEFE" id="TK47uwcFiK24Ey8BZVlj"/><g fill="#003029" id="s9Wacljs9k9XjLRzsXymm"><path d="M156.499 239.36a1.5 1.5 0 0 1-1.354-2.143l17.623-37.191a1.5 1.5 0 1 1 2.711 1.285l-17.623 37.191a1.5 1.5 0 0 1-1.356.858z" fill="#003029" id="SuhetBx7SSlo6W1EI9n"/><path d="M226.58 410.509c-.249 0-.496-.062-.719-.183l-115.998-63.334a1.499 1.499 0 0 1-.661-1.904l45.472-106.765L29.18 138.346a1.5 1.5 0 0 1 1.869-2.347l126.386 100.688a1.5 1.5 0 0 1 .446 1.761l-45.385 106.563 113.367 61.897c2.148-4.904 9.193-20.925 15.627-34.917a1.5 1.5 0 0 1 .97-.821c14.988-4.066 32.852-10.855 38.001-27.405 7.944-25.535 10.996-44.816 15.615-74.003a3587.463 3587.463 0 0 1 3.899-24.255c12.817-77.644-24.8-114.288-61.064-142.541C177.464 55.097 136.5 24.513 108.953 9.848c-5.84-3.109-15.721-6.91-15.821-6.948A1.5 1.5 0 0 1 94.207.099c.412.158 10.154 3.906 16.156 7.101 27.739 14.767 68.815 45.429 130.391 93.401 18.176 14.16 36.743 30.412 49.426 53.254 14.505 26.124 18.677 56.264 12.754 92.142-1.469 8.897-2.758 17.045-3.896 24.235-4.639 29.316-7.704 48.683-15.713 74.425-5.503 17.686-23.817 24.934-39.402 29.224-7.577 16.501-15.884 35.536-15.968 35.728a1.502 1.502 0 0 1-1.375.901z" fill="#003029" id="XaRcWVbiNNeOqCfhNZYJa"/><path d="M148.673 323.901c-.238 0-.48-.057-.705-.177l-22.965-12.245a1.5 1.5 0 1 1 1.411-2.647l22.965 12.245a1.5 1.5 0 0 1-.707 2.823zm94.178 50.217c-.238 0-.48-.057-.705-.177l-64.538-34.413a1.5 1.5 0 1 1 1.411-2.647l64.538 34.413a1.5 1.5 0 0 1-.707 2.823z" fill="#003029" id="T6fD11lngp1ItAJDA_js8"/></g></g></g></g></g></svg>